<?xml version="1.0" encoding="utf-8"?>
<!-- Generator: Adobe Illustrator 16.0.0, SVG Export Plug-In . SVG Version: 6.00 Build 0)  -->
<!DOCTYPE svg PUBLIC "-//W3C//DTD SVG 1.1//EN" "http://www.w3.org/Graphics/SVG/1.1/DTD/svg11.dtd">
<svg version="1.1"
	 id="svg2" xmlns:dc="http://purl.org/dc/elements/1.1/" xmlns:cc="http://creativecommons.org/ns#" xmlns:rdf="http://www.w3.org/1999/02/22-rdf-syntax-ns#" xmlns:svg="http://www.w3.org/2000/svg" xmlns:sodipodi="http://sodipodi.sourceforge.net/DTD/sodipodi-0.dtd" xmlns:inkscape="http://www.inkscape.org/namespaces/inkscape" sodipodi:docname="buttons.svg" inkscape:version="0.48.4 r9939"
	 xmlns="http://www.w3.org/2000/svg" xmlns:xlink="http://www.w3.org/1999/xlink" x="0px" y="0px" width="50px" height="350px"
	 viewBox="0 0 50 350" enable-background="new 0 0 50 350" xml:space="preserve">
<sodipodi:namedview  inkscape:cy="179.44" inkscape:cx="-157.36625" inkscape:zoom="0.95358234" showgrid="false" guidetolerance="10" gridtolerance="10" objecttolerance="10" bordercolor="#666666" pagecolor="#ffffff" borderopacity="1" id="namedview41" fit-margin-right="0" fit-margin-bottom="0" inkscape:current-layer="svg2" inkscape:window-maximized="1" inkscape:window-y="24" inkscape:window-x="39" inkscape:window-height="1056" inkscape:window-width="1881" inkscape:pageshadow="2" inkscape:pageopacity="0" fit-margin-left="0" fit-margin-top="0" inkscape:object-nodes="true">
	</sodipodi:namedview>
<g id="g3841" transform="translate(1.0611667e-5,-3.1694294e-6)">
	<g id="previousPage" transform="translate(-680.27395,-411.68824)">
		<path id="path3010" inkscape:connector-curvature="0" fill="#E0DCD8" d="M730.274,436.688c0.011,13.807-11.173,25.009-24.98,25.02
			c-13.807,0.011-25.009-11.173-25.02-24.98c0-0.013,0-0.026,0-0.039c-0.011-13.808,11.173-25.009,24.98-25.02
			c13.807-0.012,25.009,11.173,25.02,24.979C730.274,436.662,730.274,436.675,730.274,436.688z"/>
		<path id="rect3012" inkscape:connector-curvature="0" fill="#FD7400" d="M710.364,423.769l-10.179,10.179l-2.741,2.741l2.741,2.74
			l10.179,10.179l2.74-2.696l-10.179-10.223l10.179-10.18L710.364,423.769z"/>
	</g>
	<g id="nextPage" transform="matrix(-1,0,0,1,730.274,-368.76166)">
		<path id="path3789" inkscape:connector-curvature="0" fill="#E0DCD8" d="M730.274,493.762c0.011,13.807-11.173,25.009-24.98,25.02
			c-13.807,0.011-25.009-11.173-25.02-24.98c0-0.013,0-0.026,0-0.039c-0.011-13.808,11.174-25.009,24.98-25.02
			c13.807-0.011,25.009,11.173,25.02,24.98C730.274,493.736,730.274,493.748,730.274,493.762z"/>
		<path id="path3791" inkscape:connector-curvature="0" fill="#FD7400" d="M710.364,480.842l-10.18,10.18l-2.74,2.74l2.74,2.74
			l10.18,10.18l2.74-2.697l-10.179-10.223l10.179-10.179L710.364,480.842L710.364,480.842z"/>
	</g>
	<g id="fullScreen" transform="translate(-767.49984,-252.75131)">
		<g id="g3801" transform="matrix(-1,0,0,1,1497.7739,-16.010149)">
			<path id="path3803" inkscape:connector-curvature="0" fill="#E0DCD8" d="M730.274,493.762
				c0.011,13.808-11.173,25.009-24.98,25.02c-13.807,0.011-25.009-11.173-25.02-24.979c0-0.014,0-0.026,0-0.04
				c-0.012-13.807,11.173-25.009,24.98-25.02s25.009,11.173,25.02,24.98C730.274,493.735,730.274,493.749,730.274,493.762z"/>
		</g>
		<path id="rect3807" inkscape:connector-curvature="0" fill="#FD7400" d="M777.5,462.752v4v8l4-4l4,4l4-4l-4-4l4-4h-8H777.5z"/>
		<path id="path3816" inkscape:connector-curvature="0" fill="#FD7400" d="M807.5,462.752v4v8l-4-4l-4,4l-4-4l4-4l-4-4h8H807.5z"/>
		<path id="path3820" inkscape:connector-curvature="0" fill="#FD7400" d="M777.5,492.752v-4v-8l4,4l4-4l4,4l-4,4l4,4h-8H777.5z"/>
		<path id="path3822" inkscape:connector-curvature="0" fill="#FD7400" d="M807.5,492.752v-4v-8l-4,4l-4-4l-4,4l4,4l-4,4h8H807.5z"
			/>
	</g>
	<g id="restore" transform="translate(-676.73844,-311.19022)">
		<g id="g3834" transform="matrix(-1,0,0,1,1407.0125,142.42896)">
			<path id="path3836" inkscape:connector-curvature="0" fill="#E0DCD8" d="M730.274,493.762
				c0.011,13.808-11.173,25.009-24.98,25.02c-13.807,0.012-25.009-11.173-25.02-24.979c0-0.014,0-0.026,0-0.04
				c-0.011-13.807,11.174-25.009,24.98-25.02c13.807-0.011,25.009,11.173,25.02,24.98
				C730.274,493.735,730.274,493.749,730.274,493.762z"/>
		</g>
		<path id="path3838" inkscape:connector-curvature="0" fill="#FD7400" d="M698.738,633.19v-4v-8l-4,4l-4-4l-4,4l4,4l-4,4h8H698.738
			z"/>
		<path id="path3840" inkscape:connector-curvature="0" fill="#FD7400" d="M704.738,633.19v-4v-8l4,4l4-4l4,4l-4,4l4,4h-8H704.738z"
			/>
		<path id="path3842" inkscape:connector-curvature="0" fill="#FD7400" d="M698.738,639.19v4v8l-4-4l-4,4l-4-4l4-4l-4-4h8H698.738z"
			/>
		<path id="path3844" inkscape:connector-curvature="0" fill="#FD7400" d="M704.738,639.19v4v8l4-4l4,4l4-4l-4-4l4-4h-8H704.738z"/>
	</g>
</g>
</svg>
