<?xml version="1.0" encoding="UTF-8" standalone="no"?>
<!-- Generator: Adobe Illustrator 19.0.0, SVG Export Plug-In . SVG Version: 6.00 Build 0)  -->

<svg
   xmlns:dc="../../../../../external.html?link=http://purl.org/dc/elements/1.1/"
   xmlns:cc="../../../../../external.html?link=http://creativecommons.org/ns#"
   xmlns:rdf="../../../../../external.html?link=http://www.w3.org/1999/02/22-rdf-syntax-ns#"
   xmlns:svg="../../../../../external.html?link=http://www.w3.org/2000/svg"
   xmlns="../../../../../external.html?link=http://www.w3.org/2000/svg"
   xmlns:sodipodi="../../../../../sodipodi.sourceforge.net/DTD/sodipodi-0.html"
   xmlns:inkscape="../../../../../external.html?link=http://www.inkscape.org/namespaces/inkscape"
   version="1.1"
   id="Calque_1"
   x="0px"
   y="0px"
   viewBox="-312 372 50 50"
   style="enable-background:new -312 372 50 50;"
   xml:space="preserve"
   inkscape:version="0.91 r13725"
   sodipodi:docname="button-exit.svg"><metadata
     id="metadata14"><rdf:RDF><cc:Work
         rdf:about=""><dc:format>image/svg+xml</dc:format><dc:type
           rdf:resource="../../../../../external.html?link=http://purl.org/dc/dcmitype/StillImage" /></cc:Work></rdf:RDF></metadata><defs
     id="defs12" /><sodipodi:namedview
     pagecolor="#ffffff"
     bordercolor="#666666"
     borderopacity="1"
     objecttolerance="10"
     gridtolerance="10"
     guidetolerance="10"
     inkscape:pageopacity="0"
     inkscape:pageshadow="2"
     inkscape:window-width="1085"
     inkscape:window-height="617"
     id="namedview10"
     showgrid="false"
     inkscape:zoom="4.72"
     inkscape:cx="-1.3771186"
     inkscape:cy="25"
     inkscape:window-x="0"
     inkscape:window-y="0"
     inkscape:window-maximized="0"
     inkscape:current-layer="Calque_1" /><style
     type="text/css"
     id="style3">
	.st0{fill:#E0ECEC;}
	.st1{fill:#434E52;}
</style><path
     id="path3046"
     class="st0"
     d="m -312,397 c 0,13.8 11.2,25 25,25 13.8,0 25,-11.2 25,-25 0,-13.8 -11.2,-25 -25,-25 -13.8,0 -25,11.2 -25,25 z"
     inkscape:connector-curvature="0"
     style="fill:#e0ecec" /><g
     id="Page-1"><g
       id="Core"
       transform="translate(-87.000000, -213.000000)"><g
         id="exit-to-app"
         transform="translate(87.000000, 213.000000)"><path
           id="Shape"
           class="st1"
           d="M-289.6,402.6l2.1,2.1l7.4-7.4l-7.4-7.4l-2.1,2.1l3.9,3.9h-14.4v3h14.4L-289.6,402.6     L-289.6,402.6z M-276.4,383.8h-20.8c-1.6,0-3,1.3-3,3v5.9h3v-5.9h20.8v20.8h-20.8v-5.9h-3v5.9c0,1.6,1.3,3,3,3h20.8     c1.6,0,3-1.3,3-3v-20.8C-273.4,385.2-274.8,383.8-276.4,383.8L-276.4,383.8z" /></g></g></g></svg>