<?xml version="1.0" encoding="utf-8"?>
<!-- Generator: Adobe Illustrator 16.0.0, SVG Export Plug-In . SVG Version: 6.00 Build 0)  -->
<!DOCTYPE svg PUBLIC "-//W3C//DTD SVG 1.1//EN" "http://www.w3.org/Graphics/SVG/1.1/DTD/svg11.dtd">
<svg version="1.1"
	 id="svg2" xmlns:dc="http://purl.org/dc/elements/1.1/" xmlns:cc="http://creativecommons.org/ns#" xmlns:rdf="http://www.w3.org/1999/02/22-rdf-syntax-ns#" xmlns:svg="http://www.w3.org/2000/svg" xmlns:sodipodi="http://sodipodi.sourceforge.net/DTD/sodipodi-0.dtd" xmlns:inkscape="http://www.inkscape.org/namespaces/inkscape" sodipodi:docname="gallery.svg" inkscape:version="0.48.5 r10040"
	 xmlns="http://www.w3.org/2000/svg" xmlns:xlink="http://www.w3.org/1999/xlink" x="0px" y="0px" width="15px" height="200px"
	 viewBox="0 0 15 200" enable-background="new 0 0 15 200" xml:space="preserve">
<sodipodi:namedview  inkscape:cy="156.89552" inkscape:cx="26.457553" inkscape:zoom="6.675088" showgrid="false" guidetolerance="10" gridtolerance="10" objecttolerance="10" bordercolor="#666666" pagecolor="#ffffff" borderopacity="1" id="namedview366" inkscape:current-layer="svg2" inkscape:window-maximized="1" inkscape:window-y="-9" inkscape:window-x="77" inkscape:window-height="1053" inkscape:window-width="1834" inkscape:pageshadow="2" inkscape:pageopacity="0">
	</sodipodi:namedview>
<g id="tpl">
	<g id="gallery">
		<g id="g3121">
			<path id="path2993" fill="#E0DCD8" d="M15,24.314c0.003,4.141-3.352,7.5-7.494,7.503C3.363,31.82,0.003,28.466,0,24.326
				c0-0.005,0-0.008,0-0.012c0-4.141,3.357-7.497,7.5-7.497C11.643,16.817,15,20.174,15,24.314z"/>
			<path id="rect3002" fill="#94739D" d="M4.406,19.91c-0.336,0-0.656,0.14-0.914,0.397c-0.515,0.517-0.515,1.336,0,1.851
				l2.156,2.156L3.492,26.47c-0.515,0.516-0.515,1.335,0,1.851c0.516,0.516,1.336,0.516,1.852,0L7.5,26.165l2.156,2.155
				c0.516,0.516,1.336,0.516,1.852,0c0.516-0.516,0.516-1.335,0-1.851l-2.156-2.155l2.156-2.156c0.516-0.515,0.516-1.334,0-1.851
				c-0.516-0.516-1.336-0.516-1.852,0L7.5,22.464l-2.157-2.156C5.086,20.05,4.743,19.91,4.406,19.91z"/>
		</g>
		<g id="g48">
			<path id="path2993_1_" fill="#94739D" d="M15,7.497c0.003,4.141-3.352,7.5-7.494,7.503C3.363,15.003,0.002,11.648,0,7.509
				c0-0.005,0-0.008,0-0.012C0,3.356,3.357,0,7.5,0C11.643,0,15,3.356,15,7.497z"/>
			<path id="rect3002_1_" fill="#E0DCD8" d="M4.406,3.093c-0.336,0-0.656,0.14-0.914,0.397c-0.515,0.517-0.515,1.336,0,1.851
				l2.156,2.156L3.492,9.652c-0.515,0.516-0.515,1.335,0,1.851c0.516,0.516,1.336,0.516,1.852,0L7.5,9.348l2.156,2.155
				c0.516,0.516,1.336,0.516,1.852,0s0.516-1.335,0-1.851L9.352,7.497l2.156-2.156c0.516-0.515,0.516-1.334,0-1.851
				c-0.516-0.516-1.336-0.516-1.852,0L7.5,5.646L5.343,3.49C5.086,3.232,4.742,3.093,4.406,3.093z"/>
		</g>
		<path id="pseOvr" fill="#E0DCD8" d="M2.999,185c-0.832,0-1.5,0.668-1.5,1.5v12c0,0.83,0.668,1.5,1.5,1.5h1
			c0.83,0,1.5-0.67,1.5-1.5v-12c0-0.832-0.67-1.5-1.5-1.5H2.999z M10.999,185c-0.832,0-1.5,0.668-1.5,1.5v12
			c0,0.83,0.668,1.5,1.5,1.5h1c0.83,0,1.5-0.67,1.5-1.5v-12c0-0.832-0.67-1.5-1.5-1.5H10.999z"/>
		<path id="pse" fill="#94739D" d="M3,168.184c-0.83,0-1.5,0.668-1.5,1.5v12c0,0.83,0.67,1.5,1.5,1.5h1c0.832,0,1.5-0.67,1.5-1.5
			v-12c0-0.832-0.668-1.5-1.5-1.5H3z M11,168.184c-0.83,0-1.5,0.668-1.5,1.5v12c0,0.83,0.67,1.5,1.5,1.5h1c0.832,0,1.5-0.67,1.5-1.5
			v-12c0-0.832-0.668-1.5-1.5-1.5H11z"/>
		<path id="prevOvr" fill="#E0DCD8" d="M1.5,151.365c-0.832,0-1.5,0.668-1.5,1.5v12c0,0.83,0.668,1.5,1.5,1.5
			c0.83,0,1.5-0.67,1.5-1.5v-12C3,152.033,2.33,151.365,1.5,151.365z M13.469,151.365c-0.313,0-0.623,0.1-0.875,0.281l-8,5.969
			c-0.746,0.555-0.746,1.85,0,2.406l8,6.031c0.883,0.668,2.4-0.08,2.406-1.189v-12c0.002-0.745-0.633-1.438-1.375-1.5
			c-0.043-0.002-0.084-0.002-0.125,0h-0.031V151.365z"/>
		<path id="prev" fill="#94739D" d="M1.5,134.546c-0.83,0-1.5,0.668-1.5,1.5v12c0,0.83,0.67,1.5,1.5,1.5c0.832,0,1.5-0.67,1.5-1.5
			v-12C3,135.214,2.332,134.546,1.5,134.546z M13.469,134.546c-0.311,0-0.621,0.101-0.875,0.281l-8,5.969
			c-0.746,0.556-0.746,1.851,0,2.406l8,6.03c0.883,0.668,2.4-0.08,2.406-1.188v-12c0.004-0.746-0.631-1.438-1.375-1.5
			c-0.041-0.002-0.082-0.002-0.125,0L13.469,134.546L13.469,134.546z"/>
		<path id="plyOvr" fill="#E0DCD8" d="M3.391,117.729c-0.742,0.063-1.377,0.758-1.375,1.506v12.048
			c0.008,1.11,1.525,1.862,2.406,1.19l8-6.055c0.748-0.557,0.748-1.857,0-2.414l-8-5.992c-0.252-0.184-0.563-0.283-0.875-0.283
			H3.516C3.475,117.729,3.434,117.729,3.391,117.729L3.391,117.729z"/>
		<path id="ply" fill="#94739D" d="M3.393,100.912c-0.742,0.063-1.377,0.758-1.375,1.506v12.047
			c0.006,1.111,1.523,1.863,2.406,1.191l8-6.055c0.746-0.558,0.746-1.857,0-2.414l-8-5.992c-0.252-0.184-0.563-0.283-0.875-0.283
			H3.518C3.477,100.91,3.434,100.91,3.393,100.912L3.393,100.912z"/>
		<path id="nxtOvr_1_" fill="#E0DCD8" d="M1.375,84.094c-0.744,0.063-1.379,0.754-1.375,1.5v12c0.006,1.107,1.523,1.855,2.406,1.188
			l8-6.031c0.746-0.557,0.746-1.852,0-2.406l-8-5.969c-0.254-0.182-0.564-0.281-0.875-0.281H1.5
			C1.457,84.092,1.416,84.092,1.375,84.094L1.375,84.094z M13.5,84.094c-0.832,0-1.5,0.668-1.5,1.5v12c0,0.83,0.668,1.5,1.5,1.5
			c0.83,0,1.5-0.67,1.5-1.5v-12C15,84.762,14.33,84.094,13.5,84.094z"/>
		<path id="nxt" fill="#94739D" d="M1.375,67.274c-0.742,0.063-1.377,0.754-1.375,1.5v12c0.008,1.107,1.525,1.855,2.406,1.188
			l8-6.031c0.748-0.557,0.748-1.852,0-2.406l-8-5.969c-0.252-0.182-0.563-0.281-0.875-0.281H1.5
			C1.459,67.272,1.418,67.272,1.375,67.274L1.375,67.274z M13.5,67.274c-0.83,0-1.5,0.668-1.5,1.5v12c0,0.83,0.67,1.5,1.5,1.5
			c0.832,0,1.5-0.67,1.5-1.5v-12C15,67.942,14.332,67.274,13.5,67.274z"/>
		<path id="noPrev" fill="#F3F3F3" d="M1.375,33.637c-0.744,0.062-1.379,0.754-1.375,1.5v12c0.006,1.107,1.523,1.855,2.406,1.188
			l8-6.031c0.746-0.557,0.746-1.852,0-2.406l-8-5.969c-0.254-0.182-0.564-0.281-0.875-0.281H1.5
			C1.457,33.635,1.416,33.635,1.375,33.637L1.375,33.637z M13.5,33.637c-0.832,0-1.5,0.668-1.5,1.5v12c0,0.83,0.668,1.5,1.5,1.5
			c0.83,0,1.5-0.67,1.5-1.5v-12C15,34.305,14.33,33.637,13.5,33.637z"/>
		<path id="noNxt" fill="#F3F3F3" d="M1.5,50.456c-0.832,0-1.5,0.669-1.5,1.5v12.001c0,0.83,0.668,1.5,1.5,1.5
			c0.83,0,1.5-0.67,1.5-1.5V51.956C3,51.125,2.33,50.456,1.5,50.456z M13.469,50.456c-0.313,0-0.623,0.1-0.875,0.281l-8,5.969
			c-0.746,0.556-0.746,1.851,0,2.407l8,6.031c0.883,0.668,2.4-0.08,2.406-1.188v-12c0.002-0.745-0.633-1.438-1.375-1.5
			c-0.043-0.002-0.084-0.002-0.125,0H13.469L13.469,50.456z"/>
	</g>
</g>
</svg>
