<?xml version="1.0" encoding="utf-8"?>
<!-- Generator: Adobe Illustrator 16.0.0, SVG Export Plug-In . SVG Version: 6.00 Build 0)  -->
<!DOCTYPE svg PUBLIC "-//W3C//DTD SVG 1.1//EN" "http://www.w3.org/Graphics/SVG/1.1/DTD/svg11.dtd">
<svg version="1.1"
	 id="svg2" xmlns:dc="http://purl.org/dc/elements/1.1/" xmlns:cc="http://creativecommons.org/ns#" xmlns:rdf="http://www.w3.org/1999/02/22-rdf-syntax-ns#" xmlns:svg="http://www.w3.org/2000/svg" xmlns:sodipodi="http://sodipodi.sourceforge.net/DTD/sodipodi-0.dtd" xmlns:inkscape="http://www.inkscape.org/namespaces/inkscape" sodipodi:docname="menu-bullet-quiz.svg" inkscape:version="0.48.4 r9939"
	 xmlns="http://www.w3.org/2000/svg" xmlns:xlink="http://www.w3.org/1999/xlink" x="0px" y="0px" width="20px" height="20px"
	 viewBox="0 0 20 20" enable-background="new 0 0 20 20" xml:space="preserve">
<sodipodi:namedview  inkscape:cy="94.865731" inkscape:cx="-19.227242" inkscape:zoom="1.3606886" showgrid="false" guidetolerance="10" gridtolerance="10" objecttolerance="10" bordercolor="#666666" pagecolor="#ffffff" borderopacity="1" id="namedview41" fit-margin-right="0" fit-margin-bottom="0" inkscape:current-layer="svg2" inkscape:window-maximized="1" inkscape:window-y="24" inkscape:window-x="39" inkscape:window-height="1056" inkscape:window-width="1881" inkscape:pageshadow="2" inkscape:pageopacity="0" fit-margin-left="0" fit-margin-top="0" inkscape:object-nodes="true">
	</sodipodi:namedview>
<path id="path3948" sodipodi:nodetypes="ccccccccccccc" inkscape:connector-curvature="0" fill="#FD7400" d="M2.242,5.06
	c1.762,0.058,5.371,0.023,4.563-1.429c-4.55-2.042,2.872-6.405,1.411-1.098c0.474,1.018,3.39-0.351,6.22-1.762
	c0.431,1.668-0.021,5.003,2.072,4.175c2.838-4.104,5.553,3.138,1.245,2.165c-2.381-0.843,0.218,4.491,0.679,7.177
	c-1.813,0.721-5.973,0.308-5.207,2.278c5.787,3.279-2.266,5.412-1.812,0.684c0.591-2.529-3.313,0.9-4.982,1.367
	c-0.893-1.835,1.106-6.033-2.637-5.309c-3.755,5.024-5.814-2.811-0.906-2.619C6.467,12.412,2.431,6.882,2.242,5.06z"/>
</svg>
