<?xml version="1.0" encoding="utf-8"?>
<!-- Generator: Adobe Illustrator 16.0.0, SVG Export Plug-In . SVG Version: 6.00 Build 0)  -->
<!DOCTYPE svg PUBLIC "-//W3C//DTD SVG 1.1//EN" "http://www.w3.org/Graphics/SVG/1.1/DTD/svg11.dtd">
<svg version="1.1"
	 id="svg2" xmlns:dc="http://purl.org/dc/elements/1.1/" xmlns:cc="http://creativecommons.org/ns#" xmlns:rdf="http://www.w3.org/1999/02/22-rdf-syntax-ns#" xmlns:svg="http://www.w3.org/2000/svg" xmlns:sodipodi="http://sodipodi.sourceforge.net/DTD/sodipodi-0.dtd" xmlns:inkscape="http://www.inkscape.org/namespaces/inkscape" sodipodi:docname="menu-tools.svg" inkscape:version="0.48.4 r9939"
	 xmlns="http://www.w3.org/2000/svg" xmlns:xlink="http://www.w3.org/1999/xlink" x="0px" y="0px" width="50px" height="750.014px"
	 viewBox="0 0 50 750.014" enable-background="new 0 0 50 750.014" xml:space="preserve">
<sodipodi:namedview  inkscape:cy="585.84587" inkscape:cx="18.564251" inkscape:zoom="0.96215217" showgrid="false" guidetolerance="10" gridtolerance="10" objecttolerance="10" bordercolor="#666666" pagecolor="#ffffff" borderopacity="1" id="namedview41" fit-margin-right="0" fit-margin-bottom="0" inkscape:current-layer="svg2" inkscape:window-maximized="1" inkscape:window-y="24" inkscape:window-x="39" inkscape:window-height="1056" inkscape:window-width="1881" inkscape:pageshadow="2" inkscape:pageopacity="0" fit-margin-left="0" fit-margin-top="0" inkscape:object-nodes="true">
	</sodipodi:namedview>
<g id="g4197" transform="translate(0,-0.0122474)">
	<g id="g4079" transform="translate(2.8800179,0.01224445)">
		<path id="path3010" inkscape:connector-curvature="0" fill="#E0DCD8" d="M47.12,25c0,13.807-11.193,25-25,25
			c-13.807,0-25-11.193-25-25c0-13.808,11.193-25,25-25C35.927,0,47.12,11.193,47.12,25z"/>
		<path id="rect3028" inkscape:connector-curvature="0" fill="#FD7400" d="M22.054,9.82L5.099,26.774l6.524,0.022v13.382h6.213
			V30.125h8.566v10.053h6.214V26.863l6.524,0.022L22.054,9.82z"/>
	</g>
	<g id="g4083" transform="translate(2.8800179,0.01224445)">
		<path id="path3789" inkscape:connector-curvature="0" fill="#E0DCD8" d="M-2.88,125c0,13.807,11.193,25,25,25
			c13.807,0,25-11.193,25-25c0-13.808-11.193-25-25-25C8.313,100-2.88,111.193-2.88,125L-2.88,125z"/>
		<path id="rect3832" sodipodi:nodetypes="cssssccssssscssccccccc" inkscape:connector-curvature="0" fill="#FD7400" d="
			M12.886,111.515c-1.316,0-2.389,0.965-2.389,2.167v22.631c0,1.201,1.072,2.167,2.389,2.167H31.38c1.315,0,2.363-0.526,2.363-1.729
			c0-0.499-0.551-0.868-1.115-0.857H15.299c-0.801,0-1.428-0.615-1.428-1.354v-0.32c0-0.739,0.627-1.329,1.428-1.329h17.548
			c0.541,0,0.896-0.367,0.896-0.944v-18.264c0-1.202-1.048-2.167-2.363-2.167h-7.561v11.254l-3.571-3.547l-3.546,3.547v-11.254
			H12.886L12.886,111.515z"/>
	</g>
	<g id="g4087" transform="translate(2.8800179,0.01224445)">
		<g id="g3801" transform="matrix(-1,0,0,1,727.39406,-268.76146)">
			<path id="path3803" inkscape:connector-curvature="0" fill="#E0DCD8" d="M730.274,493.762
				c0.011,13.808-11.173,25.009-24.98,25.02c-13.807,0.011-25.009-11.173-25.02-24.979c0-0.014,0-0.026,0-0.04
				c-0.011-13.807,11.173-25.009,24.98-25.02c13.807-0.011,25.009,11.173,25.02,24.98
				C730.274,493.735,730.274,493.749,730.274,493.762z"/>
		</g>
		<path id="path3867" inkscape:connector-curvature="0" fill="#FD7400" d="M13.788,210.037c-0.289,0.021-0.567,0.073-0.855,0.134
			l3.983,4.009c0.61,0.61,0.643,1.549,0.08,2.111l-3.608,3.582c-0.563,0.563-1.475,0.557-2.085-0.054l-4.009-4.009
			c-0.478,2.308,0.214,4.81,2.005,6.602c2.104,2.106,5.153,2.613,7.751,1.577c0.128,0.247,0.32,0.453,0.535,0.668l1.016,1.042
			l1.123-1.122l-1.336-1.337c-0.336-0.336-0.25-0.952,0.187-1.39l2.833-2.833c0.599-2.375-0.008-4.979-1.871-6.843
			c-1.343-1.344-3.103-2.065-4.865-2.138C14.376,210.025,14.077,210.016,13.788,210.037L13.788,210.037z M32.364,210.037
			L19.561,222.84l1.737,1.737l-11.6,11.573l-0.562,0.24c-0.42,0.184-0.905,0.731-1.123,1.229l-0.775,1.711
			c-0.217,0.498-0.046,0.771,0.374,0.588l2.005-0.882c0.42-0.183,0.932-0.731,1.149-1.229l0.214-0.428l11.547-11.573l1.737,1.737
			l12.829-12.803L32.364,210.037L32.364,210.037z M27.58,226.235l-2.299,2.299c-0.438,0.438-1.08,0.523-1.417,0.187l-1.363-1.363
			l-1.123,1.123l10.691,10.691c0.918,0.919,2.251,1.064,2.993,0.32l1.551-1.55c0.742-0.743,0.598-2.075-0.32-2.994L27.58,226.235
			L27.58,226.235z"/>
	</g>
	<g id="g4092" transform="translate(2.8800179,0.01224445)">
		<g id="g3834" transform="matrix(-1,0,0,1,727.39406,-168.76126)">
			<path id="path3836" inkscape:connector-curvature="0" fill="#E0DCD8" d="M730.274,493.761
				c0.011,13.808-11.173,25.009-24.98,25.02c-13.807,0.011-25.009-11.173-25.02-24.979c0-0.014,0-0.026,0-0.04
				c-0.011-13.807,11.173-25.009,24.98-25.02c13.807-0.011,25.009,11.173,25.02,24.98
				C730.274,493.735,730.274,493.749,730.274,493.761z"/>
		</g>
		<path id="rect3954" inkscape:connector-curvature="0" fill="#FD7400" d="M8.778,331.058l-1.959,8.539
			c-0.118,0.515,0.212,0.819,0.735,0.7l8.487-1.942L8.778,331.058L8.778,331.058z M9.6,330.235l7.279,7.28l15.941-15.941
			l-7.279-7.28L9.6,330.235z M26.679,313.156l7.279,7.279l3.221-3.22c0.339-0.34,0.361-0.863,0.035-1.19l-6.107-6.106
			c-0.326-0.327-0.868-0.322-1.207,0.018L26.679,313.156z"/>
	</g>
</g>
<g id="g4173" transform="translate(-100.00006,400.0008)">
	<g id="g4111" transform="translate(2.8800179,0.01224445)">
		<path id="path3973" inkscape:connector-curvature="0" fill="#FD7400" d="M147.12,25c-0.008,13.807-11.207,24.994-25.014,24.986
			C108.31,49.978,97.128,38.796,97.12,25c-0.008-13.808,11.179-25.006,24.986-25.014c13.807-0.008,25.006,11.179,25.014,24.986
			C147.12,24.981,147.12,24.99,147.12,25z"/>
		<path id="path3985" inkscape:connector-curvature="0" fill="#FFFFFF" d="M122.054,9.819l-16.955,16.954l6.524,0.022v13.382h6.213
			V30.125h8.566v10.053h6.214V26.862l6.524,0.022L122.054,9.819z"/>
	</g>
	<g id="g4107" transform="translate(2.8800179,0.01224445)">
		<path id="path3975" inkscape:connector-curvature="0" fill="#FD7400" d="M97.12,125c0,13.808,11.193,25,25,25
			c13.807,0,25-11.192,25-25c0-13.807-11.193-25-25-25C108.313,100,97.12,111.193,97.12,125L97.12,125z"/>
		<path id="path3987" sodipodi:nodetypes="cssssccssssscssccccccc" inkscape:connector-curvature="0" fill="#FFFFFF" d="
			M112.886,111.515c-1.316,0-2.389,0.965-2.389,2.167v22.631c0,1.202,1.072,2.167,2.389,2.167h18.494
			c1.316,0,2.363-0.526,2.363-1.729c0-0.499-0.551-0.868-1.115-0.857h-17.329c-0.801,0-1.428-0.615-1.428-1.354v-0.32
			c0-0.738,0.627-1.329,1.428-1.329h17.548c0.541,0,0.896-0.367,0.896-0.944v-18.264c0-1.202-1.047-2.167-2.363-2.167h-7.561v11.254
			l-3.571-3.546l-3.546,3.546v-11.254H112.886L112.886,111.515z"/>
	</g>
	<g id="g4102" transform="translate(2.8800179,0.01224445)">
		<g id="g3977" transform="matrix(-1,0,0,1,827.39411,-268.76146)">
			<path id="path3979" inkscape:connector-curvature="0" fill="#FD7400" d="M730.274,493.761
				c0.011,13.808-11.173,25.009-24.98,25.02c-13.807,0.012-25.009-11.173-25.02-24.979c0-0.014,0-0.026,0-0.04
				c-0.011-13.807,11.173-25.009,24.98-25.02c13.807-0.011,25.009,11.173,25.02,24.98
				C730.274,493.735,730.274,493.749,730.274,493.761z"/>
		</g>
		<path id="path3989" inkscape:connector-curvature="0" fill="#FFFFFF" d="M113.788,210.037c-0.289,0.021-0.567,0.073-0.855,0.134
			l3.983,4.009c0.61,0.61,0.643,1.549,0.08,2.111l-3.608,3.582c-0.563,0.563-1.475,0.557-2.085-0.054l-4.009-4.009
			c-0.478,2.309,0.214,4.81,2.005,6.602c2.104,2.106,5.153,2.613,7.751,1.577c0.128,0.247,0.32,0.453,0.535,0.668l1.016,1.043
			l1.123-1.123l-1.336-1.336c-0.336-0.337-0.25-0.953,0.187-1.391l2.833-2.833c0.599-2.375-0.008-4.979-1.871-6.843
			c-1.343-1.344-3.103-2.065-4.865-2.138C114.376,210.024,114.077,210.016,113.788,210.037L113.788,210.037z M132.364,210.037
			l-12.803,12.803l1.737,1.737l-11.6,11.573l-0.562,0.24c-0.42,0.184-0.905,0.731-1.123,1.229l-0.775,1.711
			c-0.217,0.498-0.046,0.771,0.374,0.588l2.005-0.882c0.42-0.183,0.932-0.731,1.149-1.229l0.214-0.428l11.547-11.573l1.737,1.737
			l12.829-12.803L132.364,210.037L132.364,210.037z M127.58,226.234l-2.299,2.299c-0.438,0.438-1.08,0.523-1.417,0.187l-1.363-1.363
			l-1.123,1.123l10.691,10.691c0.918,0.919,2.251,1.064,2.993,0.32l1.551-1.55c0.742-0.743,0.598-2.075-0.32-2.993L127.58,226.234z"
			/>
	</g>
	<g id="g4097" transform="translate(2.8800179,0.01224445)">
		<g id="g3981" transform="matrix(-1,0,0,1,827.39411,-168.76126)">
			<path id="path3983" inkscape:connector-curvature="0" fill="#FD7400" d="M730.274,493.762
				c0.011,13.807-11.173,25.009-24.98,25.02c-13.807,0.011-25.009-11.174-25.02-24.98c0-0.014,0-0.026,0-0.039
				c-0.011-13.808,11.173-25.01,24.98-25.021c13.807-0.011,25.009,11.174,25.02,24.98
				C730.274,493.736,730.274,493.748,730.274,493.762z"/>
		</g>
		<path id="path3991" inkscape:connector-curvature="0" fill="#FFFFFF" d="M108.778,331.057l-1.959,8.539
			c-0.118,0.516,0.212,0.82,0.735,0.7l8.487-1.942L108.778,331.057L108.778,331.057z M109.601,330.235l7.279,7.279l15.941-15.941
			l-7.279-7.279L109.601,330.235z M126.679,313.156l7.279,7.279l3.221-3.22c0.339-0.339,0.361-0.863,0.035-1.189l-6.107-6.107
			c-0.326-0.326-0.868-0.321-1.207,0.018L126.679,313.156z"/>
	</g>
</g>
</svg>
