<?xml version="1.0" encoding="utf-8"?>
<!-- Generator: Adobe Illustrator 16.0.0, SVG Export Plug-In . SVG Version: 6.00 Build 0)  -->
<!DOCTYPE svg PUBLIC "-//W3C//DTD SVG 1.1//EN" "http://www.w3.org/Graphics/SVG/1.1/DTD/svg11.dtd">
<svg version="1.1"
	 id="svg2" xmlns:dc="http://purl.org/dc/elements/1.1/" xmlns:cc="http://creativecommons.org/ns#" xmlns:rdf="http://www.w3.org/1999/02/22-rdf-syntax-ns#" xmlns:svg="http://www.w3.org/2000/svg" xmlns:sodipodi="http://sodipodi.sourceforge.net/DTD/sodipodi-0.dtd" xmlns:inkscape="http://www.inkscape.org/namespaces/inkscape" sodipodi:docname="menu-scroller.svg" inkscape:version="0.48.4 r9939"
	 xmlns="http://www.w3.org/2000/svg" xmlns:xlink="http://www.w3.org/1999/xlink" x="0px" y="0px" width="300.367px" height="60px"
	 viewBox="0 0 300.367 60" enable-background="new 0 0 300.367 60" xml:space="preserve">
<sodipodi:namedview  inkscape:cy="23.217797" inkscape:cx="142.23479" inkscape:zoom="0.96215217" showgrid="false" guidetolerance="10" gridtolerance="10" objecttolerance="10" bordercolor="#666666" pagecolor="#ffffff" borderopacity="1" id="namedview41" fit-margin-right="0" fit-margin-bottom="0" inkscape:current-layer="svg2" inkscape:window-maximized="1" inkscape:window-y="24" inkscape:window-x="39" inkscape:window-height="1056" inkscape:window-width="1881" inkscape:pageshadow="2" inkscape:pageopacity="0" fit-margin-left="0" fit-margin-top="0" inkscape:object-nodes="true">
	</sodipodi:namedview>
<g id="g3842" transform="translate(565.55231,-118.91818)">
	<path id="rect3022" fill="#FD7400" d="M-563.059,118.918h295.014c1.377,0,2.493,4.477,2.493,10l0,0c0,5.523-1.116,10-2.493,10
		h-295.014c-1.377,0-2.493-4.477-2.493-10l0,0C-565.552,123.395-564.436,118.918-563.059,118.918z"/>
	<path id="rect3800" sodipodi:nodetypes="cccc" inkscape:connector-curvature="0" fill="#FFFFFF" d="M-415.552,123.137
		l37.806,11.563h-75.611L-415.552,123.137z"/>
</g>
<g id="g3846" transform="translate(565.91977,-120.80853)">
	<path id="rect3836" fill="#FD7400" d="M-563.059,160.809h295.014c1.377,0,2.493,4.478,2.493,10l0,0c0,5.523-1.116,10-2.493,10
		h-295.014c-1.377,0-2.493-4.477-2.493-10l0,0C-565.552,165.286-564.436,160.809-563.059,160.809z"/>
	<path id="path3838" sodipodi:nodetypes="cccc" inkscape:connector-curvature="0" fill="#FFFFFF" d="M-415.552,176.59l37.806-11.563
		h-75.611L-415.552,176.59z"/>
</g>
</svg>
