<?xml version="1.0" encoding="UTF-8" standalone="no"?>
<!-- Generator: Adobe Illustrator 19.0.0, SVG Export Plug-In . SVG Version: 6.00 Build 0)  -->

<svg
   xmlns:dc="../../../../../external.html?link=http://purl.org/dc/elements/1.1/"
   xmlns:cc="../../../../../external.html?link=http://creativecommons.org/ns#"
   xmlns:rdf="../../../../../external.html?link=http://www.w3.org/1999/02/22-rdf-syntax-ns#"
   xmlns:svg="../../../../../external.html?link=http://www.w3.org/2000/svg"
   xmlns="../../../../../external.html?link=http://www.w3.org/2000/svg"
   xmlns:sodipodi="../../../../../sodipodi.sourceforge.net/DTD/sodipodi-0.html"
   xmlns:inkscape="../../../../../external.html?link=http://www.inkscape.org/namespaces/inkscape"
   version="1.1"
   id="svg2"
   sodipodi:docname="mnuEmeraude.svg"
   inkscape:version="0.91 r13725"
   x="0px"
   y="0px"
   width="50"
   height="120"
   style="enable-background:new -311.5 336.5 50 120;"
   xml:space="preserve"><metadata
     id="metadata25"><rdf:RDF><cc:Work
         rdf:about=""><dc:format>image/svg+xml</dc:format><dc:type
           rdf:resource="../../../../../external.html?link=http://purl.org/dc/dcmitype/StillImage" /></cc:Work></rdf:RDF></metadata><defs
     id="defs23" /><sodipodi:namedview
     pagecolor="#ffffff"
     bordercolor="#666666"
     borderopacity="1"
     objecttolerance="10"
     gridtolerance="10"
     guidetolerance="10"
     inkscape:pageopacity="0"
     inkscape:pageshadow="2"
     inkscape:window-width="1920"
     inkscape:window-height="1017"
     id="namedview21"
     showgrid="false"
     inkscape:zoom="1.9666667"
     inkscape:cx="35.054657"
     inkscape:cy="69.351202"
     inkscape:window-x="-8"
     inkscape:window-y="-8"
     inkscape:window-maximized="1"
     inkscape:current-layer="g5" /><style
     type="text/css"
     id="style3">
	.st0{fill:#E0ECEC;}
	.st1{fill:#434E52;}
</style><g
     id="g5"
     transform="translate(311.5,-336.5)"><path
       id="path3789"
       inkscape:connector-curvature="0"
       class="st0"
       d="m -311.5,361.5 c 0,13.8 11.2,25 25,25 13.8,0 25,-11.2 25,-25 0,-13.8 -11.2,-25 -25,-25 -13.8,0 -25,11.2 -25,25 0,0 0,0 0,0 z"
       style="fill:#e0dcd8;fill-opacity:0.94117647" /><g
       id="mobile"
       style="fill:#fd7400;fill-opacity:1"><g
         id="g542"
         style="fill:#fd7400;fill-opacity:1"><path
           id="path544"
           class="st1"
           d="m -272.8,351.9 c 0,1.1 -0.9,2.1 -2.1,2.1 l -22.6,0 c -1.1,0 -2.1,-0.9 -2.1,-2.1 l 0,-3.3 c 0,-1.1 0.9,-2.1 2.1,-2.1 l 22.6,0 c 1.1,0 2.1,0.9 2.1,2.1 0,-0.1 0,3.3 0,3.3 z"
           inkscape:connector-curvature="0"
           style="fill:#fd7400;fill-opacity:1" /><path
           id="path546"
           class="st1"
           d="m -272.8,374.5 c 0,1.1 -0.9,2.1 -2.1,2.1 l -22.6,0 c -1.1,0 -2.1,-0.9 -2.1,-2.1 l 0,-3.3 c 0,-1.1 0.9,-2.1 2.1,-2.1 l 22.6,0 c 1.1,0 2.1,0.9 2.1,2.1 0,-0.1 0,3.3 0,3.3 z"
           inkscape:connector-curvature="0"
           style="fill:#fd7400;fill-opacity:1" /><path
           id="path548"
           class="st1"
           d="m -272.8,363.2 c 0,1.1 -0.9,2.1 -2.1,2.1 l -22.6,0 c -1.1,0 -2.1,-0.9 -2.1,-2.1 l 0,-3.3 c 0,-1.1 0.9,-2.1 2.1,-2.1 l 22.6,0 c 1.1,0 2.1,0.9 2.1,2.1 0,-0.1 0,3.3 0,3.3 z"
           inkscape:connector-curvature="0"
           style="fill:#fd7400;fill-opacity:1" /></g></g></g><g
     id="g13"
     transform="translate(311.5,-336.5)"><path
       id="path3789_1_"
       inkscape:connector-curvature="0"
       class="st1"
       d="m -311.5,431.5 c 0,13.8 11.2,25 25,25 13.8,0 25,-11.2 25,-25 0,-13.8 -11.2,-25 -25,-25 -13.8,0 -25,11.2 -25,25 0,0 0,0 0,0 z"
       style="fill:#fd7400;fill-opacity:1" /><g
       id="mobile_1_"
       style="fill:#ffffff;fill-opacity:1"><g
         id="g542_1_"
         style="fill:#ffffff;fill-opacity:1"><path
           id="path544_1_"
           class="st0"
           d="m -272.8,421.9 c 0,1.1 -0.9,2.1 -2.1,2.1 l -22.6,0 c -1.1,0 -2.1,-0.9 -2.1,-2.1 l 0,-3.3 c 0,-1.1 0.9,-2.1 2.1,-2.1 l 22.6,0 c 1.1,0 2.1,0.9 2.1,2.1 0,-0.1 0,3.3 0,3.3 z"
           inkscape:connector-curvature="0"
           style="fill:#ffffff;fill-opacity:1" /><path
           id="path546_1_"
           class="st0"
           d="m -272.8,444.5 c 0,1.1 -0.9,2.1 -2.1,2.1 l -22.6,0 c -1.1,0 -2.1,-0.9 -2.1,-2.1 l 0,-3.3 c 0,-1.1 0.9,-2.1 2.1,-2.1 l 22.6,0 c 1.1,0 2.1,0.9 2.1,2.1 0,-0.1 0,3.3 0,3.3 z"
           inkscape:connector-curvature="0"
           style="fill:#ffffff;fill-opacity:1" /><path
           id="path548_1_"
           class="st0"
           d="m -272.8,433.2 c 0,1.1 -0.9,2.1 -2.1,2.1 l -22.6,0 c -1.1,0 -2.1,-0.9 -2.1,-2.1 l 0,-3.3 c 0,-1.1 0.9,-2.1 2.1,-2.1 l 22.6,0 c 1.1,0 2.1,0.9 2.1,2.1 0,-0.1 0,3.3 0,3.3 z"
           inkscape:connector-curvature="0"
           style="fill:#ffffff;fill-opacity:1" /></g></g></g></svg>