<?xml version="1.0" encoding="utf-8"?>
<!-- Generator: Adobe Illustrator 16.0.0, SVG Export Plug-In . SVG Version: 6.00 Build 0)  -->
<!DOCTYPE svg PUBLIC "-//W3C//DTD SVG 1.1//EN" "http://www.w3.org/Graphics/SVG/1.1/DTD/svg11.dtd">
<svg version="1.1"
	 id="svg2" xmlns:dc="http://purl.org/dc/elements/1.1/" xmlns:cc="http://creativecommons.org/ns#" xmlns:rdf="http://www.w3.org/1999/02/22-rdf-syntax-ns#" xmlns:svg="http://www.w3.org/2000/svg" xmlns:sodipodi="http://sodipodi.sourceforge.net/DTD/sodipodi-0.dtd" xmlns:inkscape="http://www.inkscape.org/namespaces/inkscape" sodipodi:docname="mnuMobile.svg" inkscape:version="0.48.5 r10040"
	 xmlns="http://www.w3.org/2000/svg" xmlns:xlink="http://www.w3.org/1999/xlink" x="0px" y="0px" width="19px" height="19px"
	 viewBox="0 0 19 19" enable-background="new 0 0 19 19" xml:space="preserve">
<sodipodi:namedview  inkscape:cy="-22.339986" inkscape:cx="132.20176" inkscape:zoom="4.3915053" showgrid="false" guidetolerance="10" gridtolerance="10" objecttolerance="10" bordercolor="#666666" pagecolor="#ffffff" borderopacity="1" id="namedview550" inkscape:current-layer="svg2" inkscape:window-maximized="1" inkscape:window-y="-9" inkscape:window-x="77" inkscape:window-height="1053" inkscape:window-width="1834" inkscape:pageshadow="2" inkscape:pageopacity="0">
	</sodipodi:namedview>
<g id="mobile">
	<g id="g542">
		<path id="path544" fill="#E0DCD8" d="M17.721,3.559c0,0.695-0.568,1.265-1.265,1.265H2.543c-0.695,0-1.264-0.569-1.264-1.265
			V1.504c0-0.696,0.569-1.266,1.264-1.266h13.913c0.696,0,1.265,0.569,1.265,1.266V3.559z"/>
		<path id="path546" fill="#E0DCD8" d="M17.721,17.471c0,0.696-0.568,1.266-1.265,1.266H2.543c-0.695,0-1.264-0.568-1.264-1.266
			v-2.055c0-0.695,0.569-1.264,1.264-1.264h13.913c0.696,0,1.265,0.566,1.265,1.264V17.471z"/>
		<path id="path548" fill="#E0DCD8" d="M17.721,10.516c0,0.695-0.568,1.266-1.265,1.266H2.543c-0.695,0-1.264-0.569-1.264-1.266
			V8.46c0-0.695,0.569-1.265,1.264-1.265h13.913c0.696,0,1.265,0.569,1.265,1.265V10.516z"/>
	</g>
</g>
</svg>
