<?xml version="1.0" encoding="utf-8"?>
<!-- Generator: Adobe Illustrator 16.0.0, SVG Export Plug-In . SVG Version: 6.00 Build 0)  -->
<!DOCTYPE svg PUBLIC "-//W3C//DTD SVG 1.1//EN" "http://www.w3.org/Graphics/SVG/1.1/DTD/svg11.dtd">
<svg version="1.1" id="Calque_1" xmlns="http://www.w3.org/2000/svg" xmlns:xlink="http://www.w3.org/1999/xlink" x="0px" y="0px"
	 width="32px" height="160px" viewBox="0 0 32 160" enable-background="new 0 0 32 160" xml:space="preserve">
<g id="quiz">
	<g id="Validate">
		<path fill="#94739D" d="M1,14.998C1,23.285,7.72,30,16.002,30C24.284,30,31,23.285,31,14.998C31,6.718,24.284,0,16.002,0
			C7.72,0,1,6.718,1,14.998z"/>
		<path fill="#E0DCD8" d="M25.701,6.66c-0.277-0.279-0.729-0.279-1.006,0L14.106,17.201c-0.277,0.281-0.73,0.281-1.006,0
			l-4.64-4.724c-0.137-0.141-0.318-0.21-0.499-0.211c-0.183-0.001-0.368,0.068-0.508,0.211l-2.05,1.843
			c-0.137,0.141-0.211,0.315-0.211,0.498c0,0.185,0.074,0.376,0.211,0.516l4.679,4.909c0.277,0.281,0.73,0.735,1.005,1.015
			l2.013,2.027c0.276,0.277,0.728,0.277,1.005,0L27.713,9.702c0.278-0.278,0.278-0.736,0-1.014L25.701,6.66z"/>
	</g>
	<g>
		<path fill="#94739D" stroke="#FFFFFF" d="M15.999,43.333C24.281,43.333,31,50.048,31,58.331c0,8.287-6.719,15.002-15.001,15.002
			S1,66.618,1,58.331C1,50.048,7.716,43.333,15.999,43.333"/>
		<g id="_x32__audio_simple_repeat_2">
			<g>
				<path fill="#E0DCD8" d="M25.234,61.287c0.276-0.884,0.437-1.818,0.437-2.792c0-5.19-4.19-9.416-9.364-9.482v3.047
					c3.495,0.065,6.32,2.925,6.32,6.436c0,0.487-0.063,0.957-0.167,1.413l-2.849-1.413l1.984,5.894l5.893-1.985L25.234,61.287z"/>
				<path fill="#E0DCD8" d="M10.77,58.815c0-0.489,0.063-0.958,0.167-1.415l2.848,1.415l-1.983-5.894l-5.891,1.985l2.251,1.115
					c-0.276,0.885-0.437,1.82-0.437,2.793c0,5.191,4.19,9.414,9.365,9.481v-3.044C13.595,65.186,10.77,62.326,10.77,58.815z"/>
			</g>
		</g>
	</g>
	<g id="Validate_1_">
		<path fill="#E0DCD8" d="M1,101.665c0,8.287,6.72,15.002,15.002,15.002c8.282,0,14.998-6.715,14.998-15.002
			c0-8.28-6.716-14.998-14.998-14.998C7.72,86.667,1,93.385,1,101.665z"/>
		<path fill="#94739D" d="M25.701,93.327c-0.277-0.279-0.729-0.279-1.006,0l-10.589,10.541c-0.277,0.28-0.73,0.28-1.006,0
			l-4.64-4.724c-0.137-0.142-0.318-0.211-0.499-0.211c-0.183-0.002-0.368,0.067-0.508,0.211l-2.05,1.842
			c-0.137,0.142-0.211,0.316-0.211,0.498c0,0.186,0.074,0.377,0.211,0.517l4.679,4.909c0.277,0.281,0.73,0.734,1.005,1.015
			l2.013,2.027c0.276,0.276,0.728,0.276,1.005,0L27.712,96.37c0.278-0.278,0.278-0.736,0-1.015L25.701,93.327z"/>
	</g>
	<g>
		<path fill="#E0DCD8" stroke="#FFFFFF" d="M15.999,130C24.281,130,31,136.715,31,144.998C31,153.285,24.281,160,15.999,160
			S1,153.285,1,144.998C1,136.715,7.716,130,15.999,130"/>
		<g id="_x32__audio_simple_repeat_2_1_">
			<g>
				<path fill="#94739D" d="M25.234,147.954c0.276-0.884,0.437-1.817,0.437-2.792c0-5.189-4.19-9.416-9.364-9.482v3.047
					c3.495,0.065,6.32,2.926,6.32,6.437c0,0.487-0.063,0.957-0.167,1.413l-2.849-1.413l1.984,5.894l5.893-1.984L25.234,147.954z"/>
				<path fill="#94739D" d="M10.77,145.482c0-0.489,0.063-0.959,0.167-1.416l2.848,1.416l-1.983-5.895l-5.891,1.984l2.251,1.115
					c-0.276,0.885-0.437,1.82-0.437,2.793c0,5.191,4.19,9.414,9.365,9.481v-3.044C13.595,151.854,10.77,148.993,10.77,145.482z"/>
			</g>
		</g>
	</g>
</g>
</svg>
