<?xml version="1.0" encoding="UTF-8" standalone="no"?>
<!-- Generated by IcoMoon.io -->

<svg
   xmlns:dc="../../../../../external.html?link=http://purl.org/dc/elements/1.1/"
   xmlns:cc="../../../../../external.html?link=http://creativecommons.org/ns#"
   xmlns:rdf="../../../../../external.html?link=http://www.w3.org/1999/02/22-rdf-syntax-ns#"
   xmlns:svg="../../../../../external.html?link=http://www.w3.org/2000/svg"
   xmlns="../../../../../external.html?link=http://www.w3.org/2000/svg"
   xmlns:sodipodi="../../../../../external.html?link=http://sodipodi.sourceforge.net/DTD/sodipodi-0.dtd"
   xmlns:inkscape="../../../../../external.html?link=http://www.inkscape.org/namespaces/inkscape"
   version="1.1"
   width="30"
   height="478"
   viewBox="0 0 30 478"
   id="svg2"
   inkscape:version="0.91 r13725"
   sodipodi:docname="icons.svg">
  <metadata
     id="metadata12">
    <rdf:RDF>
      <cc:Work
         rdf:about="">
        <dc:format>image/svg+xml</dc:format>
        <dc:type
           rdf:resource="../../../../../external.html?link=http://purl.org/dc/dcmitype/StillImage" />
        <dc:title>transcript</dc:title>
      </cc:Work>
    </rdf:RDF>
  </metadata>
  <defs
     id="defs10" />
  <sodipodi:namedview
     pagecolor="#ffffff"
     bordercolor="#666666"
     borderopacity="1"
     objecttolerance="10"
     gridtolerance="10"
     guidetolerance="10"
     inkscape:pageopacity="0"
     inkscape:pageshadow="2"
     inkscape:window-width="1920"
     inkscape:window-height="1017"
     id="namedview8"
     showgrid="false"
     inkscape:zoom="0.921875"
     inkscape:cx="-428.78797"
     inkscape:cy="326.99023"
     inkscape:window-x="1912"
     inkscape:window-y="-8"
     inkscape:window-maximized="1"
     inkscape:current-layer="svg2"
     fit-margin-top="0"
     fit-margin-left="0"
     fit-margin-right="0"
     fit-margin-bottom="0" />
  <title
     id="title4">transcript</title>
  <path
     d="m 14.742,463.816 q 0.288,0.288 0.486,0.756 0.198,0.468 0.198,0.9 l 0,11.556 q 0,0.414 -0.27,0.684 -0.27,0.27 -0.684,0.288 l -13.49999998,0 q -0.414,0 -0.684,-0.288 -0.27,-0.288 -0.287999999514681,-0.684 l 0,-16.056 q 0,-0.414 0.287999999514681,-0.684 0.288,-0.27 0.684,-0.288 L 9.972,460 q 0.396,0 0.882,0.198 0.486,0.198 0.756,0.486 z m -4.464,-2.448 0,3.78 3.78,0 q -0.09,-0.306 -0.216,-0.414 l -3.15,-3.15 q -0.108,-0.126 -0.414,-0.216 z m 3.87,15.354 0,-10.296 -4.176,0 q -0.414,0 -0.684,-0.288 Q 9.018,465.85 9,465.472 l 0,-4.194 -7.722,0 0,15.444 12.87,0 z M 3.852,468.028 q 0,-0.126 0.09,-0.216 0.09,-0.09 0.234,-0.09 l 7.074,0 q 0.144,0 0.234,0.09 0.09,0.09 0.09,0.216 l 0,0.648 q 0,0.144 -0.09,0.234 -0.09,0.09 -0.234,0.09 l -7.074,0 q -0.144,0 -0.234,-0.09 -0.09,-0.09 -0.09,-0.234 l 0,-0.648 z m 7.398,2.25 q 0.144,0 0.234,0.09 0.09,0.09 0.09,0.234 l 0,0.648 q 0,0.144 -0.09,0.234 -0.09,0.09 -0.234,0.09 l -7.074,0 q -0.144,0 -0.234,-0.09 -0.09,-0.09 -0.09,-0.234 l 0,-0.648 q 0,-0.144 0.09,-0.234 0.09,-0.09 0.234,-0.09 l 7.074,0 z m 0,2.574 q 0.144,0 0.234,0.09 0.09,0.09 0.09,0.234 l 0,0.648 q 0,0.144 -0.09,0.234 -0.09,0.09 -0.234,0.09 l -7.074,0 q -0.144,0 -0.234,-0.09 -0.09,-0.09 -0.09,-0.234 l 0,-0.648 q 0,-0.144 0.09,-0.234 0.09,-0.09 0.234,-0.09 l 7.074,0 z"
     id="path6"
     inkscape:connector-curvature="0"
     style="fill:#bbbbbb;fill-opacity:1" />
  <path
     id="path4144"
     d="m 17.979023,60.755247 0,16.48951 q 0,0.293706 -0.20979,0.524476 -0.209791,0.230769 -0.545455,0.230769 l -5.979022,0 q -0.314685,0 -0.524475,-0.230769 -0.20979,-0.23077 -0.230769,-0.524476 l 0,-16.48951 q 0,-0.293706 0.230769,-0.524476 0.230769,-0.230769 0.524475,-0.230769 l 5.979022,0 q 0.314685,0 0.545455,0.230769 0.230769,0.23077 0.20979,0.524476 z m -10.4895117,0 0,16.48951 q 0,0.293706 -0.2097902,0.524476 -0.2097903,0.230769 -0.5454546,0.230769 l -5.97902164,0 q -0.31468535,0 -0.52447558,-0.230769 Q 0.02097904,77.538463 2.0485301e-8,77.244757 l 0,-16.48951 q 0,-0.293706 0.230769259514699,-0.524476 0.23076925,-0.230769 0.52447558,-0.230769 l 5.97902164,0 q 0.3146853,0 0.5454546,0.230769 0.2307692,0.23077 0.2097902,0.524476 z"
     inkscape:connector-curvature="0"
     style="fill:#bbbbbb;fill-opacity:1" />
  <path
     id="path4157"
     d="M 16.034066,29.358152 0.64385502,37.915193 Q 0.37385131,38.060579 0.18692566,37.956732 2.0485301e-8,37.852884 2.0485301e-8,37.541342 l 0,-17.072543 q 0,-0.290773 0.186925639514699,-0.41539 0.18692565,-0.124617 0.45692936,0.04154 L 16.034066,28.65199 q 0.270004,0.145386 0.270004,0.353081 0,0.207696 -0.270004,0.353082 z"
     inkscape:connector-curvature="0"
     style="fill:#bbbbbb;fill-opacity:1" />
  <path
     id="path4170"
     d="M 13.81208,235.38255 11.2349,238 l 0,-6.7651 6.74497,0 -2.55705,2.57718 2.55705,2.59732 L 16.38926,238 Z M 2.0485301e-8,226.74497 2.57718,224.14765 0.02013002,221.61074 1.61074,220.02013 4.14765,222.55705 6.74497,220 l 0,6.74497 -6.7449699795147,0 z m 0,9.66443 L 2.57718,233.81208 2.0485301e-8,231.2349 6.74497,231.2349 6.74497,238 4.14765,235.38255 1.5906,238 Z M 11.2349,226.74497 l 0,-6.74497 2.57718,2.55705 2.57718,-2.53692 1.57047,1.59061 -2.53691,2.53691 2.55705,2.59732 -6.74497,0 z"
     inkscape:connector-curvature="0"
     style="fill:#bbbbbb;fill-opacity:1" />
  <path
     id="path4183"
     d="m 9.188811,430.3007 2.433567,0 q -0.167833,1.86713 -1.153847,2.91608 -0.986014,1.04895 -2.517482,1.06993 -1.888112,0 -2.979021,-1.36363 -1.090909,-1.36364 -1.090909,-3.69231 0,-2.28671 1.090909,-3.65035 1.090909,-1.36364 2.727273,-1.38462 1.741258,0 2.727272,1.02798 0.986014,1.02797 1.132868,2.8951 l -2.37063,0 q -0.06294,-0.75524 -0.41958,-1.17482 -0.356644,-0.41958 -0.965035,-0.39861 -0.671329,0 -1.027972,0.71329 -0.356644,0.71329 -0.377623,2.07692 0,0.54546 0.06294,0.96504 0.06294,0.41958 0.209791,0.81818 0.146853,0.3986 0.461538,0.60839 0.314685,0.20979 0.776224,0.20979 1.111888,0 1.27972,-1.63636 z m 8.328672,0 2.412589,0 q -0.146853,1.86713 -1.132869,2.91608 -0.986014,1.04895 -2.517483,1.06993 -1.888112,0 -2.979021,-1.36363 -1.090909,-1.36364 -1.06993,-3.69231 0,-2.28671 1.090909,-3.65035 1.090909,-1.36364 2.727273,-1.38462 1.72028,0 2.706294,1.02798 0.986016,1.02797 1.132869,2.8951 l -2.391611,0 q -0.04196,-0.75524 -0.398601,-1.17482 -0.356643,-0.41958 -0.944056,-0.39861 -0.671329,0 -1.048951,0.71329 -0.377622,0.71329 -0.356643,2.07692 0,0.54546 0.04196,0.96504 0.04196,0.41958 0.20979,0.81818 0.167832,0.3986 0.461538,0.60839 0.293707,0.20979 0.776224,0.20979 0.566434,0 0.902098,-0.44056 0.335664,-0.44056 0.377623,-1.1958 z m 4.216785,-1.38462 q 0,-2.41258 -0.188811,-3.58741 -0.188812,-1.17482 -0.713287,-1.88811 -0.06294,-0.1049 -0.146853,-0.16783 -0.08392,-0.0629 -0.251749,-0.16783 -0.167832,-0.1049 -0.188811,-0.12588 -1.006995,-0.75524 -8.160841,-0.75524 -7.321678,0 -8.307692,0.75524 -0.06294,0.042 -0.20979,0.12588 -0.146854,0.0839 -0.251749,0.16783 -0.104895,0.0839 -0.167832,0.16783 -0.524475,0.69231 -0.692308,1.86713 -0.167832,1.17483 -0.188811,3.60839 0,2.43357 0.188811,3.6084 0.188812,1.17482 0.692308,1.86713 0.08392,0.10489 0.188811,0.18881 0.104895,0.0839 0.23077,0.14685 0.125874,0.0629 0.20979,0.14686 0.503496,0.37762 2.79021,0.56643 2.286713,0.18881 5.517482,0.18881 7.132867,0 8.160841,-0.75524 0.06294,-0.042 0.188811,-0.12588 0.125875,-0.0839 0.251749,-0.16783 0.125874,-0.0839 0.146853,-0.18881 0.545454,-0.69231 0.713287,-1.86713 0.167832,-1.17483 0.188811,-3.6084 z M 23.979023,420 l 0,18 L 2.0485302e-8,438 l 0,-18 L 23.979023,420 Z"
     inkscape:connector-curvature="0"
     style="fill:#bbbbbb;fill-opacity:1" />
  <path
     id="path4209"
     d="m 8.3469246,346.77214 q 0.3238806,0 0.5937812,0.17993 l 2.2311782,1.47546 q 0.611774,0.39585 1.097595,0.97164 l 1.457463,1.70937 q 0.413848,0.46783 0.305888,1.06161 l -0.737728,4.15647 q -0.05398,0.32388 -0.287894,0.5398 -0.233914,0.21592 -0.557795,0.2519 L 7.1593621,357.67612 3.6326616,358 3.5247014,358 q -0.3778608,0 -0.6657547,-0.28789 -0.287894,-0.2879 -0.287894,-0.68375 0,-0.35987 0.2699006,-0.62977 0.2699006,-0.2699 0.6477614,-0.32388 l 2.6090385,-0.32388 -4.4983425,0 q -0.4138475,0 -0.68374806,-0.30589 -0.26990056,-0.30589 -0.26990056,-0.70174 0.0179934,-0.39585 0.32388068,-0.66575 0.30588724,-0.26991 0.68374804,-0.25191 l 4.4443624,-0.018 -5.23607067,-0.62976 q -0.41384751,-0.054 -0.6657547,-0.37786 -0.25190719,-0.32388 -0.17993371,-0.73773 0.05398012,-0.34188 0.34187405,-0.57579 0.28789391,-0.23391 0.64776133,-0.21592 l 0.1079602,0 4.8222232,0.59378 -3.5087071,-0.93565 q -0.3958542,-0.10796 -0.629768,-0.43185 -0.2339138,-0.32388 -0.1799337,-0.68374 0.05398,-0.35987 0.3238807,-0.57579 0.2699005,-0.21592 0.6297679,-0.23392 0.05398,0 0.1979271,0.018 l 4.4983425,0.97164 2.1771979,0.35987 q 0.017993,0 0.035987,0.018 0.017993,0.018 0.035987,0 0.2159204,0 0.3058873,-0.23391 0.089967,-0.23392 -0.1259536,-0.35987 L 7.8251173,348.5175 q -0.3598674,-0.23391 -0.4318409,-0.62976 -0.071973,-0.39586 0.1799337,-0.73773 0.2699006,-0.37786 0.773715,-0.37786 z m -0.7017415,2.01525 1.8713106,1.25954 -2.1951913,-0.37786 -0.05398,-0.018 -0.3598674,-0.37786 -2.3931181,-2.62704 q 0,-0.018 -0.017993,-0.036 -0.017993,-0.018 -0.035987,-0.036 -0.2339138,-0.30589 -0.1799337,-0.70174 0.05398,-0.39586 0.3778608,-0.64776 0.3058873,-0.23392 0.6837481,-0.17994 0.3778605,0.054 0.6477611,0.34188 l 1.4214763,1.47545 -0.035987,0.036 q 0,0 -0.05398,0.054 -0.3238806,0.44983 -0.2339138,0.98964 0.089967,0.5398 0.5577945,0.84568 z m 8.9067189,-4.55232 0.143947,2.66302 q 0.03599,0.73773 -0.107961,1.47546 l -0.485821,2.21318 q -0.125953,0.57579 -0.665754,0.86368 l -1.061609,0.5398 q 0.01799,-0.61177 -0.395854,-1.09759 l -1.475457,-1.69138 q -0.521808,-0.61177 -1.169569,-1.04361 l -2.2311779,-1.49345 q -0.341874,-0.21592 -0.7557215,-0.21592 -0.5218078,0 -0.8816752,0.35986 L 5.108118,343.67728 q -0.2519072,-0.32388 -0.197927,-0.73773 0.05398,-0.41385 0.4138475,-0.62977 0.3418738,-0.23391 0.7197346,-0.14395 0.3778608,0.09 0.629768,0.39586 l 2.6810122,3.54469 -2.6450255,-4.57031 q -0.1979271,-0.35987 -0.089967,-0.75573 0.1079602,-0.39585 0.4678276,-0.59378 0.3598674,-0.17993 0.7197348,-0.054 0.3598675,0.12596 0.5937813,0.44984 l 2.4111115,4.22844 -1.367496,-3.38275 q -0.143947,-0.35987 -0.035987,-0.75573 0.1079603,-0.39585 0.4318409,-0.55779 0.3778611,-0.19793 0.7737151,-0.054 0.395854,0.14395 0.557795,0.50381 l 1.943284,4.17447 1.007629,1.96127 q 0.08997,0.16194 0.233913,0.17994 0.143947,0.018 0.269901,-0.072 0.125954,-0.09 0.10796,-0.2699 l -0.10796,-2.24917 q -0.03599,-0.41385 0.251907,-0.70174 0.287894,-0.28789 0.701742,-0.32388 0.37786,0 0.665754,0.28789 0.287894,0.2879 0.305888,0.68375 z"
     inkscape:connector-curvature="0"
     style="fill:#bbbbbb;fill-opacity:1" />
  <path
     id="path4222"
     d="m 6.5567349,393.91784 2.23936,0 -0.0233,-3.45234 z m 13.3661701,-1.30629 q 0,-1.11969 -0.65315,-1.81949 -0.65315,-0.6998 -1.91278,-0.67647 l -0.6998,0 0,5.03856 0.67647,0 q 1.18966,0 1.88946,-0.74645 0.6998,-0.74645 0.6998,-1.79615 z m -7.46453,-4.8986 0,9.84384 q 0,0.18662 -0.11663,0.30325 -0.11663,0.11663 -0.30325,0.13996 l -2.8225201,0 q -0.18661,0 -0.30325,-0.13996 -0.11663,-0.13996 -0.11663,-0.30325 l 0,-0.81643 -3.80224,0 -0.6998,1.0497 Q 4.1540949,398 3.9208249,398 l -3.47567002,0 q -0.27992,0 -0.39655,-0.23327 -0.11663,-0.23326 0.0466,-0.46653 l 7.23126002,-9.84385 q 0.11663,-0.18661 0.3499,-0.18661 l 4.3387601,0 q 0.16328,0 0.30324,0.13997 0.13996,0.13996 0.13996,0.30324 z m 10.75358,4.8986 q 0,2.51927 -1.63286,3.9422 -1.63287,1.42292 -4.22212,1.44625 l -3.52233,0 q -0.18661,0 -0.30324,-0.13996 -0.11664,-0.13996 -0.13996,-0.30325 l 0,-9.84384 q 0,-0.18662 0.13996,-0.30324 0.13996,-0.11664 0.30324,-0.13997 l 3.499,0 q 2.58926,0 4.24545,1.42292 1.65619,1.42293 1.63286,3.91889 z m 2.02942,0.0233 q 0,0.13996 0,0.37323 0,0.23327 -0.11663,0.93307 -0.11664,0.69979 -0.27992,1.32961 -0.16329,0.62982 -0.55984,1.3996 -0.39656,0.76978 -0.97972,1.32962 l -0.65315,0 q 0.48986,-0.58317 0.86309,-1.35294 0.37322,-0.76978 0.53651,-1.44626 0.16329,-0.67647 0.27992,-1.28296 0.11663,-0.60649 0.11663,-0.95639 l 0.0233,-0.3499 q 0,-0.0933 -0.0233,-0.27992 -0.0233,-0.18662 -0.0933,-0.79312 -0.07,-0.60649 -0.2566,-1.18965 -0.18661,-0.58317 -0.53651,-1.44625 -0.3499,-0.86309 -0.86308,-1.60954 l 0.55984,0 q 0.53651,0.60649 0.93306,1.37627 0.39655,0.76978 0.60649,1.46958 0.20994,0.69979 0.30325,1.23631 0.0933,0.53651 0.13996,0.90974 z m 2.40264,0 q 0,0.13996 -0.0233,0.37323 -0.0233,0.23327 -0.0933,0.93307 -0.07,0.69979 -0.27992,1.32961 -0.20994,0.62982 -0.58317,1.3996 -0.37322,0.76978 -0.95639,1.32962 l -0.67647,0 q 0.48986,-0.58317 0.86309,-1.35294 0.37322,-0.76978 0.53651,-1.44626 0.16328,-0.67647 0.27992,-1.28296 0.11663,-0.60649 0.11663,-0.95639 l 0.0233,-0.3499 q 0,-0.0933 -0.0233,-0.27992 -0.0233,-0.18662 -0.0933,-0.79312 -0.07,-0.60649 -0.25659,-1.18965 -0.18661,-0.58317 -0.51318,-1.44625 -0.32658,-0.86309 -0.86309,-1.60954 l 0.55984,0 q 0.53651,0.60649 0.93306,1.37627 0.39656,0.76978 0.6065,1.46958 0.20994,0.69979 0.27992,1.23631 0.07,0.53651 0.13996,0.90974 z m 2.35599,0 q 0,0.13996 -0.0233,0.37323 -0.0233,0.23327 -0.0933,0.93307 -0.07,0.69979 -0.27992,1.32961 -0.20994,0.62982 -0.58317,1.3996 -0.37322,0.76978 -0.95639,1.32962 l -0.65314,0 q 0.48986,-0.58317 0.86308,-1.35294 0.37323,-0.76978 0.51319,-1.44626 0.13996,-0.67647 0.27992,-1.28296 0.13996,-0.60649 0.11663,-0.95639 l 0.0233,-0.3499 q 0,-0.0933 -0.0233,-0.27992 -0.0233,-0.18662 -0.0933,-0.79312 -0.07,-0.60649 -0.25659,-1.18965 -0.18661,-0.58317 -0.51318,-1.44625 -0.32658,-0.86309 -0.86309,-1.60954 l 0.55984,0 q 0.53651,0.60649 0.93306,1.37627 0.39656,0.76978 0.6065,1.46958 0.20994,0.69979 0.27992,1.23631 0.07,0.53651 0.13996,0.90974 z"
     inkscape:connector-curvature="0"
     style="fill:#bbbbbb;fill-opacity:1" />
  <path
     id="path4235"
     d="m 13.870077,269 q 0,0.44056 -0.377622,0.65035 l -6.3776181,3.73427 q -0.16784,0.10489 -0.37763,0.10489 -0.16783,0 -0.35664,-0.0839 -0.37762,-0.23076 -0.37762,-0.65035 l 0,-7.51048 q 0,-0.41959 0.37762,-0.65035 0.37762,-0.20979 0.73427,0.021 l 6.3776181,3.73427 q 0.377622,0.20979 0.377622,0.65035 z m 1.489511,0 q 0,-1.74126 -0.86014,-3.18881 -0.86014,-1.44755 -2.307692,-2.32867 -1.447553,-0.88112 -3.1888111,-0.86014 -1.741258,0.021 -3.209788,0.86014 -1.46853,0.83916 -2.30769,2.32867 -0.83916,1.48951 -0.86014,3.18881 -0.021,1.6993 0.86014,3.18881 0.88112,1.48951 2.30769,2.32867 1.42657,0.83916 3.209788,0.86014 1.7832161,0.021 3.1888111,-0.86014 1.405594,-0.88112 2.307692,-2.32867 0.902098,-1.44755 0.86014,-3.18881 z m 2.622381,0 q 0,2.45455 -1.195804,4.51049 -1.195808,2.05594 -3.272731,3.27273 Q 11.436511,278 9.0029449,278 q -2.433568,0 -4.531468,-1.21678 -2.0979,-1.21679 -3.25175,-3.27273 Q 0.06588689,271.45455 0.00294689,269 q -0.0629,-2.45455 1.21678001,-4.51049 1.27972,-2.05594 3.25175,-3.27273 Q 6.4435069,260 9.0029449,260 q 2.5594401,0 4.5104891,1.21678 1.951049,1.21679 3.272731,3.27273 1.321678,2.05594 1.195804,4.51049 z"
     inkscape:connector-curvature="0"
     style="fill:#bbbbbb;fill-opacity:1" />
  <path
     id="path4248"
     d="m 15.422819,193.81208 2.557047,-2.57718 0,6.7651 -6.744967,0 2.577182,-2.61745 -2.577182,-2.55705 1.590604,-1.5906 z M 6.7449664,180 4.147651,182.55705 6.7248322,185.11409 5.114094,186.72483 2.5771812,184.14765 2.0485301e-8,186.74497 l 0,-6.74497 L 6.7449664,180 Z m 0,12.8255 L 4.147651,195.38255 6.7449664,198 2.0485296e-8,198 l 0,-6.7651 L 2.5771812,193.81208 5.1543624,191.2349 Z M 17.979866,180 l 0,6.74497 -2.557047,-2.59732 -2.577181,2.57718 -1.590604,-1.61074 2.557047,-2.55704 L 11.234899,180 l 6.744967,0 z"
     inkscape:connector-curvature="0"
     style="fill:#bbbbbb;fill-opacity:1" />
  <path
     id="path4261"
     d="m 8.9650364,300 c -2.05235,0 -4.10471,0.70212 -5.761,2.08836 l 0,0 c 3.11454,-2.52043 7.7053396,-2.3404 10.5858396,0.5581 2.41242,2.41242 2.95251,5.97704 1.60228,8.91155 -0.18003,0.52209 -0.09,0.90015 0.21604,1.22421 0.37806,0.36006 1.09819,0.41407 1.51226,0 0.054,-0.054 0.21604,-0.27005 0.27004,-0.43208 1.27823,-3.24056 0.59411,-7.07522 -2.01635,-9.70368 C 13.591846,300.88215 11.269436,300 8.9650364,300 Z m -7.36327,4.93286 c -0.25205,0 -0.52209,0.09 -0.70212993,0.28805 -0.054,0.054 -0.23404,0.27004 -0.27004,0.43207 -1.27822,3.24056 -0.61211,7.07523 2.01634993,9.70368 3.33058,3.33058 8.6234896,3.51061 12.1701096,0.5581 l 0,0 c -3.11454,2.52044 -7.7053396,2.34041 -10.6038396,-0.5581 -2.41242,-2.41241 -2.93451,-5.99504 -1.60228,-8.91154 0.19804,-0.52209 0.10802,-0.90016 -0.21604,-1.22421 -0.19803,-0.19804 -0.48608,-0.30606 -0.79213,-0.28805 z"
     inkscape:connector-curvature="0"
     style="fill:#bbbbbb;fill-opacity:1" />
  <path
     id="path4274"
     d="m 2.0485301e-8,152.7972 0,-7.55244 4.258740979514699,0 6.44056,-5.24476 0,18 -6.44056,-5.2028 -4.258740979514707,0 z M 11.811189,152.1049 q 1.300699,-1.32168 1.300699,-3.16784 0,-1.84615 -1.300699,-3.18881 l 1.258741,-1.36363 q 1.888112,1.88811 1.93007,4.5944 0,2.62238 -1.93007,4.46853 z m 2.118881,2.20279 q 2.223776,-2.20279 2.223776,-5.37063 0,-3.16783 -2.223776,-5.41258 l 1.384615,-1.3007 q 2.748254,2.79021 2.748254,6.6923 0,3.9021 -2.748254,6.73427 z m 2.097902,2.05595 q 3.062939,-3.08392 3.062939,-7.42658 0,-4.34265 -3.062939,-7.40559 l 1.300699,-1.36364 q 1.720282,1.72028 2.685317,3.98602 0.965035,2.26573 0.965035,4.76223 0,2.49651 -0.965035,4.8042 -0.965035,2.30769 -2.685317,3.98601 z"
     inkscape:connector-curvature="0"
     style="fill:#bbbbbb;fill-opacity:1" />
  <path
     id="path4287"
     d="m 2.0485301e-8,105.2601 5.6891199795147,0 6.43523,-5.260101 0,18.000001 -6.43523,-5.20414 -4.2715,0 z M 13.29948,110.53886 q 0,-0.0746 0.0373,-0.11192 l 1.41761,-1.41761 -1.41761,-1.41762 q -0.0373,-0.0373 -0.0373,-0.11192 0,-0.0746 0.0373,-0.11191 l 0.9886,-0.9886 q 0.0373,-0.0373 0.0933,-0.0373 0.056,0 0.11192,0.0373 l 1.41762,1.41761 1.43627,-1.41761 q 0.0746,-0.0373 0.11191,-0.0373 0.0373,0 0.0933,0.0373 l 1.0259,0.9886 q 0.0373,0.0373 0.0373,0.11191 0,0.0746 -0.0373,0.11192 l -1.41761,1.41762 1.41761,1.41761 q 0.0373,0.0746 0.0373,0.13057 0,0.056 -0.0373,0.0933 l -1.0259,1.00726 q -0.0373,0.0373 -0.0933,0.0373 -0.056,0 -0.11191,-0.0373 l -1.43627,-1.45493 -1.41762,1.45493 q -0.0373,0.0373 -0.0933,0.0373 -0.056,0 -0.11192,-0.0373 l -0.9886,-1.00726 q -0.0373,-0.0373 -0.0373,-0.11191 z"
     inkscape:connector-curvature="0"
     style="fill:#bbbbbb;fill-opacity:1" />
  <path
     d="m 14.742,443.816 q 0.288,0.288 0.486,0.756 0.198,0.468 0.198,0.9 l 0,11.556 q 0,0.414 -0.27,0.684 -0.27,0.27 -0.684,0.288 l -13.49999998,0 q -0.414,0 -0.684,-0.288 -0.27,-0.288 -0.287999999514681,-0.684 l 0,-16.056 q 0,-0.414 0.287999999514681,-0.684 0.288,-0.27 0.684,-0.288 L 9.972,440 q 0.396,0 0.882,0.198 0.486,0.198 0.756,0.486 z m -4.464,-2.448 0,3.78 3.78,0 q -0.09,-0.306 -0.216,-0.414 l -3.15,-3.15 q -0.108,-0.126 -0.414,-0.216 z m 3.87,15.354 0,-10.296 -4.176,0 q -0.414,0 -0.684,-0.288 Q 9.018,445.85 9,445.472 l 0,-4.194 -7.722,0 0,15.444 12.87,0 z M 3.852,448.028 q 0,-0.126 0.09,-0.216 0.09,-0.09 0.234,-0.09 l 7.074,0 q 0.144,0 0.234,0.09 0.09,0.09 0.09,0.216 l 0,0.648 q 0,0.144 -0.09,0.234 -0.09,0.09 -0.234,0.09 l -7.074,0 q -0.144,0 -0.234,-0.09 -0.09,-0.09 -0.09,-0.234 l 0,-0.648 z m 7.398,2.25 q 0.144,0 0.234,0.09 0.09,0.09 0.09,0.234 l 0,0.648 q 0,0.144 -0.09,0.234 -0.09,0.09 -0.234,0.09 l -7.074,0 q -0.144,0 -0.234,-0.09 -0.09,-0.09 -0.09,-0.234 l 0,-0.648 q 0,-0.144 0.09,-0.234 0.09,-0.09 0.234,-0.09 l 7.074,0 z m 0,2.574 q 0.144,0 0.234,0.09 0.09,0.09 0.09,0.234 l 0,0.648 q 0,0.144 -0.09,0.234 -0.09,0.09 -0.234,0.09 l -7.074,0 q -0.144,0 -0.234,-0.09 -0.09,-0.09 -0.09,-0.234 l 0,-0.648 q 0,-0.144 0.09,-0.234 0.09,-0.09 0.234,-0.09 l 7.074,0 z"
     id="path6-0"
     inkscape:connector-curvature="0"
     style="fill:#cc181e;fill-opacity:1" />
  <path
     id="path4144-9"
     d="m 17.979019,40.755242 0,16.48952 q 0,0.2937 -0.20979,0.52447 -0.20979,0.23077 -0.54545,0.23077 l -5.979024,0 q -0.314686,0 -0.524476,-0.23077 -0.20979,-0.23077 -0.230769,-0.52447 l 0,-16.48952 q 0,-0.2937 0.230769,-0.52447 0.230769,-0.23077 0.524476,-0.23077 l 5.979024,0 q 0.31468,0 0.54545,0.23077 0.23077,0.23077 0.20979,0.52447 z m -10.489509,0 0,16.48952 q 0,0.2937 -0.20979,0.52447 -0.20979,0.23077 -0.545454,0.23077 l -5.97902098,0 q -0.314686,0 -0.524476,-0.23077 -0.20979,-0.23077 -0.230768999514693,-0.52447 l 0,-16.48952 q 0,-0.2937 0.230768999514693,-0.52447 0.230769,-0.23077 0.524476,-0.23077 l 5.97902098,0 q 0.314685,0 0.545454,0.23077 0.23077,0.23077 0.20979,0.52447 z"
     inkscape:connector-curvature="0"
     style="fill:#cc181e;fill-opacity:1" />
  <path
     id="path4157-4"
     d="M 16.034066,9.3581709 0.64385502,17.91521 q -0.270004,0.14538 -0.456929,0.0415 Q 2.0485301e-8,17.85286 2.0485301e-8,17.54132 l 0,-17.0725495 q 0,-0.29077 0.186925999514699,-0.41539 0.186925,-0.12461 0.456929,0.0415 L 16.034066,8.6519209 q 0.270004,0.14539 0.270004,0.35309 0,0.20769 -0.270004,0.35308 z"
     inkscape:connector-curvature="0"
     style="fill:#cc181e;fill-opacity:1" />
  <path
     id="path4170-2"
     d="M 13.812081,215.38255 11.234899,218 l 0,-6.7651 6.744967,0 -2.557047,2.57718 2.557047,2.59732 L 16.389262,218 Z M 2.0485301e-8,206.74497 2.5771812,204.14765 0.02013425,201.61074 1.6107383,200.02013 4.147651,202.55705 6.7449664,200 l 0,6.74497 -6.744966379514704,0 z m 0,9.66443 L 2.5771812,213.81208 2.0485301e-8,211.2349 l 6.7449663795147,0 0,6.7651 L 4.147651,215.38255 1.590604,218 Z M 11.234899,206.74497 l 0,-6.74497 2.577182,2.55705 2.577181,-2.53692 1.57047,1.59061 -2.536913,2.53691 2.557047,2.59732 -6.744967,0 z"
     inkscape:connector-curvature="0"
     style="fill:#cc181e;fill-opacity:1" />
  <path
     id="path4183-3"
     d="m 9.18881,410.3007 2.43357,0 q -0.16783,1.86713 -1.15385,2.91608 -0.98601,1.04895 -2.51748,1.06993 -1.88811,0 -2.97902,-1.36363 -1.09091,-1.36364 -1.09091,-3.69231 0,-2.28671 1.09091,-3.65035 1.09091,-1.36364 2.72727,-1.38462 1.74126,0 2.72727,1.02798 0.98602,1.02797 1.13287,2.8951 l -2.37063,0 q -0.0629,-0.75524 -0.41958,-1.17482 -0.35664,-0.41958 -0.96503,-0.39861 -0.67133,0 -1.02798,0.71329 -0.35664,0.71329 -0.37762,2.07692 0,0.54546 0.0629,0.96504 0.0629,0.41958 0.20979,0.81818 0.14685,0.3986 0.46154,0.60839 0.31468,0.20979 0.77622,0.20979 1.11189,0 1.27972,-1.63636 z m 8.32867,0 2.41259,0 q -0.14685,1.86713 -1.13287,2.91608 -0.98601,1.04895 -2.51748,1.06993 -1.88811,0 -2.97902,-1.36363 -1.09091,-1.36364 -1.06993,-3.69231 0,-2.28671 1.09091,-3.65035 1.09091,-1.36364 2.72727,-1.38462 1.72028,0 2.70629,1.02798 0.98602,1.02797 1.13287,2.8951 l -2.39161,0 q -0.0419,-0.75524 -0.3986,-1.17482 -0.35664,-0.41958 -0.94405,-0.39861 -0.67133,0 -1.04895,0.71329 -0.37763,0.71329 -0.35665,2.07692 0,0.54546 0.042,0.96504 0.042,0.41958 0.20979,0.81818 0.16783,0.3986 0.46154,0.60839 0.2937,0.20979 0.77622,0.20979 0.56644,0 0.9021,-0.44056 0.33566,-0.44056 0.37762,-1.1958 z m 4.21679,-1.38462 q 0,-2.41258 -0.18882,-3.58741 -0.18881,-1.17482 -0.71328,-1.88811 -0.0629,-0.1049 -0.14686,-0.16783 -0.0839,-0.0629 -0.25174,-0.16783 -0.16784,-0.1049 -0.18881,-0.12588 -1.007,-0.75524 -8.16084,-0.75524 -7.32168,0 -8.3077,0.75524 -0.0629,0.042 -0.20979,0.12588 -0.14685,0.0839 -0.25174,0.16783 -0.1049,0.0839 -0.16784,0.16783 -0.52447,0.69231 -0.6923,1.86713 -0.16784,1.17483 -0.18882,3.60839 0,2.43357 0.18882,3.6084 0.18881,1.17482 0.6923,1.86713 0.0839,0.10489 0.18881,0.18881 0.1049,0.0839 0.23077,0.14685 0.12588,0.0629 0.20979,0.14686 0.5035,0.37762 2.79021,0.56643 2.28672,0.18881 5.51749,0.18881 7.13286,0 8.16084,-0.75524 0.0629,-0.042 0.18881,-0.12588 0.12587,-0.0839 0.25174,-0.16783 0.12588,-0.0839 0.14686,-0.18881 0.54545,-0.69231 0.71328,-1.86713 0.16784,-1.17483 0.18882,-3.6084 z M 23.97902,400 l 0,18 L 2.0485302e-8,418 l 0,-18 L 23.97902,400 Z"
     inkscape:connector-curvature="0"
     style="fill:#cc181e;fill-opacity:1" />
  <path
     id="path4209-0"
     d="m 8.3469231,326.77214 q 0.32388,0 0.59378,0.17993 l 2.2311799,1.47546 q 0.61177,0.39585 1.0976,0.97164 l 1.45746,1.70937 q 0.41385,0.46783 0.30589,1.06161 l -0.73773,4.15647 q -0.054,0.32388 -0.2879,0.5398 -0.23391,0.21592 -0.55779,0.2519 l -5.2900499,0.5578 -3.5267,0.32388 -0.10796,0 q -0.37786,0 -0.66576,-0.28789 -0.28789,-0.2879 -0.28789,-0.68375 0,-0.35987 0.2699,-0.62977 0.2699,-0.2699 0.64776,-0.32388 l 2.60904,-0.32388 -4.49834,0 q -0.41385,0 -0.68374999,-0.30589 -0.2699,-0.30589 -0.2699,-0.70174 0.018,-0.39585 0.32388,-0.66575 0.30588999,-0.26991 0.68374999,-0.25191 l 4.44436,-0.018 -5.23606999,-0.62976 q -0.41385,-0.054 -0.66576,-0.37786 -0.2519,-0.32388 -0.17993,-0.73773 0.054,-0.34188 0.34187,-0.57579 0.2879,-0.23391 0.64776999,-0.21592 l 0.10796,0 4.82222,0.59378 -3.50871,-0.93565 q -0.39585,-0.10796 -0.62977,-0.43185 -0.23391,-0.32388 -0.17993,-0.68374 0.054,-0.35987 0.32388,-0.57579 0.2699,-0.21592 0.62977,-0.23392 0.054,0 0.19793,0.018 l 4.49834,0.97164 2.1772,0.35987 q 0.018,0 0.036,0.018 0.018,0.018 0.036,0 0.21592,0 0.30589,-0.23391 0.09,-0.23392 -0.12596,-0.35987 l -1.87131,-1.25954 q -0.35986,-0.23391 -0.43184,-0.62976 -0.072,-0.39586 0.17994,-0.73773 0.2699,-0.37786 0.77371,-0.37786 z m -0.70174,2.01525 1.87131,1.25954 -2.19519,-0.37786 -0.054,-0.018 -0.35987,-0.37786 -2.39312,-2.62704 q 0,-0.018 -0.018,-0.036 -0.018,-0.018 -0.036,-0.036 -0.23391,-0.30589 -0.17993,-0.70174 0.054,-0.39586 0.37786,-0.64776 0.30589,-0.23392 0.68375,-0.17994 0.37786,0.054 0.64776,0.34188 l 1.42148,1.47545 -0.036,0.036 q 0,0 -0.054,0.054 -0.32388,0.44983 -0.23392,0.98964 0.09,0.5398 0.5578,0.84568 z m 8.9067199,-4.55232 0.14394,2.66302 q 0.036,0.73773 -0.10796,1.47546 l -0.48582,2.21318 q -0.12595,0.57579 -0.66575,0.86368 l -1.06161,0.5398 q 0.018,-0.61177 -0.39585,-1.09759 l -1.47546,-1.69138 q -0.52181,-0.61177 -1.16957,-1.04361 l -2.2311799,-1.49345 q -0.34187,-0.21592 -0.75572,-0.21592 -0.52181,0 -0.88167,0.35986 l -2.35714,-3.13084 q -0.2519,-0.32388 -0.19792,-0.73773 0.054,-0.41385 0.41384,-0.62977 0.34188,-0.23391 0.71974,-0.14395 0.37786,0.09 0.62977,0.39586 l 2.68101,3.54469 -2.64503,-4.57031 q -0.19792,-0.35987 -0.09,-0.75573 0.10796,-0.39585 0.46782,-0.59378 0.35987,-0.17993 0.71974,-0.054 0.35987,0.12596 0.59378,0.44984 l 2.4111099,4.22844 -1.3674899,-3.38275 q -0.14395,-0.35987 -0.036,-0.75573 0.10796,-0.39585 0.43184,-0.55779 0.3778599,-0.19793 0.7737199,-0.054 0.39585,0.14395 0.55779,0.50381 l 1.94328,4.17447 1.00763,1.96127 q 0.09,0.16194 0.23392,0.17994 0.14394,0.018 0.2699,-0.072 0.12595,-0.09 0.10796,-0.2699 l -0.10796,-2.24917 q -0.036,-0.41385 0.2519,-0.70174 0.2879,-0.28789 0.70175,-0.32388 0.37786,0 0.66575,0.28789 0.28789,0.2879 0.30589,0.68375 z"
     inkscape:connector-curvature="0"
     style="fill:#cc181e;fill-opacity:1" />
  <path
     id="path4222-4"
     d="m 6.5567349,373.91784 2.23936,0 -0.0233,-3.45234 z m 13.3661701,-1.30629 q 0,-1.11969 -0.65315,-1.81949 -0.65315,-0.6998 -1.91278,-0.67647 l -0.6998,0 0,5.03856 0.67647,0 q 1.18966,0 1.88946,-0.74645 0.6998,-0.74645 0.6998,-1.79615 z m -7.46453,-4.8986 0,9.84384 q 0,0.18662 -0.11663,0.30325 -0.11663,0.11663 -0.30325,0.13996 l -2.8225201,0 q -0.18661,0 -0.30325,-0.13996 -0.11663,-0.13996 -0.11663,-0.30325 l 0,-0.81643 -3.80224,0 -0.6998,1.0497 Q 4.1540949,378 3.9208249,378 l -3.47567002,0 q -0.27992,0 -0.39655,-0.23327 -0.11663,-0.23326 0.0466,-0.46653 l 7.23126002,-9.84385 q 0.11663,-0.18661 0.3499,-0.18661 l 4.3387601,0 q 0.16328,0 0.30324,0.13997 0.13996,0.13996 0.13996,0.30324 z m 10.75358,4.8986 q 0,2.51927 -1.63286,3.9422 -1.63287,1.42292 -4.22212,1.44625 l -3.52233,0 q -0.18661,0 -0.30324,-0.13996 -0.11664,-0.13996 -0.13996,-0.30325 l 0,-9.84384 q 0,-0.18662 0.13996,-0.30324 0.13996,-0.11664 0.30324,-0.13997 l 3.499,0 q 2.58926,0 4.24545,1.42292 1.65619,1.42293 1.63286,3.91889 z m 2.02942,0.0233 q 0,0.13996 0,0.37323 0,0.23327 -0.11663,0.93307 -0.11664,0.69979 -0.27992,1.32961 -0.16329,0.62982 -0.55984,1.3996 -0.39656,0.76978 -0.97972,1.32962 l -0.65315,0 q 0.48986,-0.58317 0.86309,-1.35294 0.37322,-0.76978 0.53651,-1.44626 0.16329,-0.67647 0.27992,-1.28296 0.11663,-0.60649 0.11663,-0.95639 l 0.0233,-0.3499 q 0,-0.0933 -0.0233,-0.27992 -0.0233,-0.18662 -0.0933,-0.79312 -0.07,-0.60649 -0.2566,-1.18965 -0.18661,-0.58317 -0.53651,-1.44625 -0.3499,-0.86309 -0.86308,-1.60954 l 0.55984,0 q 0.53651,0.60649 0.93306,1.37627 0.39655,0.76978 0.60649,1.46958 0.20994,0.69979 0.30325,1.23631 0.0933,0.53651 0.13996,0.90974 z m 2.40264,0 q 0,0.13996 -0.0233,0.37323 -0.0233,0.23327 -0.0933,0.93307 -0.07,0.69979 -0.27992,1.32961 -0.20994,0.62982 -0.58317,1.3996 -0.37322,0.76978 -0.95639,1.32962 l -0.67647,0 q 0.48986,-0.58317 0.86309,-1.35294 0.37322,-0.76978 0.53651,-1.44626 0.16328,-0.67647 0.27992,-1.28296 0.11663,-0.60649 0.11663,-0.95639 l 0.0233,-0.3499 q 0,-0.0933 -0.0233,-0.27992 -0.0233,-0.18662 -0.0933,-0.79312 -0.07,-0.60649 -0.25659,-1.18965 -0.18661,-0.58317 -0.51318,-1.44625 -0.32658,-0.86309 -0.86309,-1.60954 l 0.55984,0 q 0.53651,0.60649 0.93306,1.37627 0.39656,0.76978 0.6065,1.46958 0.20994,0.69979 0.27992,1.23631 0.07,0.53651 0.13996,0.90974 z m 2.35599,0 q 0,0.13996 -0.0233,0.37323 -0.0233,0.23327 -0.0933,0.93307 -0.07,0.69979 -0.27992,1.32961 -0.20994,0.62982 -0.58317,1.3996 -0.37322,0.76978 -0.95639,1.32962 l -0.65314,0 q 0.48986,-0.58317 0.86308,-1.35294 0.37323,-0.76978 0.51319,-1.44626 0.13996,-0.67647 0.27992,-1.28296 0.13996,-0.60649 0.11663,-0.95639 l 0.0233,-0.3499 q 0,-0.0933 -0.0233,-0.27992 -0.0233,-0.18662 -0.0933,-0.79312 -0.07,-0.60649 -0.25659,-1.18965 -0.18661,-0.58317 -0.51318,-1.44625 -0.32658,-0.86309 -0.86309,-1.60954 l 0.55984,0 q 0.53651,0.60649 0.93306,1.37627 0.39656,0.76978 0.6065,1.46958 0.20994,0.69979 0.27992,1.23631 0.07,0.53651 0.13996,0.90974 z"
     inkscape:connector-curvature="0"
     style="fill:#cc181e;fill-opacity:1" />
  <path
     id="path4235-2"
     d="m 13.870077,249 q 0,0.44056 -0.37763,0.65035 l -6.3776201,3.73427 q -0.16783,0.10489 -0.37762,0.10489 -0.16783,0 -0.35664,-0.0839 -0.37763,-0.23076 -0.37763,-0.65035 l 0,-7.51048 q 0,-0.41959 0.37763,-0.65035 0.37762,-0.20979 0.73426,0.021 l 6.3776201,3.73427 q 0.37763,0.20979 0.37763,0.65035 z m 1.48951,0 q 0,-1.74126 -0.86014,-3.18881 -0.86014,-1.44755 -2.3077,-2.32867 -1.44755,-0.88112 -3.1888101,-0.86014 -1.74126,0.021 -3.20979,0.86014 -1.46852,0.83916 -2.30768,2.32867 -0.83916,1.48951 -0.86014,3.18881 -0.021,1.6993 0.86014,3.18881 0.88112,1.48951 2.30768,2.32867 1.42658,0.83916 3.20979,0.86014 1.7832201,0.021 3.1888101,-0.86014 1.4056,-0.88112 2.3077,-2.32867 0.9021,-1.44755 0.86014,-3.18881 z m 2.62238,0 q 0,2.45455 -1.1958,4.51049 -1.19581,2.05594 -3.27274,3.27273 Q 11.436507,258 9.0029369,258 q -2.43356,0 -4.53146,-1.21678 -2.0979,-1.21679 -3.25175,-3.27273 Q 0.06588689,251.45455 0.00294689,249 q -0.0629,-2.45455 1.21678001,-4.51049 1.27972,-2.05594 3.25175,-3.27273 Q 6.4434969,240 9.0029369,240 q 2.5594401,0 4.5104901,1.21678 1.95105,1.21679 3.27274,3.27273 1.32168,2.05594 1.1958,4.51049 z"
     inkscape:connector-curvature="0"
     style="fill:#cc181e;fill-opacity:1" />
  <path
     id="path4248-2"
     d="m 15.422819,173.81208 2.557047,-2.57718 0,6.7651 -6.744967,0 2.577182,-2.61745 -2.577182,-2.55705 1.590604,-1.5906 z M 6.7449664,160 4.147651,162.55705 6.7248322,165.11409 5.114094,166.72483 2.5771812,164.14765 2.0485301e-8,166.74497 l 0,-6.74497 L 6.7449664,160 Z m 0,12.8255 L 4.147651,175.38255 6.7449664,178 2.0485296e-8,178 l 0,-6.7651 L 2.5771812,173.81208 5.1543624,171.2349 Z M 17.979866,160 l 0,6.74497 -2.557047,-2.59732 -2.577181,2.57718 -1.590604,-1.61074 2.557047,-2.55704 L 11.234899,160 l 6.744967,0 z"
     inkscape:connector-curvature="0"
     style="fill:#cc181e;fill-opacity:1" />
  <path
     id="path4261-7"
     d="m 8.9650417,280 c -2.0523559,0 -4.1047117,0.70212 -5.7609989,2.08836 l 0,0 c 3.1145399,-2.52043 7.7053362,-2.3404 10.5858352,0.5581 2.412419,2.41242 2.952512,5.97704 1.602278,8.91155 -0.180031,0.52209 -0.09001,0.90015 0.216038,1.22421 0.378065,0.36006 1.09819,0.41407 1.512262,0 0.05401,-0.054 0.216037,-0.27005 0.270047,-0.43208 1.278221,-3.24056 0.594103,-7.07522 -2.01635,-9.70368 C 13.591844,280.88215 11.269441,280 8.9650417,280 Z m -7.3632768,4.93286 c -0.2520437,0 -0.5220905,0.09 -0.70212171,0.28805 -0.0540094,0.054 -0.23404058,0.27004 -0.27004683,0.43207 -1.27822166,3.24056 -0.61210614,7.07523 2.01634964,9.70368 3.3305774,3.33058 8.623495,3.51061 12.17011,0.5581 l 0,0 c -3.11454,2.52044 -7.7053359,2.34041 -10.6038384,-0.5581 -2.4124183,-2.41241 -2.9345089,-5.99504 -1.6022778,-8.91154 0.1980343,-0.52209 0.1080187,-0.90016 -0.2160375,-1.22421 -0.1980343,-0.19804 -0.4860843,-0.30606 -0.7921374,-0.28805 z"
     inkscape:connector-curvature="0"
     style="fill:#cc181e;fill-opacity:1" />
  <path
     id="path4274-6"
     d="m 2.0485301e-8,132.7972 0,-7.55244 L 4.25874,125.24476 10.6993,120 l 0,18 -6.44056,-5.2028 -4.258739979514703,0 z M 11.81119,132.1049 q 1.3007,-1.32168 1.3007,-3.16784 0,-1.84615 -1.3007,-3.18881 l 1.25874,-1.36363 q 1.88811,1.88811 1.93007,4.5944 0,2.62238 -1.93007,4.46853 z m 2.11888,2.20279 q 2.22378,-2.20279 2.22378,-5.37063 0,-3.16783 -2.22378,-5.41258 l 1.38461,-1.3007 q 2.74826,2.79021 2.74826,6.6923 0,3.9021 -2.74826,6.73427 z m 2.0979,2.05595 q 3.06294,-3.08392 3.06294,-7.42658 0,-4.34265 -3.06294,-7.40559 l 1.3007,-1.36364 q 1.72028,1.72028 2.68532,3.98602 0.96503,2.26573 0.96503,4.76223 0,2.49651 -0.96503,4.8042 -0.96504,2.30769 -2.68532,3.98601 z"
     inkscape:connector-curvature="0"
     style="fill:#cc181e;fill-opacity:1" />
  <path
     id="path4287-9"
     d="m 2.0485301e-8,85.260106 5.6891199795147,0 6.43523,-5.260104 0,18 -6.43523,-5.204145 -4.2715,0 z M 13.29948,90.538862 q 0,-0.07461 0.0373,-0.111917 l 1.41761,-1.417617 -1.41761,-1.417616 q -0.0373,-0.03731 -0.0373,-0.111917 0,-0.07461 0.0373,-0.111917 l 0.9886,-0.988601 q 0.0373,-0.03731 0.0933,-0.03731 0.056,0 0.11192,0.03731 l 1.41762,1.417616 1.43627,-1.417616 q 0.0746,-0.03731 0.11192,-0.03731 0.0373,0 0.0933,0.03731 l 1.02591,0.988601 q 0.0373,0.03731 0.0373,0.111917 0,0.07461 -0.0373,0.111917 l -1.41762,1.417616 1.41762,1.417617 q 0.0373,0.07461 0.0373,0.13057 0,0.05596 -0.0373,0.09326 l -1.02591,1.007254 q -0.0373,0.03731 -0.0933,0.03731 -0.056,0 -0.11192,-0.03731 l -1.43627,-1.454922 -1.41762,1.454922 q -0.0373,0.03731 -0.0933,0.03731 -0.056,0 -0.11192,-0.03731 l -0.9886,-1.007254 q -0.0373,-0.03731 -0.0373,-0.111917 z"
     inkscape:connector-curvature="0"
     style="fill:#cc181e;fill-opacity:1" />
</svg>
