<?xml version="1.0" encoding="UTF-8" standalone="no"?>
<!-- Generator: Adobe Illustrator 16.0.0, SVG Export Plug-In . SVG Version: 6.00 Build 0)  -->

<svg
   xmlns:dc="../../../../../external.html?link=http://purl.org/dc/elements/1.1/"
   xmlns:cc="../../../../../external.html?link=http://creativecommons.org/ns#"
   xmlns:rdf="../../../../../external.html?link=http://www.w3.org/1999/02/22-rdf-syntax-ns#"
   xmlns:svg="../../../../../external.html?link=http://www.w3.org/2000/svg"
   xmlns="../../../../../external.html?link=http://www.w3.org/2000/svg"
   xmlns:sodipodi="../../../../../sodipodi.sourceforge.net/DTD/sodipodi-0.html"
   xmlns:inkscape="../../../../../external.html?link=http://www.inkscape.org/namespaces/inkscape"
   version="1.1"
   id="svg2"
   sodipodi:docname="blocks.svg"
   inkscape:version="0.91 r13725"
   x="0px"
   y="0px"
   width="35px"
   height="420px"
   viewBox="0 0 35 420"
   enable-background="new 0 0 35 420"
   xml:space="preserve"><metadata
     id="metadata50"><rdf:RDF><cc:Work
         rdf:about=""><dc:format>image/svg+xml</dc:format><dc:type
           rdf:resource="../../../../../external.html?link=http://purl.org/dc/dcmitype/StillImage" /></cc:Work></rdf:RDF></metadata><defs
     id="defs48" /><sodipodi:namedview
     inkscape:cy="166.74805"
     inkscape:cx="-28.73561"
     inkscape:zoom="1.5893067"
     showgrid="false"
     guidetolerance="10"
     gridtolerance="10"
     objecttolerance="10"
     bordercolor="#666666"
     pagecolor="#ffffff"
     borderopacity="1"
     id="namedview541"
     inkscape:current-layer="Fondamental"
     inkscape:window-maximized="1"
     inkscape:window-y="-8"
     inkscape:window-x="1912"
     inkscape:window-height="1017"
     inkscape:window-width="1920"
     inkscape:pageshadow="2"
     inkscape:pageopacity="0" /><g
     id="content"><g
       id="blocks"><g
         id="Attention"><polygon
           id="polygon383"
           fill="#EE1C25"
           points="0.104,31.043 34.947,31.282 16.868,0.51    " /><path
           id="path385"
           fill="#FFFFFF"
           d="M18.451,21.672c0,0.627-0.43,1.175-0.96,1.175h-0.958c-0.531,0-0.958-0.548-0.958-1.175     L14.559,9.178c0-0.628,0.428-1.116,0.958-1.116h2.989c0.529,0,0.959,0.488,0.959,1.116L18.451,21.672z" /><ellipse
           id="ellipse387"
           fill="#FFFFFF"
           cx="16.938"
           cy="26.815"
           rx="1.895"
           ry="2.237" /></g><path
         id="Méthode"
         fill="#94739D"
         d="M3.258,201.715c0,2.317,1.874,4.19,4.192,4.19c1.155,0,2.233-0.438,2.994-1.197l7.641-7.646    l2.048,2.048c-0.275,1.007-0.012,2.133,0.785,2.935l2.971,2.971c1.185,1.179,3.082,1.191,4.25,0.023    c1.168-1.169,1.156-3.065-0.023-4.251l-2.971-2.972c-0.802-0.797-1.928-1.06-2.934-0.783l-2.048-2.043l1.317-1.316    c2.802,0.707,5.892-0.03,8.078-2.167c1.502-1.475,2.33-3.342,2.442-5.275v-0.102c0-0.654-0.539-1.182-1.204-1.182    c-0.329,0-0.629,0.134-0.852,0.343l-0.353,0.348l-1.209,1.185c-0.761,0.742-1.844,1.181-3.012,1.181    c-1.162,0-2.187-0.509-2.946-1.258c-0.749-0.761-1.263-1.79-1.263-2.951c0-1.168,0.437-2.252,1.179-3.014l1.186-1.209l0.348-0.353    c0.209-0.222,0.342-0.521,0.342-0.852c0-0.664-0.527-1.203-1.18-1.203h-0.102c-1.935,0.112-3.803,0.939-5.275,2.442    c-2.138,2.187-2.868,5.275-2.162,8.072l-1.322,1.322l-5.527-5.532v-1.516l-3.593-1.797l-1.796,1.797l1.796,3.593h1.509    l5.533,5.526l-7.641,7.646C3.695,199.48,3.258,200.56,3.258,201.715z M6.251,201.415c0-0.826,0.671-1.497,1.497-1.497    s1.497,0.671,1.497,1.497s-0.671,1.498-1.497,1.498C6.923,202.913,6.251,202.241,6.251,201.415z" /><g
         id="Définition"><path
           id="path391"
           fill="#94739D"
           d="M12.667,36.267c-5.902,0-10.594,4.691-10.594,10.594c0,5.903,4.692,10.596,10.594,10.596     c5.901,0,10.594-4.691,10.594-10.596C23.261,40.958,18.568,36.267,12.667,36.267z M10.396,48.374     c-2.119,0-3.784-1.665-3.784-3.783c0-2.119,1.665-3.784,3.784-3.784s3.783,1.665,3.783,3.784     C14.18,46.709,12.515,48.374,10.396,48.374z" /><path
           id="path393"
           fill="#94739D"
           d="M21.747,49.888l-6.054,6.054l3.028,3.027l0,0h3.026v3.026l0,0h3.026v3.026l1.06,1.06     c0.303,0.304,0.604,0.455,1.06,0.455h3.936c0.908,0,1.513-0.605,1.513-1.515v-3.936c0-0.453-0.151-0.757-0.454-1.06     L21.747,49.888z" /></g><path
         id="Remarque"
         fill="#94739D"
         d="M33.198,97.652l-7.56-7.56c1.079-1.762,1.733-3.814,1.733-6.034    c0-6.434-5.22-11.65-11.651-11.65c-6.434,0-11.651,5.218-11.651,11.65c0,6.434,5.218,11.651,11.651,11.651    c2.22,0,4.272-0.654,6.034-1.729l7.56,7.557c0.531,0.529,1.41,0.526,1.941,0l1.942-1.942    C33.729,99.063,33.729,98.183,33.198,97.652z M15.721,91.826c-4.29,0-7.768-3.479-7.768-7.769s3.478-7.768,7.768-7.768    c4.29,0,7.768,3.478,7.768,7.768S20.011,91.826,15.721,91.826z" /><path
         id="Texte_légal"
         fill="#94739D"
         d="M17.695,112.384c1.163-0.034,2.084-0.956,2.12-2.118    c0.033-1.265-0.991-2.29-2.256-2.256c-1.162,0.034-2.084,0.956-2.119,2.118C15.405,111.393,16.43,112.418,17.695,112.384z     M33.552,125.507h-0.614l-4.34-8.406c0.614-0.068,1.229-0.308,1.776-0.547c0.819-0.376,0.991-1.47,0.376-2.118l-0.034-0.035    c-0.376-0.375-0.957-0.512-1.47-0.272c-0.479,0.205-1.162,0.443-1.811,0.443c-1.914,0-2.77-2.188-9.809-2.188    c-7.04,0-7.895,2.188-9.808,2.188c-0.684,0-1.333-0.204-1.812-0.443c-0.513-0.205-1.094-0.103-1.47,0.272l-0.034,0.035    c-0.615,0.648-0.444,1.708,0.376,2.118c0.547,0.272,1.162,0.479,1.777,0.547l-4.34,8.406H1.701c-0.273,0-0.479,0.239-0.444,0.513    c0.376,2.188,3.145,3.862,6.527,3.862c3.384,0,6.152-1.674,6.527-3.862c0.035-0.272-0.171-0.513-0.444-0.513h-0.616l-4.34-8.372    c2.836-0.24,4.34-1.675,6.527-1.675v16.608c-1.196,0-2.188,0.991-2.188,2.188h-2.426c-0.957,0-1.948,0.991-1.948,2.188h17.498    c0-1.195-0.991-2.188-2.426-2.188H22c0-1.195-0.991-2.188-2.188-2.188V115.46c2.188,0,3.69,1.435,6.527,1.675L22,125.507h-0.615    c-0.273,0-0.479,0.239-0.445,0.513c0.377,2.188,3.145,3.862,6.527,3.862c3.385,0,6.152-1.674,6.528-3.862    C34.029,125.746,33.825,125.507,33.552,125.507z M11.064,125.507H4.503l3.281-6.151L11.064,125.507z M24.188,125.507l3.28-6.151    l3.281,6.151H24.188z" /><g
         id="Rappel"><g
           id="Group"
           transform="translate(-720.000000, 0.000000)"><path
             id="Rectangle_143"
             fill="#94739D"
             d="M726.024,161.264h5.842v1.947h-5.842V161.264z M729.91,143.739h17.541      c1.072,0,1.939,0.879,1.939,1.961v23.34c0,1.085-0.867,1.961-1.939,1.961H729.91c-1.072,0-1.938-0.878-1.938-1.961v-3.881h3.895      c1.075,0,1.947-0.863,1.947-1.945v-1.951c0-1.075-0.864-1.945-1.947-1.945h-3.895v-3.894h3.895c1.075,0,1.947-0.863,1.947-1.946      v-1.951c0-1.073-0.864-1.943-1.947-1.943h-3.895V145.7C727.971,144.614,728.839,143.739,729.91,143.739z M726.024,151.528h5.842      v1.946h-5.842V151.528z" /></g></g><g
         id="Conseil"><g
           id="g401"><path
             id="path-1"
             fill="#94739D"
             d="M30.691,217.139c0.724,0,1.309,0.577,1.309,1.288v20.739c0,0.71-0.568,1.285-1.298,1.285      H4.806c-0.717,0-1.298-0.575-1.298-1.285v-20.739c0-0.711,0.574-1.288,1.307-1.288h3.874v1.296l-3.886,0.062v20.661h25.902      v-20.723H26.82v-1.296H30.691z M21.639,217.139h-1.295v1.296h1.295V217.139z M15.164,217.139h-1.295v1.296h1.295V217.139z       M10.266,223.614c-0.157,0-0.283,0.116-0.283,0.262v0.775c0,0.145,0.125,0.26,0.283,0.26h14.975c0.157,0,0.282-0.114,0.282-0.26      v-0.775c0-0.146-0.125-0.262-0.282-0.262H10.266z M10.266,228.795c-0.157,0-0.283,0.116-0.283,0.261v0.776      c0,0.143,0.125,0.258,0.283,0.258h14.975c0.157,0,0.282-0.113,0.282-0.258v-0.776c0-0.145-0.125-0.261-0.282-0.261H10.266z       M10.266,233.976c-0.157,0-0.283,0.116-0.283,0.261v0.776c0,0.143,0.125,0.258,0.283,0.258h14.975      c0.157,0,0.282-0.112,0.282-0.258v-0.776c0-0.145-0.125-0.261-0.282-0.261H10.266z M11.278,219.729      c0.715,0,1.295-1.159,1.295-2.591c0-1.429-0.58-2.59-1.295-2.59c-0.715,0-1.295,1.161-1.295,2.59      C9.983,218.57,10.563,219.729,11.278,219.729z M17.753,219.729c0.716,0,1.295-1.159,1.295-2.591c0-1.429-0.58-2.59-1.295-2.59      s-1.295,1.161-1.295,2.59C16.458,218.57,17.039,219.729,17.753,219.729z M24.229,219.729c0.717,0,1.295-1.159,1.295-2.591      c0-1.429-0.58-2.59-1.295-2.59s-1.295,1.161-1.295,2.59C22.934,218.57,23.514,219.729,24.229,219.729z" /></g><g
           id="g404"><path
             id="path-1_1_"
             fill="#94739D"
             d="M30.691,217.139c0.724,0,1.309,0.577,1.309,1.288v20.739c0,0.71-0.568,1.285-1.298,1.285      H4.806c-0.717,0-1.298-0.575-1.298-1.285v-20.739c0-0.711,0.574-1.288,1.307-1.288h3.874v1.296l-3.886,0.062v20.661h25.902      v-20.723H26.82v-1.296H30.691z M21.639,217.139h-1.295v1.296h1.295V217.139z M15.164,217.139h-1.295v1.296h1.295V217.139z       M10.266,223.614c-0.157,0-0.283,0.116-0.283,0.262v0.775c0,0.145,0.125,0.26,0.283,0.26h14.975c0.157,0,0.282-0.114,0.282-0.26      v-0.775c0-0.146-0.125-0.262-0.282-0.262H10.266z M10.266,228.795c-0.157,0-0.283,0.116-0.283,0.261v0.776      c0,0.143,0.125,0.258,0.283,0.258h14.975c0.157,0,0.282-0.113,0.282-0.258v-0.776c0-0.145-0.125-0.261-0.282-0.261H10.266z       M10.266,233.976c-0.157,0-0.283,0.116-0.283,0.261v0.776c0,0.143,0.125,0.258,0.283,0.258h14.975      c0.157,0,0.282-0.112,0.282-0.258v-0.776c0-0.145-0.125-0.261-0.282-0.261H10.266z M11.278,219.729      c0.715,0,1.295-1.159,1.295-2.591c0-1.429-0.58-2.59-1.295-2.59c-0.715,0-1.295,1.161-1.295,2.59      C9.983,218.57,10.563,219.729,11.278,219.729z M17.753,219.729c0.716,0,1.295-1.159,1.295-2.591c0-1.429-0.58-2.59-1.295-2.59      s-1.295,1.161-1.295,2.59C16.458,218.57,17.039,219.729,17.753,219.729z M24.229,219.729c0.717,0,1.295-1.159,1.295-2.591      c0-1.429-0.58-2.59-1.295-2.59s-1.295,1.161-1.295,2.59C22.934,218.57,23.514,219.729,24.229,219.729z" /></g></g><g
         id="Complément"><polygon
           id="polygon408"
           fill="#94739D"
           points="25.497,249.686 11.693,249.686 5.884,254.881 5.884,275.243 19.698,275.243      19.698,273.415 7.941,273.415 7.941,256.871 13.9,256.871 13.9,251.512 23.439,251.512 23.439,257.172 25.497,257.172    " /><polygon
           id="polygon410"
           fill="#94739D"
           points="22.594,265.575 22.594,259.931 26.977,259.931 26.977,265.575 33,265.575      33,269.669 26.977,269.669 26.977,275.314 22.594,275.314 22.594,269.669 16.581,269.669 16.581,265.575    " /></g><g
         id="Fondamental"><path
           id="path413"
           fill="#94739D"
           d="M19.221,281.821c-5.954,0-10.779,4.825-10.779,10.778c0,3.951,3.614,8.137,4.93,11.813     c1.963,5.483,1.745,8.767,5.849,8.767c4.165,0,3.885-3.268,5.85-8.742c1.32-3.685,4.93-7.916,4.93-11.836     C30,286.646,25.173,281.821,19.221,281.821z M21.761,308.449l-4.858,0.606c-0.173-0.501-0.359-1.088-0.585-1.854     c-0.003-0.01-0.007-0.021-0.009-0.03l6.064-0.759c-0.086,0.289-0.178,0.595-0.259,0.865     C21.984,307.72,21.87,308.103,21.761,308.449z M16.022,306.229c-0.178-0.59-0.379-1.211-0.602-1.87h7.609     c-0.121,0.354-0.241,0.704-0.346,1.038L16.022,306.229z M19.221,311.218c-0.992,0-1.449-0.114-1.957-1.226l4.153-0.521     C20.814,311.094,20.377,311.218,19.221,311.218z M23.799,302.398h-9.146c-0.488-1.058-1.074-2.116-1.652-3.151     c-1.278-2.288-2.599-4.654-2.599-6.646c0-4.862,3.956-8.817,8.819-8.817c4.863,0,8.819,3.955,8.819,8.817     c0,1.979-1.322,4.356-2.603,6.658C24.865,300.289,24.283,301.347,23.799,302.398z"
           style="fill:#eaa459;fill-opacity:1" /><path
           id="path415"
           fill="#94739D"
           d="M19.221,286.721c-3.243,0-5.879,2.637-5.879,5.879c0,0.271,0.22,0.49,0.49,0.49     c0.271,0,0.49-0.22,0.49-0.49c0-2.701,2.198-4.897,4.899-4.897c0.271,0,0.49-0.222,0.49-0.49     C19.711,286.943,19.491,286.721,19.221,286.721z"
           style="fill:#eaa459;fill-opacity:1" /></g><g
         id="Simulation"><path
           id="path418"
           fill="#94739D"
           stroke="#94739D"
           stroke-miterlimit="10"
           d="M21.064,324.961c1.42,0,2.58-1.158,2.58-2.579     c0-1.42-1.16-2.58-2.58-2.58s-2.58,1.159-2.58,2.579C18.484,323.802,19.643,324.961,21.064,324.961z" /><path
           id="path420"
           fill="#94739D"
           stroke="#94739D"
           stroke-miterlimit="10"
           d="M6.489,337.38c1.421,0,2.58-1.158,2.58-2.577     c0-1.421-1.158-2.581-2.58-2.581c-1.42,0-2.578,1.159-2.578,2.581C3.912,336.223,5.07,337.38,6.489,337.38z" /><path
           id="path422"
           fill="#94739D"
           stroke="#94739D"
           stroke-miterlimit="10"
           d="M25.422,339.332c1.419,0,2.578-1.156,2.578-2.576     c0-1.421-1.159-2.58-2.578-2.58c-1.422,0-2.581,1.159-2.581,2.58C22.842,338.176,24,339.332,25.422,339.332z" /><path
           id="path424"
           fill="#94739D"
           stroke="#94739D"
           stroke-miterlimit="10"
           d="M18.811,348.198c1.42,0,2.58-1.159,2.58-2.579     c0-1.421-1.16-2.578-2.58-2.578c-1.418,0-2.579,1.157-2.579,2.578C16.232,347.038,17.389,348.198,18.811,348.198z" /><path
           id="path426"
           fill="#94739D"
           stroke="#94739D"
           stroke-miterlimit="10"
           d="M17.358,336.129c1.724,0,3.13-1.407,3.13-3.131     c0-1.722-1.406-3.13-3.13-3.13s-3.13,1.408-3.13,3.13C14.228,334.722,15.634,336.129,17.358,336.129z" /><line
           id="line428"
           fill="none"
           stroke="#94739D"
           stroke-width="0.9621"
           stroke-miterlimit="2.6131"
           x1="20.639"
           y1="324.259"
           x2="17.633"
           y2="332.772" /><line
           id="line430"
           fill="none"
           stroke="#94739D"
           stroke-width="0.9618"
           stroke-miterlimit="2.6131"
           x1="25.602"
           y1="336.9"
           x2="17.521"
           y2="332.873" /><line
           id="line432"
           fill="none"
           stroke="#94739D"
           stroke-width="1.0003"
           stroke-miterlimit="2.6131"
           x1="18.29"
           y1="344.241"
           x2="17.791"
           y2="333.013" /><line
           id="line434"
           fill="none"
           stroke="#94739D"
           stroke-width="0.9621"
           stroke-miterlimit="2.6131"
           x1="8.688"
           y1="334.747"
           x2="17.479"
           y2="332.688" /></g><g
         id="Exemple"><g
           id="g437"><path
             id="path439"
             fill="#94739D"
             d="M20.411,385.5c0,1.102-0.896,2-2,2c-1.105,0-2-0.898-2-2c0-1.109,0.895-2,2-2      C19.516,383.5,20.411,384.391,20.411,385.5z" /><path
             id="path441"
             fill="#94739D"
             d="M18.486,381.477c-1.335,0-2.589-0.522-3.534-1.469c-0.945-1.105-1.465-2.359-1.465-3.695      s0.52-2.59,1.465-3.371l6.688-6.688c0.754-0.759,1.17-1.763,1.17-2.828c0-1.07-0.416-2.074-1.172-2.828      c-1.559-1.56-4.096-1.563-5.654,0c-0.758,0.754-1.174,1.758-1.174,2.828h-4c0-2.138,0.834-4.148,2.348-5.66      c3.02-3.022,8.284-3.021,11.309,0.004c1.511,1.508,2.343,3.516,2.343,5.656c0,2.137-0.832,4.145-2.344,5.655l-6.688,6.523      c-0.389,0.391-0.389,1.022,0,1.414c0.391,0.391,1.023,0.391,1.415,0c0.255-0.258,0.293-0.556,0.293-0.711h4      c0,1.336-0.521,2.594-1.465,3.698C21.077,380.952,19.823,381.477,18.486,381.477L18.486,381.477z" /></g></g><g
         id="background"><rect
           id="rect444"
           x="3.221"
           y="391.491"
           fill="none"
           width="30.001"
           height="30.001" /></g><g
         id="paragraph"
         transform="matrix(1.16773,0,0,0.95206239,-2.1228102,21.989934)"><path
           id="path447"
           inkscape:connector-curvature="0"
           fill="#94739D"
           d="M23.909,403.873c-0.005-0.202-0.02-1.224-0.718-2.456     c-0.68-1.234-2.146-2.559-4.455-3.114c-1.441-0.383-1.852-0.932-2.108-1.34c-0.119-0.208-0.177-0.401-0.202-0.524     c-0.01-0.046-0.014-0.081-0.017-0.102c0.069-1.178,0.368-1.253,0.838-1.569c0.243-0.124,0.539-0.202,0.759-0.237     c0.107-0.018,0.199-0.027,0.248-0.031c0.014-0.001,0.026-0.002,0.033-0.002c1.208,0.064,1.281,0.362,1.598,0.839     c0.125,0.243,0.203,0.54,0.239,0.758c0.017,0.11,0.027,0.199,0.031,0.251c0.002,0.025,0.002,0.042,0.002,0.047l0.606-0.021h3.144     c-0.01-0.156,0.013-1.324-0.667-2.714c-0.618-1.4-2.42-2.976-4.958-2.91c-0.157,0.01-1.325-0.014-2.714,0.665     c-1.4,0.62-2.975,2.421-2.911,4.959c0.003,0.202,0.02,1.224,0.715,2.454c0.201,0.363,0.478,0.732,0.816,1.089     c-0.381,0.4-0.681,0.828-0.866,1.244c-0.678,1.39-0.657,2.558-0.666,2.714c0.003,0.201,0.02,1.223,0.716,2.454     c0.682,1.233,2.147,2.559,4.453,3.113c1.443,0.383,1.853,0.933,2.109,1.339c0.119,0.209,0.177,0.404,0.204,0.525     c0.008,0.042,0.015,0.076,0.015,0.099c-0.065,1.183-0.365,1.257-0.835,1.575c-0.245,0.125-0.542,0.201-0.759,0.235     c-0.11,0.021-0.199,0.029-0.251,0.032c-0.02,0.001-0.035,0.002-0.043,0.003c-1.196-0.069-1.27-0.364-1.588-0.839     c-0.124-0.243-0.202-0.541-0.237-0.76c-0.02-0.109-0.027-0.199-0.031-0.249c-0.003-0.024-0.003-0.038-0.003-0.046v-0.004     l-0.625,0.023h-3.125c0.01,0.154-0.012,1.322,0.666,2.714c0.607,1.37,2.348,2.911,4.807,2.911c0.05,0,0.1,0,0.154-0.001     c0.156-0.01,1.325,0.013,2.711-0.667c1.4-0.617,2.979-2.421,2.912-4.957c-0.003-0.204-0.02-1.227-0.714-2.457     c-0.201-0.363-0.478-0.731-0.815-1.088c0.381-0.4,0.681-0.829,0.864-1.244C23.922,405.196,23.898,404.03,23.909,403.873     L23.909,403.873z M16.631,404.467c-0.122-0.209-0.177-0.401-0.205-0.525c-0.009-0.042-0.014-0.075-0.017-0.097     c0.012-0.169,0.095-0.727,0.317-1.099c0.285-0.385,0.403-0.648,1.34-0.731c1.24,0.379,1.628,0.884,1.87,1.266     c0.119,0.21,0.178,0.402,0.204,0.525c0.009,0.044,0.016,0.08,0.017,0.099c-0.014,0.174-0.095,0.726-0.316,1.097     c-0.286,0.386-0.405,0.648-1.346,0.729C17.258,405.354,16.871,404.847,16.631,404.467L16.631,404.467z" /></g></g></g></svg>