<?xml version="1.0" encoding="utf-8"?>
<!-- Generator: Adobe Illustrator 16.0.0, SVG Export Plug-In . SVG Version: 6.00 Build 0)  -->
<!DOCTYPE svg PUBLIC "-//W3C//DTD SVG 1.1//EN" "http://www.w3.org/Graphics/SVG/1.1/DTD/svg11.dtd">
<svg version="1.1"
	 id="svg2" xmlns:dc="http://purl.org/dc/elements/1.1/" xmlns:cc="http://creativecommons.org/ns#" xmlns:rdf="http://www.w3.org/1999/02/22-rdf-syntax-ns#" xmlns:svg="http://www.w3.org/2000/svg" xmlns:sodipodi="http://sodipodi.sourceforge.net/DTD/sodipodi-0.dtd" xmlns:inkscape="http://www.inkscape.org/namespaces/inkscape" sodipodi:docname="buttons.svg" inkscape:version="0.48.4 r9939"
	 xmlns="http://www.w3.org/2000/svg" xmlns:xlink="http://www.w3.org/1999/xlink" x="0px" y="0px" width="20px" height="220px"
	 viewBox="0 0 20 220" enable-background="new 0 0 20 220" xml:space="preserve">
<sodipodi:namedview  inkscape:cy="90.68646" inkscape:cx="-53.031306" inkscape:zoom="1.9243043" showgrid="false" guidetolerance="10" gridtolerance="10" objecttolerance="10" bordercolor="#666666" pagecolor="#ffffff" borderopacity="1" id="namedview41" fit-margin-right="0" fit-margin-bottom="0" inkscape:current-layer="svg2" inkscape:window-maximized="1" inkscape:window-y="24" inkscape:window-x="39" inkscape:window-height="1056" inkscape:window-width="1881" inkscape:pageshadow="2" inkscape:pageopacity="0" fit-margin-left="0" fit-margin-top="0" inkscape:object-nodes="true">
	</sodipodi:namedview>
<path id="path3854" sodipodi:rx="19.227728" sodipodi:cx="-264.51117" sodipodi:ry="19.227728" sodipodi:type="arc" sodipodi:cy="138.36406" fill="#94739D" d="
	M20,10c0.004,5.523-4.47,10.003-9.993,10.007C4.484,20.012,0.004,15.538,0,10.015C0,10.01,0,10.005,0,10C0,4.477,4.477,0,10,0
	C15.523,0,20,4.477,20,10z"/>
<text transform="matrix(1 0 0 1 6.4385 17.9409)" fill="#E0DCD8" font-family="'Arial-BoldItalicMT'" font-size="22.1185">i</text>
<path id="path2993" sodipodi:rx="19.227728" sodipodi:cx="-264.51117" sodipodi:ry="19.227728" sodipodi:type="arc" sodipodi:cy="138.36406" fill="#E0DCD8" d="
	M20,50c0.004,5.523-4.47,10.003-9.993,10.008C4.484,60.012,0.004,55.538,0,50.015C0,50.01,0,50.005,0,50c0-5.522,4.477-10,10-10
	C15.523,40,20,44.478,20,50z"/>
<path id="rect3002" inkscape:connector-curvature="0" fill="#94739D" d="M5.875,44.125c-0.448,0-0.875,0.188-1.219,0.531
	c-0.687,0.687-0.687,1.782,0,2.469L7.531,50l-2.875,2.875c-0.687,0.687-0.687,1.782,0,2.469s1.782,0.687,2.469,0L10,52.469
	l2.875,2.875c0.688,0.687,1.781,0.687,2.469,0s0.688-1.782,0-2.469L12.469,50l2.875-2.875c0.688-0.687,0.688-1.782,0-2.469
	s-1.781-0.687-2.469,0L10,47.531l-2.875-2.875C6.781,44.313,6.323,44.125,5.875,44.125z"/>
<path id="path3004" sodipodi:rx="19.227728" sodipodi:cx="-264.51117" sodipodi:ry="19.227728" sodipodi:type="arc" sodipodi:cy="138.36406" fill="#94739D" d="
	M20,90c0.004,5.523-4.47,10.003-9.993,10.007C4.484,100.012,0.004,95.538,0,90.015C0,90.01,0,90.005,0,90c0-5.523,4.477-10,10-10
	C15.523,80,20,84.478,20,90z"/>
<path id="path3006" inkscape:connector-curvature="0" fill="#E0DCD8" d="M5.875,84.125c-0.448,0-0.875,0.188-1.219,0.531
	c-0.687,0.687-0.687,1.782,0,2.469L7.531,90l-2.875,2.875c-0.687,0.687-0.687,1.782,0,2.469s1.782,0.687,2.469,0L10,92.469
	l2.875,2.875c0.688,0.687,1.781,0.687,2.469,0s0.688-1.782,0-2.469L12.469,90l2.875-2.875c0.688-0.687,0.688-1.782,0-2.469
	s-1.781-0.687-2.469,0L10,87.531l-2.875-2.875C6.781,84.313,6.323,84.125,5.875,84.125z"/>
<path id="path2998" sodipodi:rx="19.227728" sodipodi:cx="-264.51117" sodipodi:ry="19.227728" sodipodi:type="arc" sodipodi:cy="138.36406" fill="#E0DCD8" d="
	M20,130c0.004,5.523-4.47,10.004-9.993,10.008S0.004,135.539,0,130.016c0-0.006,0-0.011,0-0.016c0-5.523,4.477-10,10-10
	C15.523,120,20,124.477,20,130z"/>
<path id="path3002" sodipodi:nodetypes="ccc" inkscape:connector-curvature="0" fill="none" stroke="#94739D" stroke-width="3.5" stroke-linecap="round" stroke-linejoin="round" d="
	M4.87,128.95l2.187,5.477l8.075-8.851"/>
<path id="path3789" sodipodi:rx="19.227728" sodipodi:cx="-264.51117" sodipodi:ry="19.227728" sodipodi:type="arc" sodipodi:cy="138.36406" fill="#94739D" d="
	M20,170c0.004,5.523-4.47,10.004-9.993,10.008S0.004,175.539,0,170.016c0-0.006,0-0.01,0-0.016c0-5.522,4.477-10,10-10
	C15.523,160,20,164.478,20,170z"/>
<path id="path3791" sodipodi:nodetypes="ccc" inkscape:connector-curvature="0" fill="none" stroke="#E0DCD8" stroke-width="3.5" stroke-linecap="round" stroke-linejoin="round" d="
	M4.87,168.95l2.187,5.477l8.075-8.851"/>
<path id="path2992" sodipodi:rx="19.227728" sodipodi:cx="-264.51117" sodipodi:ry="19.227728" sodipodi:type="arc" sodipodi:cy="138.36406" fill="#94739D" d="
	M20,210c0.004,5.523-4.47,10.004-9.993,10.008S0.004,215.539,0,210.016c0-0.006,0-0.01,0-0.016c0-5.522,4.477-10,10-10
	C15.523,200,20,204.478,20,210z"/>
<g id="g3766" transform="translate(0.52304213,-0.56695947)">
	
		<path id="path2994" sodipodi:nodetypes="cc" inkscape:connector-curvature="0" fill="none" stroke="#E0DCD8" stroke-width="3.5" stroke-linecap="round" stroke-linejoin="round" d="
		M12.222,213.41l2.362,2.345"/>
	
		<path id="path2996" sodipodi:rx="3.2152836" sodipodi:cx="7.0736241" sodipodi:ry="3.2152836" sodipodi:type="arc" sodipodi:cy="208.93835" fill="none" stroke="#E0DCD8" stroke-width="1.4301" d="
		M13.413,209.122c0,2.893-2.345,5.236-5.236,5.236c-2.892,0-5.236-2.344-5.236-5.236s2.344-5.236,5.236-5.236
		C11.068,203.886,13.413,206.23,13.413,209.122z"/>
</g>
</svg>
