<?xml version="1.0" encoding="utf-8"?>
<!-- Generator: Adobe Illustrator 16.0.0, SVG Export Plug-In . SVG Version: 6.00 Build 0)  -->
<!DOCTYPE svg PUBLIC "-//W3C//DTD SVG 1.1//EN" "http://www.w3.org/Graphics/SVG/1.1/DTD/svg11.dtd">
<svg version="1.1" id="Calque_1" xmlns="http://www.w3.org/2000/svg" xmlns:xlink="http://www.w3.org/1999/xlink" x="0px" y="0px"
	 width="120px" height="1236.5px" viewBox="0 0 120 1236.5" enable-background="new 0 0 120 1236.5" xml:space="preserve">
<g id="Ico">
	<g id="Grain_de_contenu">
		<path fill="#94739D" d="M64.475,5.623c2.129,2.405,3.406,10.181,6,9c1.332-2.666,2.666-5.334,4-8c0.334,0,0.666,0,1,0
			c0.334,3.666,0.666,7.334,1,11c3-2.333,6-4.667,9-7c-0.334,3.333-0.666,6.667-1,10c3-2,6-4,9-6c-0.666,3.666-1.334,7.334-2,11
			c3.332-1.666,6.666-3.334,10-5c-1.334,3.333-2.668,6.667-4,10c3.332-0.666,6.666-1.334,10-2c0,0.334,0,0.667,0,1
			c-1.666,2.666-3.334,5.334-5,8c3.666-0.333,7.334-0.666,11-1c-2.334,2.666-4.668,5.334-7,8c0.666,0,1.334,0,2,0
			c2.666,0.334,5.334,0.667,8,1c-2.666,2-5.334,4-8,6c0.334,0.666,0.666,1.334,1,2c3,0.666,6,1.334,9,2c0,0.334,0,0.667,0,1
			c-3,1.333-6,2.667-9,4c0,0.334,0,0.667,0,1c2.666,1.333,5.334,2.667,8,4c0,0.334,0,0.667,0,1c-3,0.666-6,1.334-9,2
			c0.334,0.666,0.666,1.334,1,2c2.332,1.666,4.666,3.334,7,5c-3.334,0.334-6.668,0.667-10,1c2.332,2.666,4.666,5.334,7,8
			c-3.666,0-7.334,0-11,0c1.666,2.666,3.334,5.334,5,8c-3.334-0.666-6.668-1.334-10-2c1.332,3.333,2.666,6.667,4,10
			c-3.334-1.333-6.668-2.667-10-4c0.666,3.333,1.334,6.667,2,10c-3-2-6-4-9-6c0,3.333,0,6.667,0,10c-2.666-2.333-5.334-4.667-8-7
			c-0.334,3.666-0.666,7.334-1,11c-0.666-0.333-1.334-0.666-2-1c-1.666-2.666-3.334-5.334-5-8c0,0.666,0,1.334,0,2
			c-1,2.666-2,5.334-3,8c-0.334,0-0.668,0-1,0c-1.334-3-2.668-6-4-9c-0.333,0-0.667,0-1,0c-1.333,2.666-2.667,5.334-4,8
			c-0.333,0-0.667,0-1,0c-0.667-3.333-1.333-6.667-2-10c-0.667,0.334-1.333,0.667-2,1c-1.497,3.633-2.642,5.188-6,7
			c0-3.333,0-6.667,0-10c-2.999,2-6.001,4-9,6c0.667-3.666,1.333-7.334,2-11c-3.333,2-6.667,4-10,6c1-3,2-6,3-9
			c-3.333,0.666-6.667,1.334-10,2c1.667-3.333,3.333-6.667,5-10c-3.667,0.666-7.333,1.334-11,2c0.667-0.666,1.333-1.334,2-2
			c1.667-2.333,3.333-4.667,5-7c-3.667,0-7.333,0-11,0c1-1.333,2-2.667,3-4c1.667-1.333,3.333-2.667,5-4
			c-3.667-0.333-7.333-0.666-11-1c0.333-0.666,0.667-1.334,1-2c2.667-1.666,5.333-3.334,8-5c-3.333-1.333-6.667-2.667-10-4
			c3.333-1,6.667-2,10-3c-2.999-2.333-6.001-4.667-9-7c3.667-0.333,7.333-0.666,11-1c-1.333-1.666-2.667-3.334-4-5
			c-1.333-1-2.667-2-4-3c3.667,0,7.333,0,11,0c-1-1-2-2-3-3c-1.333-2-2.667-4-4-6c3.667,0.666,7.333,1.334,11,2
			c-1.667-3.333-3.333-6.667-5-10c3.667,1.333,7.333,2.667,11,4c-0.667-3.333-1.333-6.667-2-10c2.667,1.666,5.333,3.334,8,5
			c-0.333-3.666-0.667-7.334-1-11c2.333,2.333,4.667,4.667,7,7c0.667-0.333,1.333-0.666,2-1c0.333-3.333,0.667-6.667,1-10
			c1.587,3.769,3.481,6.127,7,8c0.667-3,1.333-6,2-9c0.333,0.666,0.667,1.334,1,2c1.333,2.333,2.667,4.667,4,7c0.333,0,0.667,0,1,0
			C62.475,12.29,63.475,8.956,64.475,5.623z"/>
		<g>
			<polygon fill="#B95A59" points="41.728,35.328 43.147,34.317 43.885,35.595 			"/>
			<path fill="#FFFFFF" d="M94.372,81.699c0,2.027-1.675,3.632-3.739,3.632H34.418c-2.066,0-3.843-1.604-3.843-3.632V41.866
				c0-2.028,1.776-3.744,3.843-3.744h56.214c2.065,0,3.739,1.716,3.739,3.744L94.372,81.699L94.372,81.699z"/>
			<rect x="33.269" y="35.287" fill="#F7F7F7" width="27.22" height="43.097"/>
			<path fill="#C6C5C4" d="M62.544,80.312c0.255-0.959,1.063-1.688,2.056-1.823v-0.104h-4.11v0.104
				C61.48,78.622,62.29,79.353,62.544,80.312z"/>
			
				<linearGradient id="SVGID_1_" gradientUnits="userSpaceOnUse" x1="663.1777" y1="-355.4119" x2="667.29" y2="-355.4119" gradientTransform="matrix(1 0 0 -1 -602.6904 -297.5796)">
				<stop  offset="0" style="stop-color:#EFEFEF"/>
				<stop  offset="1" style="stop-color:#E6E6E6"/>
			</linearGradient>
			<path fill="url(#SVGID_1_)" d="M64.6,35.354v43.134c-0.992,0.137-1.799,0.864-2.056,1.823c-0.256-0.959-1.063-1.688-2.056-1.823
				V35.354c1.134,0.129,1.815,0.835,2.056,1.769C62.786,36.188,63.607,35.482,64.6,35.354z"/>
			<polygon fill="#EFEFEF" points="85.157,71.05 64.316,78.296 64.316,35.497 85.157,28.251 			"/>
			<rect x="33.269" y="78.384" fill="#D1D0CF" width="58.551" height="3.687"/>
			<rect x="33.269" y="35.287" fill="#F7F7F7" width="27.22" height="43.097"/>
			<rect x="64.6" y="35.287" fill="#F4F4F4" width="27.221" height="43.097"/>
			
				<linearGradient id="SVGID_2_" gradientUnits="userSpaceOnUse" x1="663.1777" y1="-355.4119" x2="667.29" y2="-355.4119" gradientTransform="matrix(1 0 0 -1 -602.6904 -297.5796)">
				<stop  offset="0" style="stop-color:#EFEFEF"/>
				<stop  offset="1" style="stop-color:#E6E6E6"/>
			</linearGradient>
			<path fill="url(#SVGID_2_)" d="M64.6,35.354v43.134c-0.992,0.137-1.799,0.864-2.056,1.823c-0.256-0.959-1.063-1.688-2.056-1.823
				V35.354c1.134,0.129,1.815,0.835,2.056,1.769C62.786,36.188,63.607,35.482,64.6,35.354z"/>
			<polygon fill="#F4F4F4" points="64.863,35.328 64.715,35.38 64.715,35.328 			"/>
			<path fill="#F4F4F4" d="M91.82,35.287v3.103c-0.426-0.128-0.764-0.268-1.188-0.268h-5.476v-2.835H91.82z"/>
			<polygon fill="#E0E2E0" points="85.157,71.13 64.316,78.407 64.316,35.417 85.157,28.139 			"/>
			<polygon fill="#FD7400" points="40.712,66.562 43.051,68.508 43.051,34.294 38.373,34.294 38.373,68.506 			"/>
		</g>
	</g>
	<g id="Question_de_synthèse">
		<path fill="#94739D" d="M62.488,879.029c2.13,2.405,3.408,10.181,6,9c1.334-2.666,2.668-5.334,4-8c0.334,0,0.666,0,1,0
			c0.334,3.666,0.666,7.334,1,11c3-2.333,6-4.667,9-7c-0.334,3.333-0.666,6.667-1,10c3-2,6-4,9-6c-0.666,3.666-1.334,7.334-2,11
			c3.334-1.666,6.668-3.334,10-5c-1.332,3.333-2.666,6.667-4,10c3.334-0.666,6.668-1.334,10-2c0,0.334,0,0.667,0,1
			c-1.666,2.666-3.334,5.334-5,8c3.666-0.333,7.334-0.666,11-1c-2.332,2.666-4.666,5.334-7,8c0.666,0,1.334,0,2,0
			c2.666,0.334,5.334,0.667,8,1c-2.666,2-5.334,4-8,6c0.334,0.666,0.666,1.334,1,2c3,0.666,6,1.334,9,2c0,0.334,0,0.667,0,1
			c-3,1.333-6,2.667-9,4c0,0.334,0,0.667,0,1c2.666,1.333,5.334,2.667,8,4c0,0.334,0,0.667,0,1c-3,0.666-6,1.334-9,2
			c0.334,0.666,0.666,1.334,1,2c2.334,1.666,4.668,3.334,7,5c-3.332,0.334-6.666,0.667-10,1c2.334,2.666,4.668,5.334,7,8
			c-3.666,0-7.334,0-11,0c1.666,2.666,3.334,5.334,5,8c-3.332-0.666-6.666-1.334-10-2c1.334,3.333,2.668,6.667,4,10
			c-3.332-1.333-6.666-2.667-10-4c0.666,3.333,1.334,6.667,2,10c-3-2-6-4-9-6c0,3.333,0,6.667,0,10c-2.666-2.333-5.334-4.667-8-7
			c-0.334,3.666-0.666,7.334-1,11c-0.666-0.333-1.334-0.666-2-1c-1.666-2.666-3.334-5.334-5-8c0,0.666,0,1.334,0,2
			c-1,2.666-2,5.334-3,8c-0.334,0-0.666,0-1,0c-1.332-3-2.667-6-4-9c-0.333,0-0.667,0-1,0c-1.333,2.666-2.667,5.334-4,8
			c-0.333,0-0.667,0-1,0c-0.667-3.333-1.333-6.667-2-10c-0.667,0.334-1.333,0.667-2,1c-1.497,3.633-2.642,5.188-6,7
			c0-3.333,0-6.667,0-10c-2.999,2-6.001,4-9,6c0.667-3.666,1.333-7.334,2-11c-3.333,2-6.667,4-10,6c1-3,2-6,3-9
			c-3.333,0.666-6.667,1.334-10,2c1.667-3.333,3.333-6.667,5-10c-3.667,0.666-7.333,1.334-11,2c0.667-0.666,1.333-1.334,2-2
			c1.667-2.333,3.333-4.667,5-7c-3.667,0-7.333,0-11,0c1-1.333,2-2.667,3-4c1.667-1.333,3.333-2.667,5-4
			c-3.667-0.333-7.333-0.666-11-1c0.333-0.666,0.667-1.334,1-2c2.667-1.666,5.333-3.334,8-5c-3.333-1.333-6.667-2.667-10-4
			c3.333-1,6.667-2,10-3c-2.999-2.333-6.001-4.667-9-7c3.667-0.333,7.333-0.666,11-1c-1.333-1.666-2.667-3.334-4-5
			c-1.333-1-2.667-2-4-3c3.667,0,7.333,0,11,0c-1-1-2-2-3-3c-1.333-2-2.667-4-4-6c3.667,0.666,7.333,1.334,11,2
			c-1.667-3.333-3.333-6.667-5-10c3.667,1.333,7.333,2.667,11,4c-0.667-3.333-1.333-6.667-2-10c2.667,1.666,5.333,3.334,8,5
			c-0.333-3.666-0.667-7.334-1-11c2.333,2.333,4.667,4.667,7,7c0.667-0.333,1.333-0.666,2-1c0.333-3.333,0.667-6.667,1-10
			c1.587,3.77,3.481,6.127,7,8c0.667-3,1.333-6,2-9c0.333,0.666,0.667,1.334,1,2c1.333,2.333,2.667,4.667,4,7c0.333,0,0.667,0,1,0
			C60.489,885.696,61.488,882.362,62.488,879.029z"/>
		<g>
			<path fill="#FD7400" d="M94.555,915.218v27.758c0,2.237-1.785,3.971-4.021,3.971H88.5v8.052l-6.816-8.052H45.841
				c-2.238,0-4.271-1.731-4.271-3.971v-27.758c0-2.237,2.034-4.191,4.271-4.191h44.691C92.77,911.025,94.555,912.979,94.555,915.218
				z"/>
			<circle fill="#ABB7B7" cx="70.836" cy="930.312" r="5.406"/>
			<circle fill="#ABB7B7" cx="56.669" cy="930.312" r="5.406"/>
			<polygon fill="#2ABBB3" points="47.171,948.734 36.202,963.033 36.202,948.734 			"/>
			<path opacity="0.3" fill="#292826" enable-background="new    " d="M88.5,954.995v-8.051h2.033c2.236,0,4.021-1.731,4.021-3.971
				v-12.189l-12.539-14.76l-4.48,30.92h4.146L88.5,954.995z"/>
			<path fill="#2ABBB3" d="M82.857,948.918c0,2.405-1.951,4.357-4.358,4.357H34.78c-2.407,0-4.358-1.952-4.358-4.357v-30.369
				c0-2.407,1.951-4.357,4.358-4.357h43.719c2.407,0,4.358,1.95,4.358,4.357V948.918z"/>
			<circle opacity="0.8" fill="#FFFFFF" enable-background="new    " cx="56.673" cy="933.757" r="5.406"/>
			<circle opacity="0.8" fill="#FFFFFF" enable-background="new    " cx="70.84" cy="933.757" r="5.406"/>
			<circle opacity="0.8" fill="#FFFFFF" enable-background="new    " cx="42.506" cy="933.757" r="5.406"/>
		</g>
	</g>
	<g id="Division">
		<path fill="#94739D" d="M62.488,754.257c2.13,2.405,3.408,10.181,6,9c1.334-2.666,2.668-5.334,4-8c0.334,0,0.666,0,1,0
			c0.334,3.666,0.666,7.334,1,11c3-2.333,6-4.667,9-7c-0.334,3.333-0.666,6.667-1,10c3-2,6-4,9-6c-0.666,3.666-1.334,7.334-2,11
			c3.334-1.666,6.668-3.334,10-5c-1.332,3.333-2.666,6.667-4,10c3.334-0.666,6.668-1.334,10-2c0,0.334,0,0.667,0,1
			c-1.666,2.666-3.334,5.334-5,8c3.666-0.333,7.334-0.666,11-1c-2.332,2.666-4.666,5.334-7,8c0.666,0,1.334,0,2,0
			c2.666,0.334,5.334,0.667,8,1c-2.666,2-5.334,4-8,6c0.334,0.666,0.666,1.334,1,2c3,0.666,6,1.334,9,2c0,0.334,0,0.667,0,1
			c-3,1.333-6,2.667-9,4c0,0.334,0,0.667,0,1c2.666,1.333,5.334,2.667,8,4c0,0.334,0,0.667,0,1c-3,0.666-6,1.334-9,2
			c0.334,0.666,0.666,1.334,1,2c2.334,1.666,4.668,3.334,7,5c-3.332,0.334-6.666,0.667-10,1c2.334,2.666,4.668,5.334,7,8
			c-3.666,0-7.334,0-11,0c1.666,2.666,3.334,5.334,5,8c-3.332-0.666-6.666-1.334-10-2c1.334,3.333,2.668,6.667,4,10
			c-3.332-1.333-6.666-2.667-10-4c0.666,3.333,1.334,6.667,2,10c-3-2-6-4-9-6c0,3.333,0,6.667,0,10c-2.666-2.333-5.334-4.667-8-7
			c-0.334,3.666-0.666,7.334-1,11c-0.666-0.333-1.334-0.666-2-1c-1.666-2.666-3.334-5.334-5-8c0,0.666,0,1.334,0,2
			c-1,2.666-2,5.334-3,8c-0.334,0-0.666,0-1,0c-1.332-3-2.667-6-4-9c-0.333,0-0.667,0-1,0c-1.333,2.666-2.667,5.334-4,8
			c-0.333,0-0.667,0-1,0c-0.667-3.333-1.333-6.667-2-10c-0.667,0.334-1.333,0.667-2,1c-1.497,3.633-2.642,5.188-6,7
			c0-3.333,0-6.667,0-10c-2.999,2-6.001,4-9,6c0.667-3.666,1.333-7.334,2-11c-3.333,2-6.667,4-10,6c1-3,2-6,3-9
			c-3.333,0.666-6.667,1.334-10,2c1.667-3.333,3.333-6.667,5-10c-3.667,0.666-7.333,1.334-11,2c0.667-0.666,1.333-1.334,2-2
			c1.667-2.333,3.333-4.667,5-7c-3.667,0-7.333,0-11,0c1-1.333,2-2.667,3-4c1.667-1.333,3.333-2.667,5-4
			c-3.667-0.333-7.333-0.666-11-1c0.333-0.666,0.667-1.334,1-2c2.667-1.666,5.333-3.334,8-5c-3.333-1.333-6.667-2.667-10-4
			c3.333-1,6.667-2,10-3c-2.999-2.333-6.001-4.667-9-7c3.667-0.333,7.333-0.666,11-1c-1.333-1.666-2.667-3.334-4-5
			c-1.333-1-2.667-2-4-3c3.667,0,7.333,0,11,0c-1-1-2-2-3-3c-1.333-2-2.667-4-4-6c3.667,0.666,7.333,1.334,11,2
			c-1.667-3.333-3.333-6.667-5-10c3.667,1.333,7.333,2.667,11,4c-0.667-3.333-1.333-6.667-2-10c2.667,1.666,5.333,3.334,8,5
			c-0.333-3.666-0.667-7.334-1-11c2.333,2.333,4.667,4.667,7,7c0.667-0.333,1.333-0.666,2-1c0.333-3.333,0.667-6.667,1-10
			c1.587,3.77,3.481,6.127,7,8c0.667-3,1.333-6,2-9c0.333,0.666,0.667,1.334,1,2c1.333,2.333,2.667,4.667,4,7c0.333,0,0.667,0,1,0
			C60.489,760.924,61.488,757.59,62.488,754.257z"/>
		<g>
			<path fill="#C5C9C7" d="M33.341,835.979v-21.414c0-2.5,1.875-4.526,4.175-4.526l52.22-7.103c2.302,0,4.17,2.011,4.17,4.511
				l-1.854,28.533L33.341,835.979L33.341,835.979z"/>
			<path fill="#E3E5E4" d="M91.852,836.015v-43.838l-13.348-13.349H35.601c-2.374,0-4.298,1.925-4.298,4.299v52.888H91.852
				L91.852,836.015z"/>
			<rect x="36.409" y="784.513" fill="#F67876" width="44.354" height="5.857"/>
			<path fill="#F0F0F0" d="M82.672,792.097h9.18l-13.27-13.269v9.181C78.583,790.416,80.266,792.097,82.672,792.097z"/>
			<rect x="36.409" y="795.813" fill="#63BCB8" width="17.435" height="19.246"/>
			<rect x="57.75" y="795.813" fill="#ABB7B7" width="29.43" height="3.485"/>
			<rect x="57.75" y="800.972" fill="#ABB7B7" width="29.43" height="3.626"/>
			<rect x="57.75" y="806.271" fill="#ABB7B7" width="29.43" height="3.486"/>
			<rect x="57.75" y="811.433" fill="#ABB7B7" width="17.854" height="3.626"/>
			<path fill="#E3E5E4" d="M52.606,804.284c0-2.245-1.206-4.23-3.006-5.3l-3.093,5.334h6.097
				C52.604,804.319,52.606,804.313,52.606,804.284z"/>
			<path fill="#E3E5E4" d="M44.382,805.714l3.093-5.354c-0.916-0.543-1.983-0.854-3.125-0.854c-3.386,0-6.132,2.747-6.132,6.134
				s2.746,6.128,6.132,6.128c3.359,0,6.086-2.706,6.13-6.054H44.382L44.382,805.714z"/>
			<rect x="36.409" y="817.709" fill="#939999" width="50.771" height="3.486"/>
			<rect x="36.409" y="822.868" fill="#ABB7B7" width="27.198" height="3.626"/>
			<rect x="36.409" y="828.17" fill="#ABB7B7" width="27.198" height="3.485"/>
			<rect x="36.409" y="833.33" fill="#ABB7B7" width="50.771" height="2.647"/>
		</g>
	</g>
	<g id="Activité_d_x27_auto-évaluation">
		<path fill="#94739D" d="M62.488,379.94c2.13,2.406,3.408,10.181,6,9c1.334-2.666,2.668-5.334,4-8c0.334,0,0.666,0,1,0
			c0.334,3.666,0.666,7.334,1,11c3-2.333,6-4.667,9-7c-0.334,3.333-0.666,6.667-1,10c3-2,6-4,9-6c-0.666,3.666-1.334,7.334-2,11
			c3.334-1.666,6.668-3.334,10-5c-1.332,3.333-2.666,6.667-4,10c3.334-0.666,6.668-1.334,10-2c0,0.334,0,0.667,0,1
			c-1.666,2.666-3.334,5.334-5,8c3.666-0.333,7.334-0.666,11-1c-2.332,2.666-4.666,5.334-7,8c0.666,0,1.334,0,2,0
			c2.666,0.334,5.334,0.667,8,1c-2.666,2-5.334,4-8,6c0.334,0.666,0.666,1.334,1,2c3,0.666,6,1.334,9,2c0,0.334,0,0.667,0,1
			c-3,1.333-6,2.667-9,4c0,0.334,0,0.667,0,1c2.666,1.333,5.334,2.667,8,4c0,0.334,0,0.667,0,1c-3,0.666-6,1.334-9,2
			c0.334,0.666,0.666,1.334,1,2c2.334,1.666,4.668,3.334,7,5c-3.332,0.334-6.666,0.667-10,1c2.334,2.666,4.668,5.334,7,8
			c-3.666,0-7.334,0-11,0c1.666,2.666,3.334,5.334,5,8c-3.332-0.666-6.666-1.334-10-2c1.334,3.333,2.668,6.667,4,10
			c-3.332-1.333-6.666-2.667-10-4c0.666,3.333,1.334,6.667,2,10c-3-2-6-4-9-6c0,3.333,0,6.667,0,10c-2.666-2.333-5.334-4.667-8-7
			c-0.334,3.666-0.666,7.334-1,11c-0.666-0.333-1.334-0.666-2-1c-1.666-2.666-3.334-5.334-5-8c0,0.666,0,1.334,0,2
			c-1,2.666-2,5.334-3,8c-0.334,0-0.666,0-1,0c-1.332-3-2.667-6-4-9c-0.333,0-0.667,0-1,0c-1.333,2.666-2.667,5.334-4,8
			c-0.333,0-0.667,0-1,0c-0.667-3.333-1.333-6.667-2-10c-0.667,0.334-1.333,0.667-2,1c-1.497,3.633-2.642,5.188-6,7
			c0-3.333,0-6.667,0-10c-2.999,2-6.001,4-9,6c0.667-3.666,1.333-7.334,2-11c-3.333,2-6.667,4-10,6c1-3,2-6,3-9
			c-3.333,0.666-6.667,1.334-10,2c1.667-3.333,3.333-6.667,5-10c-3.667,0.666-7.333,1.334-11,2c0.667-0.666,1.333-1.334,2-2
			c1.667-2.333,3.333-4.667,5-7c-3.667,0-7.333,0-11,0c1-1.333,2-2.667,3-4c1.667-1.333,3.333-2.667,5-4
			c-3.667-0.333-7.333-0.666-11-1c0.333-0.666,0.667-1.334,1-2c2.667-1.666,5.333-3.334,8-5c-3.333-1.333-6.667-2.667-10-4
			c3.333-1,6.667-2,10-3c-2.999-2.333-6.001-4.667-9-7c3.667-0.333,7.333-0.666,11-1c-1.333-1.666-2.667-3.334-4-5
			c-1.333-1-2.667-2-4-3c3.667,0,7.333,0,11,0c-1-1-2-2-3-3c-1.333-2-2.667-4-4-6c3.667,0.666,7.333,1.334,11,2
			c-1.667-3.333-3.333-6.667-5-10c3.667,1.333,7.333,2.667,11,4c-0.667-3.333-1.333-6.667-2-10c2.667,1.666,5.333,3.334,8,5
			c-0.333-3.666-0.667-7.334-1-11c2.333,2.333,4.667,4.667,7,7c0.667-0.333,1.333-0.666,2-1c0.333-3.333,0.667-6.667,1-10
			c1.587,3.77,3.481,6.127,7,8c0.667-3,1.333-6,2-9c0.333,0.666,0.667,1.334,1,2c1.333,2.333,2.667,4.667,4,7c0.333,0,0.667,0,1,0
			C60.489,386.607,61.488,383.273,62.488,379.94z"/>
		<g>
			<circle fill="#F4F4F4" cx="61.167" cy="435.035" r="25.51"/>
			<circle opacity="0.1" enable-background="new    " cx="61.718" cy="435.964" r="6.239"/>
			<path fill="#2ABBB3" d="M59.299,431.501L48.468,420.67c-0.591-0.592-1.548-0.592-2.14,0c-0.591,0.591-0.591,1.548,0,2.14
				l10.831,10.831L59.299,431.501z"/>
			<path fill="#2ABBB3" d="M66.16,436.351l10.762-2.713c1.087-0.273,1.758-1.335,1.482-2.423c-0.274-1.087-1.366-1.703-2.454-1.43
				L65.189,432.5L66.16,436.351z"/>
			<circle fill="#FD7400" cx="61.167" cy="435.036" r="2.552"/>
			<path opacity="0.1" fill="#434E52" enable-background="new    " d="M37.073,437.264c0-14.779,11.865-26.763,26.503-26.763
				c6.643,0,12.714,2.469,17.365,6.545c-4.881-5.32-11.881-8.654-19.658-8.654c-14.752,0-26.71,11.994-26.71,26.791
				c0,8.794,4.223,16.599,10.746,21.48C40.241,451.787,37.073,444.9,37.073,437.264z"/>
			<path fill="#2ABBB3" d="M61.167,400.639c-18.945,0-34.303,15.355-34.303,34.302c0,18.943,15.358,34.302,34.303,34.302
				c18.944,0,34.302-15.356,34.302-34.302C95.469,415.994,80.111,400.639,61.167,400.639z M61.167,460.449
				c-14.089,0-25.51-11.421-25.51-25.51s11.42-25.51,25.51-25.51c14.088,0,25.511,11.421,25.511,25.51
				S75.255,460.449,61.167,460.449z"/>
			<circle fill="none" stroke="#3B556C" stroke-width="10" stroke-miterlimit="10" cx="61.167" cy="435.036" r="4.805"/>
			<path fill="#F67876" d="M42.948,446.383l18.302-12.681l1.293,1.864L44.241,448.25c-0.516,0.355-1.222,0.228-1.579-0.287
				C42.305,447.446,42.433,446.74,42.948,446.383z"/>
		</g>
	</g>
	<g id="Objectif">
		<path fill="#94739D" d="M66.316,1003.802c2.129,2.405,3.406,10.182,6,9c1.332-2.666,2.666-5.334,4-8c0.334,0,0.666,0,1,0
			c0.334,3.666,0.666,7.334,1,11c3-2.333,6-4.667,9-7c-0.334,3.333-0.666,6.667-1,10c3-2,6-4,9-6c-0.666,3.666-1.334,7.334-2,11
			c3.332-1.666,6.666-3.334,10-5c-1.334,3.333-2.668,6.667-4,10c3.332-0.666,6.666-1.334,10-2c0,0.334,0,0.667,0,1
			c-1.666,2.666-3.334,5.334-5,8c3.666-0.333,7.334-0.666,11-1c-2.334,2.666-4.668,5.334-7,8c0.666,0,1.334,0,2,0
			c2.666,0.334,5.334,0.667,8,1c-2.666,2-5.334,4-8,6c0.334,0.666,0.666,1.334,1,2c3,0.666,6,1.334,9,2c0,0.334,0,0.667,0,1
			c-3,1.333-6,2.667-9,4c0,0.334,0,0.667,0,1c2.666,1.333,5.334,2.667,8,4c0,0.334,0,0.667,0,1c-3,0.666-6,1.334-9,2
			c0.334,0.666,0.666,1.334,1,2c2.332,1.666,4.666,3.334,7,5c-3.334,0.334-6.668,0.667-10,1c2.332,2.666,4.666,5.334,7,8
			c-3.666,0-7.334,0-11,0c1.666,2.666,3.334,5.334,5,8c-3.334-0.666-6.668-1.334-10-2c1.332,3.333,2.666,6.667,4,10
			c-3.334-1.333-6.668-2.667-10-4c0.666,3.333,1.334,6.667,2,10c-3-2-6-4-9-6c0,3.333,0,6.667,0,10c-2.666-2.333-5.334-4.667-8-7
			c-0.334,3.666-0.666,7.334-1,11c-0.666-0.333-1.334-0.666-2-1c-1.666-2.666-3.334-5.334-5-8c0,0.666,0,1.334,0,2
			c-1,2.666-2,5.334-3,8c-0.334,0-0.668,0-1,0c-1.334-3-2.668-6-4-9c-0.334,0-0.668,0-1,0c-1.333,2.666-2.667,5.334-4,8
			c-0.333,0-0.667,0-1,0c-0.667-3.333-1.333-6.667-2-10c-0.667,0.334-1.333,0.667-2,1c-1.497,3.634-2.642,5.188-6,7
			c0-3.333,0-6.667,0-10c-2.999,2-6.001,4-9,6c0.667-3.666,1.333-7.334,2-11c-3.333,2-6.667,4-10,6c1-3,2-6,3-9
			c-3.333,0.666-6.667,1.334-10,2c1.667-3.333,3.333-6.667,5-10c-3.667,0.666-7.333,1.334-11,2c0.667-0.666,1.333-1.334,2-2
			c1.667-2.333,3.333-4.667,5-7c-3.667,0-7.333,0-11,0c1-1.333,2-2.667,3-4c1.667-1.333,3.333-2.667,5-4
			c-3.667-0.333-7.333-0.666-11-1c0.333-0.666,0.667-1.334,1-2c2.667-1.666,5.333-3.334,8-5c-3.333-1.333-6.667-2.667-10-4
			c3.333-1,6.667-2,10-3c-2.999-2.333-6.001-4.667-9-7c3.667-0.333,7.333-0.666,11-1c-1.333-1.666-2.667-3.334-4-5
			c-1.333-1-2.667-2-4-3c3.667,0,7.333,0,11,0c-1-1-2-2-3-3c-1.333-2-2.667-4-4-6c3.667,0.666,7.333,1.334,11,2
			c-1.667-3.333-3.333-6.667-5-10c3.667,1.333,7.333,2.667,11,4c-0.667-3.333-1.333-6.667-2-10c2.667,1.666,5.333,3.334,8,5
			c-0.333-3.666-0.667-7.334-1-11c2.333,2.333,4.667,4.667,7,7c0.667-0.333,1.333-0.666,2-1c0.333-3.333,0.667-6.667,1-10
			c1.587,3.77,3.481,6.127,7,8c0.667-3,1.333-6,2-9c0.333,0.666,0.667,1.334,1,2c1.333,2.333,2.667,4.667,4,7c0.332,0,0.666,0,1,0
			C64.316,1010.469,65.316,1007.135,66.316,1003.802z"/>
		<circle fill="#F4F4F4" cx="64.994" cy="1058.896" r="25.51"/>
		<circle opacity="0.1" enable-background="new    " cx="65.545" cy="1059.826" r="6.239"/>
		<circle fill="#FD7400" cx="64.994" cy="1058.897" r="2.552"/>
		<path fill="#2ABBB3" d="M64.994,1024.5c-18.945,0-34.303,15.354-34.303,34.302c0,18.943,15.358,34.302,34.303,34.302
			s34.302-15.355,34.302-34.302C99.296,1039.855,83.939,1024.5,64.994,1024.5z M64.994,1084.313
			c-14.089,0-25.51-11.422-25.51-25.511s11.42-25.511,25.51-25.511c14.088,0,25.51,11.422,25.51,25.511
			S79.083,1084.313,64.994,1084.313z"/>
		<path fill="#2ABBB3" d="M64.995,1038.25c-11.351,0-20.553,9.199-20.553,20.552c0,11.352,9.202,20.552,20.553,20.552
			c11.351,0,20.552-9.2,20.552-20.552C85.546,1047.449,76.346,1038.25,64.995,1038.25z M64.995,1074.086
			c-8.442,0-15.284-6.844-15.284-15.284s6.842-15.284,15.284-15.284c8.44,0,15.284,6.844,15.284,15.284
			S73.436,1074.086,64.995,1074.086z"/>
		<circle fill="none" stroke="#3B556C" stroke-width="10" stroke-miterlimit="10" cx="64.994" cy="1058.897" r="4.805"/>
	</g>
	<g id="Exercice_rédactionnel">
		<path fill="#94739D" d="M62.488,504.713c2.13,2.405,3.408,10.18,6,9c1.334-2.666,2.668-5.334,4-8c0.334,0,0.666,0,1,0
			c0.334,3.666,0.666,7.334,1,11c3-2.334,6-4.668,9-7c-0.334,3.332-0.666,6.666-1,10c3-2,6-4,9-6c-0.666,3.666-1.334,7.334-2,11
			c3.334-1.666,6.668-3.334,10-5c-1.332,3.332-2.666,6.666-4,10c3.334-0.666,6.668-1.334,10-2c0,0.334,0,0.666,0,1
			c-1.666,2.666-3.334,5.334-5,8c3.666-0.334,7.334-0.666,11-1c-2.332,2.666-4.666,5.334-7,8c0.666,0,1.334,0,2,0
			c2.666,0.334,5.334,0.666,8,1c-2.666,2-5.334,4-8,6c0.334,0.666,0.666,1.334,1,2c3,0.666,6,1.334,9,2c0,0.334,0,0.666,0,1
			c-3,1.332-6,2.666-9,4c0,0.334,0,0.666,0,1c2.666,1.332,5.334,2.666,8,4c0,0.334,0,0.666,0,1c-3,0.666-6,1.334-9,2
			c0.334,0.666,0.666,1.334,1,2c2.334,1.666,4.668,3.334,7,5c-3.332,0.334-6.666,0.666-10,1c2.334,2.666,4.668,5.334,7,8
			c-3.666,0-7.334,0-11,0c1.666,2.666,3.334,5.334,5,8c-3.332-0.666-6.666-1.334-10-2c1.334,3.332,2.668,6.666,4,10
			c-3.332-1.334-6.666-2.668-10-4c0.666,3.332,1.334,6.666,2,10c-3-2-6-4-9-6c0,3.332,0,6.666,0,10c-2.666-2.334-5.334-4.668-8-7
			c-0.334,3.666-0.666,7.334-1,11c-0.666-0.334-1.334-0.666-2-1c-1.666-2.666-3.334-5.334-5-8c0,0.666,0,1.334,0,2
			c-1,2.666-2,5.334-3,8c-0.334,0-0.666,0-1,0c-1.332-3-2.667-6-4-9c-0.333,0-0.667,0-1,0c-1.333,2.666-2.667,5.334-4,8
			c-0.333,0-0.667,0-1,0c-0.667-3.334-1.333-6.668-2-10c-0.667,0.334-1.333,0.666-2,1c-1.497,3.633-2.642,5.188-6,7
			c0-3.334,0-6.668,0-10c-2.999,2-6.001,4-9,6c0.667-3.666,1.333-7.334,2-11c-3.333,2-6.667,4-10,6c1-3,2-6,3-9
			c-3.333,0.666-6.667,1.334-10,2c1.667-3.334,3.333-6.668,5-10c-3.667,0.666-7.333,1.334-11,2c0.667-0.666,1.333-1.334,2-2
			c1.667-2.334,3.333-4.668,5-7c-3.667,0-7.333,0-11,0c1-1.334,2-2.668,3-4c1.667-1.334,3.333-2.668,5-4
			c-3.667-0.334-7.333-0.666-11-1c0.333-0.666,0.667-1.334,1-2c2.667-1.666,5.333-3.334,8-5c-3.333-1.334-6.667-2.668-10-4
			c3.333-1,6.667-2,10-3c-2.999-2.334-6.001-4.668-9-7c3.667-0.334,7.333-0.666,11-1c-1.333-1.666-2.667-3.334-4-5
			c-1.333-1-2.667-2-4-3c3.667,0,7.333,0,11,0c-1-1-2-2-3-3c-1.333-2-2.667-4-4-6c3.667,0.666,7.333,1.334,11,2
			c-1.667-3.334-3.333-6.668-5-10c3.667,1.332,7.333,2.666,11,4c-0.667-3.334-1.333-6.668-2-10c2.667,1.666,5.333,3.334,8,5
			c-0.333-3.666-0.667-7.334-1-11c2.333,2.332,4.667,4.666,7,7c0.667-0.334,1.333-0.666,2-1c0.333-3.334,0.667-6.668,1-10
			c1.587,3.769,3.481,6.127,7,8c0.667-3,1.333-6,2-9c0.333,0.666,0.667,1.334,1,2c1.333,2.332,2.667,4.666,4,7c0.333,0,0.667,0,1,0
			C60.489,511.379,61.488,508.045,62.488,504.713z"/>
		<g>
			<g>
				<path fill="#E0E2E0" stroke="#231F20" stroke-miterlimit="10" d="M76.541,536.588c0.988,0,1.801,0.813,1.801,1.803v51.646
					c0,0.988-0.813,1.802-1.801,1.802H30.965c-0.99,0-1.801-0.813-1.801-1.802v-58.762c0-0.992,0.811-1.804,1.801-1.804h38.207
					c0.99,0,1.801,0.812,1.801,1.804v3.512c0,0.99,0.813,1.802,1.801,1.802H76.541z"/>
			</g>
			<rect x="35.288" y="534.993" fill="#2ABBB3" width="12.249" height="12.248"/>
			<rect x="49.644" y="535.07" fill="#F67876" width="17.938" height="1.515"/>
			<rect x="49.661" y="539.141" fill="#F67876" width="21.392" height="1.515"/>
			<rect x="49.661" y="542.688" fill="#F67876" width="21.392" height="1.515"/>
			<rect x="49.813" y="545.902" fill="#F67876" width="21.464" height="1.69"/>
			<rect x="34.35" y="556.409" fill="#231F20" width="39.179" height="1.69"/>
			<rect x="34.501" y="560.463" fill="#231F20" width="39.179" height="1.69"/>
			<rect x="34.501" y="564.516" fill="#231F20" width="39.179" height="1.69"/>
			<rect x="34.652" y="584.031" fill="#231F20" width="39.179" height="1.688"/>
			<polygon fill="#FFFFFF" points="63.75,568.09 60.401,568.842 57.333,573.805 57.333,578.174 62.525,579.09 67.572,576.008 
				68.365,571.674 67.093,569.531 63.832,568.424 			"/>
			<polygon fill="#2ABBB3" points="83.631,547.241 65.62,565.361 71.053,571.596 90.037,552.18 101.204,540.654 95.529,535.07 			
				"/>
			<path fill="#231F20" d="M78.465,536.495c0.594,0.576,0.799,1.328,0.461,1.683l0,0c-0.338,0.351-1.098,0.164-1.691-0.41
				l-7.067-6.858c-0.597-0.575-0.804-1.327-0.462-1.678l0,0c0.339-0.353,1.1-0.169,1.691,0.407L78.465,536.495z"/>
			<g>
				<path d="M55.577,580.77v-1.004c0-0.303,0.043-7.481,3.791-11.192c1.129-1.119,2.623-1.733,4.207-1.733s3.073,0.616,4.194,1.735
					c1.125,1.125,1.741,2.621,1.741,4.211c-0.003,1.586-0.62,3.076-1.743,4.192c-3.732,3.722-10.887,3.787-11.188,3.787
					L55.577,580.77z M63.575,568.838c-1.054,0-2.048,0.409-2.8,1.153c-2.39,2.365-2.993,6.72-3.146,8.72
					c1.998-0.158,6.344-0.773,8.729-3.148c0.742-0.737,1.152-1.727,1.154-2.776c0-1.058-0.41-2.049-1.156-2.795
					C65.613,569.245,64.625,568.838,63.575,568.838z"/>
			</g>
			<g>
				<path d="M56.577,580.766c-0.256,0-0.513-0.098-0.707-0.293c-0.392-0.392-0.392-1.022,0-1.414l5.657-5.655
					c0.391-0.392,1.021-0.392,1.414,0c0.391,0.392,0.391,1.022,0,1.414l-5.657,5.655C57.09,580.668,56.833,580.766,56.577,580.766z"
					/>
			</g>
			<g>
				<path d="M70.488,572.512L70.488,572.512c-0.266,0-0.521-0.104-0.707-0.293l-5.655-5.658c-0.392-0.391-0.392-1.021,0-1.414
					l31.11-31.11c0.188-0.188,0.44-0.293,0.707-0.293l0,0c0.266,0,0.521,0.104,0.707,0.293l5.656,5.658
					c0.391,0.392,0.391,1.021,0,1.411l-31.111,31.113C71.008,572.406,70.753,572.512,70.488,572.512z M66.246,565.854l4.24,4.244
					l29.699-29.698l-4.242-4.242L66.246,565.854z"/>
			</g>
			<g>
				<path d="M77.559,548.471c-0.256,0-0.512-0.099-0.707-0.293c-0.391-0.392-0.391-1.022,0-1.414l11.313-11.313
					c1.948-1.948,5.123-1.948,7.071,0c0.392,0.392,0.392,1.022,0,1.414c-0.391,0.392-1.022,0.392-1.414,0
					c-1.17-1.17-3.074-1.17-4.243,0l-11.313,11.313C78.07,548.372,77.814,548.471,77.559,548.471z"/>
			</g>
			<g>
				<path d="M90.287,552.715c-0.256,0-0.512-0.101-0.707-0.295l-5.655-5.656c-0.392-0.391-0.392-1.022,0-1.414
					c0.392-0.391,1.022-0.391,1.414,0l5.655,5.656c0.393,0.392,0.393,1.022,0,1.414C90.8,552.615,90.543,552.715,90.287,552.715z"/>
			</g>
			<path fill="#E0E2E0" d="M71.277,531.988l4.129,4.006c0,0-3.203,0.317-3.62-0.166S71.277,531.988,71.277,531.988z"/>
		</g>
	</g>
	<g id="Exercice">
		<path fill="#94739D" d="M62.488,255.168c2.13,2.406,3.408,10.181,6,9c1.334-2.666,2.668-5.334,4-8c0.334,0,0.666,0,1,0
			c0.334,3.666,0.666,7.334,1,11c3-2.333,6-4.667,9-7c-0.334,3.333-0.666,6.667-1,10c3-2,6-4,9-6c-0.666,3.666-1.334,7.334-2,11
			c3.334-1.666,6.668-3.334,10-5c-1.332,3.333-2.666,6.667-4,10c3.334-0.666,6.668-1.334,10-2c0,0.334,0,0.667,0,1
			c-1.666,2.666-3.334,5.334-5,8c3.666-0.333,7.334-0.666,11-1c-2.332,2.666-4.666,5.334-7,8c0.666,0,1.334,0,2,0
			c2.666,0.334,5.334,0.667,8,1c-2.666,2-5.334,4-8,6c0.334,0.666,0.666,1.334,1,2c3,0.666,6,1.334,9,2c0,0.334,0,0.667,0,1
			c-3,1.333-6,2.667-9,4c0,0.334,0,0.667,0,1c2.666,1.333,5.334,2.667,8,4c0,0.334,0,0.667,0,1c-3,0.666-6,1.334-9,2
			c0.334,0.666,0.666,1.334,1,2c2.334,1.666,4.668,3.334,7,5c-3.332,0.334-6.666,0.667-10,1c2.334,2.666,4.668,5.334,7,8
			c-3.666,0-7.334,0-11,0c1.666,2.666,3.334,5.334,5,8c-3.332-0.666-6.666-1.334-10-2c1.334,3.333,2.668,6.667,4,10
			c-3.332-1.333-6.666-2.667-10-4c0.666,3.333,1.334,6.667,2,10c-3-2-6-4-9-6c0,3.333,0,6.667,0,10c-2.666-2.333-5.334-4.667-8-7
			c-0.334,3.666-0.666,7.334-1,11c-0.666-0.333-1.334-0.666-2-1c-1.666-2.666-3.334-5.334-5-8c0,0.666,0,1.334,0,2
			c-1,2.666-2,5.334-3,8c-0.334,0-0.666,0-1,0c-1.332-3-2.667-6-4-9c-0.333,0-0.667,0-1,0c-1.333,2.666-2.667,5.334-4,8
			c-0.333,0-0.667,0-1,0c-0.667-3.333-1.333-6.667-2-10c-0.667,0.334-1.333,0.667-2,1c-1.497,3.633-2.642,5.188-6,7
			c0-3.333,0-6.667,0-10c-2.999,2-6.001,4-9,6c0.667-3.666,1.333-7.334,2-11c-3.333,2-6.667,4-10,6c1-3,2-6,3-9
			c-3.333,0.666-6.667,1.334-10,2c1.667-3.333,3.333-6.667,5-10c-3.667,0.666-7.333,1.334-11,2c0.667-0.666,1.333-1.334,2-2
			c1.667-2.333,3.333-4.667,5-7c-3.667,0-7.333,0-11,0c1-1.333,2-2.667,3-4c1.667-1.333,3.333-2.667,5-4
			c-3.667-0.333-7.333-0.666-11-1c0.333-0.666,0.667-1.334,1-2c2.667-1.666,5.333-3.334,8-5c-3.333-1.333-6.667-2.667-10-4
			c3.333-1,6.667-2,10-3c-2.999-2.333-6.001-4.667-9-7c3.667-0.333,7.333-0.666,11-1c-1.333-1.666-2.667-3.334-4-5
			c-1.333-1-2.667-2-4-3c3.667,0,7.333,0,11,0c-1-1-2-2-3-3c-1.333-2-2.667-4-4-6c3.667,0.666,7.333,1.334,11,2
			c-1.667-3.333-3.333-6.667-5-10c3.667,1.333,7.333,2.667,11,4c-0.667-3.333-1.333-6.667-2-10c2.667,1.666,5.333,3.334,8,5
			c-0.333-3.666-0.667-7.334-1-11c2.333,2.333,4.667,4.667,7,7c0.667-0.333,1.333-0.666,2-1c0.333-3.333,0.667-6.667,1-10
			c1.587,3.769,3.481,6.127,7,8c0.667-3,1.333-6,2-9c0.333,0.666,0.667,1.334,1,2c1.333,2.333,2.667,4.667,4,7c0.333,0,0.667,0,1,0
			C60.489,261.835,61.488,258.501,62.488,255.168z"/>
		<path id="clipboard-list" fill="#E0E2E0" d="M47.658,281.206c0-1.297,1.04-2.331,2.322-2.331h4.676l0,0v-2.337
			c0-2.565,2.093-4.661,4.677-4.661h2.31c2.59,0,4.678,2.087,4.678,4.661v2.337h4.676c1.283,0,2.322,1.044,2.322,2.331v2.337
			c0,1.297-1.039,2.331-2.322,2.331H49.98c-1.285,0-2.322-1.043-2.322-2.331V281.206 M75.652,281.208h2.338
			c2.582,0,4.66,2.092,4.66,4.675v48.972c0,2.6-2.086,4.675-4.66,4.675H42.987c-2.582,0-4.66-2.092-4.66-4.675v-48.972
			c0-2.599,2.085-4.675,4.66-4.675h2.338c0,0.005,0,0.01,0,0.012v2.31c0,2.584,2.084,4.679,4.672,4.679h20.981
			c2.582,0,4.672-2.087,4.672-4.679v-2.31C75.652,281.218,75.652,281.213,75.652,281.208L75.652,281.208L75.652,281.208z
			 M60.489,278.875c0.645,0,1.165-0.523,1.165-1.166c0-0.644-0.521-1.167-1.165-1.167c-0.646,0-1.167,0.523-1.167,1.167
			C59.322,278.352,59.844,278.875,60.489,278.875L60.489,278.875z M56.989,299.87v2.333h18.663v-2.333H56.989L56.989,299.87z
			 M45.325,297.538v6.997h6.999v-6.997H45.325L45.325,297.538z M47.658,299.87v2.333h2.333v-2.333H47.658L47.658,299.87z
			 M45.325,309.201v6.998h6.999v-6.998H45.325L45.325,309.201z M47.658,311.534v2.333h2.333v-2.333H47.658L47.658,311.534z
			 M56.989,311.534v2.333h18.663v-2.333H56.989L56.989,311.534z M45.325,320.865v6.999h6.999v-6.999H45.325L45.325,320.865z
			 M47.658,323.198v2.333h2.333v-2.333H47.658L47.658,323.198z M56.989,323.198v2.333h18.663v-2.333H56.989L56.989,323.198z"/>
		<path fill="#FD7400" d="M49.98,285.874h21.015c1.284,0,2.323-1.034,2.323-2.331v-2.337c0-1.287-1.039-2.331-2.323-2.331H66.32
			v-2.337c0-2.574-2.088-4.661-4.678-4.661h-2.311c-2.583,0-4.677,2.096-4.677,4.661v2.337H49.98c-1.283,0-2.322,1.034-2.322,2.331
			v2.337C47.658,284.831,48.696,285.874,49.98,285.874z M60.489,276.542c0.645,0,1.165,0.523,1.165,1.167
			c0,0.643-0.521,1.166-1.165,1.166c-0.646,0-1.167-0.523-1.167-1.166C59.322,277.066,59.844,276.542,60.489,276.542z"/>
		<path fill="#2ABBB3" d="M54.534,294.416c-0.146-0.146-0.383-0.146-0.528,0l-5.557,5.53c-0.145,0.146-0.383,0.146-0.528,0
			l-2.435-2.479c-0.072-0.073-0.166-0.109-0.262-0.109c-0.096-0.002-0.193,0.034-0.266,0.109l-1.076,0.968
			c-0.072,0.072-0.11,0.165-0.11,0.261c0,0.099,0.039,0.197,0.111,0.271l2.455,2.575c0.146,0.148,0.384,0.386,0.528,0.531
			l1.056,1.064c0.146,0.146,0.382,0.146,0.528,0l7.139-7.127c0.146-0.146,0.146-0.386,0-0.531L54.534,294.416z"/>
	</g>
	<g id="Introduction">
		<path fill="#94739D" d="M64.544,130.396c2.129,2.406,3.407,10.182,6,9c1.333-2.666,2.667-5.334,4-8c0.334,0,0.666,0,1,0
			c0.334,3.666,0.666,7.334,1,11c3-2.333,6-4.667,9-7c-0.334,3.333-0.666,6.667-1,10c3-2,6-4,9-6c-0.666,3.666-1.334,7.334-2,11
			c3.333-1.666,6.667-3.334,10-5c-1.333,3.333-2.667,6.667-4,10c3.333-0.666,6.667-1.334,10-2c0,0.334,0,0.667,0,1
			c-1.666,2.666-3.334,5.334-5,8c3.666-0.333,7.334-0.666,11-1c-2.333,2.666-4.667,5.334-7,8c0.666,0,1.334,0,2,0
			c2.666,0.334,5.334,0.667,8,1c-2.666,2-5.334,4-8,6c0.334,0.666,0.666,1.334,1,2c3,0.666,6,1.334,9,2c0,0.334,0,0.667,0,1
			c-3,1.333-6,2.667-9,4c0,0.334,0,0.667,0,1c2.666,1.333,5.334,2.667,8,4c0,0.334,0,0.667,0,1c-3,0.666-6,1.334-9,2
			c0.334,0.666,0.666,1.334,1,2c2.333,1.666,4.667,3.334,7,5c-3.333,0.334-6.667,0.667-10,1c2.333,2.666,4.667,5.334,7,8
			c-3.666,0-7.334,0-11,0c1.666,2.666,3.334,5.334,5,8c-3.333-0.666-6.667-1.334-10-2c1.333,3.333,2.667,6.667,4,10
			c-3.333-1.333-6.667-2.667-10-4c0.666,3.333,1.334,6.667,2,10c-3-2-6-4-9-6c0,3.333,0,6.667,0,10c-2.666-2.333-5.334-4.667-8-7
			c-0.334,3.666-0.666,7.334-1,11c-0.666-0.333-1.334-0.666-2-1c-1.666-2.666-3.334-5.334-5-8c0,0.666,0,1.334,0,2
			c-1,2.666-2,5.334-3,8c-0.334,0-0.667,0-1,0c-1.333-3-2.667-6-4-9c-0.333,0-0.667,0-1,0c-1.333,2.666-2.667,5.334-4,8
			c-0.333,0-0.667,0-1,0c-0.667-3.333-1.333-6.667-2-10c-0.667,0.334-1.333,0.667-2,1c-1.497,3.633-2.642,5.188-6,7
			c0-3.333,0-6.667,0-10c-2.999,2-6.001,4-9,6c0.667-3.666,1.333-7.334,2-11c-3.333,2-6.667,4-10,6c1-3,2-6,3-9
			c-3.333,0.666-6.667,1.334-10,2c1.667-3.333,3.333-6.667,5-10c-3.667,0.666-7.333,1.334-11,2c0.667-0.666,1.333-1.334,2-2
			c1.667-2.333,3.333-4.667,5-7c-3.667,0-7.333,0-11,0c1-1.333,2-2.667,3-4c1.667-1.333,3.333-2.667,5-4
			c-3.667-0.333-7.333-0.666-11-1c0.333-0.666,0.667-1.334,1-2c2.667-1.666,5.333-3.334,8-5c-3.333-1.333-6.667-2.667-10-4
			c3.333-1,6.667-2,10-3c-2.999-2.333-6.001-4.667-9-7c3.667-0.333,7.333-0.666,11-1c-1.333-1.666-2.667-3.334-4-5
			c-1.333-1-2.667-2-4-3c3.667,0,7.333,0,11,0c-1-1-2-2-3-3c-1.333-2-2.667-4-4-6c3.667,0.666,7.333,1.334,11,2
			c-1.667-3.333-3.333-6.667-5-10c3.667,1.333,7.333,2.667,11,4c-0.667-3.333-1.333-6.667-2-10c2.667,1.666,5.333,3.334,8,5
			c-0.333-3.666-0.667-7.334-1-11c2.333,2.333,4.667,4.667,7,7c0.667-0.333,1.333-0.666,2-1c0.333-3.333,0.667-6.667,1-10
			c1.587,3.77,3.481,6.127,7,8c0.667-3,1.333-6,2-9c0.333,0.666,0.667,1.334,1,2c1.333,2.333,2.667,4.667,4,7c0.333,0,0.667,0,1,0
			C62.544,137.063,63.544,133.729,64.544,130.396z"/>
		<path fill="#FFFFFF" d="M63.348,192.899c2.484,0.579,4.989-0.979,5.568-3.461l1.686-7.225c0.211-0.903,1.219-1.146,1.791-0.535
			c1.196,0.994,2.619,2.04,3.748,2.304c3.159,0.737,6.223-1.167,6.961-4.327c0.736-3.16-1.168-6.223-4.328-6.961
			c-1.127-0.264-2.866,0.045-4.379,0.406c-0.783,0.293-1.526-0.594-1.369-1.271l2.213-9.481c0.578-2.483-0.979-4.988-3.463-5.568
			l-5.418-1.265c-1.354-0.314-2.799,0.775-2.664,2.235c0.188,1.233,0.15,2.416-0.008,3.092c-0.735,3.162-3.801,5.064-6.958,4.327
			c-3.162-0.737-5.064-3.8-4.327-6.96c0.158-0.679,0.648-1.754,1.363-2.777c0.541-1.302-0.046-2.867-1.4-3.183l-5.418-1.266
			c-2.484-0.58-4.99,0.979-5.569,3.462l-6.321,27.092c-0.58,2.481,0.979,4.987,3.462,5.567L63.348,192.899z"/>
		<path fill="#E0E2E0" d="M37.936,173.974c-2.548,0.103-4.55,2.269-4.45,4.816l0.292,7.412c0.036,0.927-0.872,1.426-1.585,0.99
			c-1.416-0.641-3.066-1.271-4.224-1.226c-3.242,0.127-5.69,2.775-5.562,6.019c0.128,3.244,2.776,5.69,6.019,5.563
			c1.158-0.047,2.753-0.806,4.115-1.555c0.677-0.491,1.631,0.167,1.658,0.861l0.382,9.729c0.101,2.549,2.269,4.551,4.816,4.45
			l5.559-0.22c1.39-0.056,2.493-1.49,1.976-2.861c-0.509-1.141-0.787-2.289-0.813-2.984c-0.129-3.243,2.32-5.891,5.562-6.019
			c3.244-0.128,5.891,2.318,6.02,5.563c0.027,0.695-0.159,1.862-0.577,3.04c-0.176,1.398,0.805,2.751,2.194,2.697l5.559-0.22
			c2.549-0.102,4.551-2.268,4.452-4.815l-1.097-27.797c-0.101-2.548-2.269-4.55-4.815-4.449L37.936,173.974z"/>
		<path fill="#2ABBB3" d="M44.144,187.063c-2.218,1.259-3.003,4.104-1.746,6.32l3.659,6.453c0.458,0.808-0.121,1.668-0.954,1.607
			c-1.552,0.079-3.308,0.276-4.316,0.849c-2.822,1.601-3.783,5.076-2.183,7.898c1.602,2.823,5.077,3.783,7.9,2.185
			c1.008-0.572,2.077-1.979,2.944-3.27c0.376-0.747,1.526-0.599,1.869,0.006l4.802,8.471c1.259,2.219,4.103,3.004,6.32,1.746
			l4.84-2.744c1.209-0.688,1.531-2.467,0.443-3.449c-0.976-0.779-1.75-1.674-2.093-2.278c-1.603-2.822-0.641-6.3,2.183-7.898
			c2.824-1.603,6.299-0.642,7.899,2.183c0.343,0.604,0.712,1.729,0.881,2.965c0.485,1.323,1.979,2.076,3.188,1.391l4.839-2.744
			c2.219-1.258,3.005-4.103,1.747-6.32l-13.723-24.198c-1.258-2.218-4.103-3.004-6.319-1.745L44.144,187.063z"/>
		<path fill="#FD7400" d="M81.257,161.645c-1.983-1.604-4.916-1.294-6.521,0.688l-4.666,5.768c-0.582,0.723-1.596,0.498-1.844-0.299
			c-0.645-1.416-1.47-2.978-2.369-3.706c-2.522-2.041-6.109-1.662-8.15,0.86s-1.662,6.108,0.86,8.149
			c0.901,0.729,2.601,1.21,4.119,1.543c0.834,0.077,1.117,1.201,0.681,1.742l-6.125,7.569c-1.604,1.982-1.293,4.917,0.689,6.521
			l4.325,3.499c1.082,0.875,2.856,0.522,3.372-0.851c0.369-1.191,0.917-2.239,1.354-2.779c2.041-2.523,5.629-2.901,8.15-0.861
			c2.523,2.043,2.902,5.628,0.861,8.15c-0.438,0.541-1.348,1.296-2.438,1.906c-1.055,0.936-1.207,2.6-0.128,3.475l4.325,3.499
			c1.982,1.604,4.917,1.295,6.521-0.688l17.496-21.628c1.604-1.982,1.293-4.916-0.688-6.521L81.257,161.645z"/>
	</g>
	<g id="Conclusion">
		<path fill="#94739D" d="M62.488,629.484c2.13,2.405,3.408,10.181,6,9c1.334-2.666,2.668-5.334,4-8c0.334,0,0.666,0,1,0
			c0.334,3.666,0.666,7.334,1,11c3-2.333,6-4.667,9-7c-0.334,3.333-0.666,6.667-1,10c3-2,6-4,9-6c-0.666,3.666-1.334,7.334-2,11
			c3.334-1.666,6.668-3.334,10-5c-1.332,3.333-2.666,6.667-4,10c3.334-0.666,6.668-1.334,10-2c0,0.334,0,0.667,0,1
			c-1.666,2.666-3.334,5.334-5,8c3.666-0.333,7.334-0.666,11-1c-2.332,2.666-4.666,5.334-7,8c0.666,0,1.334,0,2,0
			c2.666,0.334,5.334,0.667,8,1c-2.666,2-5.334,4-8,6c0.334,0.666,0.666,1.334,1,2c3,0.666,6,1.334,9,2c0,0.334,0,0.667,0,1
			c-3,1.333-6,2.667-9,4c0,0.334,0,0.667,0,1c2.666,1.333,5.334,2.667,8,4c0,0.334,0,0.667,0,1c-3,0.666-6,1.334-9,2
			c0.334,0.666,0.666,1.334,1,2c2.334,1.666,4.668,3.334,7,5c-3.332,0.334-6.666,0.667-10,1c2.334,2.666,4.668,5.334,7,8
			c-3.666,0-7.334,0-11,0c1.666,2.666,3.334,5.334,5,8c-3.332-0.666-6.666-1.334-10-2c1.334,3.333,2.668,6.667,4,10
			c-3.332-1.333-6.666-2.667-10-4c0.666,3.333,1.334,6.667,2,10c-3-2-6-4-9-6c0,3.333,0,6.667,0,10c-2.666-2.333-5.334-4.667-8-7
			c-0.334,3.666-0.666,7.334-1,11c-0.666-0.333-1.334-0.666-2-1c-1.666-2.666-3.334-5.334-5-8c0,0.666,0,1.334,0,2
			c-1,2.666-2,5.334-3,8c-0.334,0-0.666,0-1,0c-1.332-3-2.667-6-4-9c-0.333,0-0.667,0-1,0c-1.333,2.666-2.667,5.334-4,8
			c-0.333,0-0.667,0-1,0c-0.667-3.333-1.333-6.667-2-10c-0.667,0.334-1.333,0.667-2,1c-1.497,3.633-2.642,5.188-6,7
			c0-3.333,0-6.667,0-10c-2.999,2-6.001,4-9,6c0.667-3.666,1.333-7.334,2-11c-3.333,2-6.667,4-10,6c1-3,2-6,3-9
			c-3.333,0.666-6.667,1.334-10,2c1.667-3.333,3.333-6.667,5-10c-3.667,0.666-7.333,1.334-11,2c0.667-0.666,1.333-1.334,2-2
			c1.667-2.333,3.333-4.667,5-7c-3.667,0-7.333,0-11,0c1-1.333,2-2.667,3-4c1.667-1.333,3.333-2.667,5-4
			c-3.667-0.333-7.333-0.666-11-1c0.333-0.666,0.667-1.334,1-2c2.667-1.666,5.333-3.334,8-5c-3.333-1.333-6.667-2.667-10-4
			c3.333-1,6.667-2,10-3c-2.999-2.333-6.001-4.667-9-7c3.667-0.333,7.333-0.666,11-1c-1.333-1.666-2.667-3.334-4-5
			c-1.333-1-2.667-2-4-3c3.667,0,7.333,0,11,0c-1-1-2-2-3-3c-1.333-2-2.667-4-4-6c3.667,0.666,7.333,1.334,11,2
			c-1.667-3.333-3.333-6.667-5-10c3.667,1.333,7.333,2.667,11,4c-0.667-3.333-1.333-6.667-2-10c2.667,1.666,5.333,3.334,8,5
			c-0.333-3.666-0.667-7.334-1-11c2.333,2.333,4.667,4.667,7,7c0.667-0.333,1.333-0.666,2-1c0.333-3.333,0.667-6.667,1-10
			c1.587,3.77,3.481,6.127,7,8c0.667-3,1.333-6,2-9c0.333,0.666,0.667,1.334,1,2c1.333,2.333,2.667,4.667,4,7c0.333,0,0.667,0,1,0
			C60.489,636.151,61.488,632.817,62.488,629.484z"/>
		<path fill="#FD7400" d="M87.988,697.044c0.507-2.035-0.742-4.114-2.777-4.622l-5.919-1.478c-0.739-0.186-0.925-1.018-0.417-1.479
			c0.832-0.972,1.71-2.128,1.939-3.054c0.646-2.589-0.881-5.132-3.472-5.776c-2.59-0.646-5.132,0.882-5.776,3.472
			c-0.23,0.925,0,2.357,0.279,3.605c0.23,0.646-0.509,1.249-1.063,1.109l-7.771-1.938c-2.035-0.507-4.115,0.743-4.623,2.776
			l-1.107,4.439c-0.277,1.109,0.602,2.312,1.804,2.219c1.017-0.14,1.988-0.094,2.543,0.045c2.59,0.646,4.117,3.188,3.471,5.776
			c-0.646,2.592-3.188,4.117-5.776,3.473c-0.555-0.14-1.434-0.556-2.267-1.154c-1.063-0.462-2.358,0.002-2.635,1.11l-1.107,4.438
			c-0.508,2.035,0.742,4.114,2.776,4.623l22.198,5.535c2.035,0.509,4.114-0.741,4.622-2.776L87.988,697.044z"/>
		<path fill="#FFFFFF" d="M48.579,712.87c2.035,0.508,4.115-0.741,4.623-2.776l1.476-5.919c0.185-0.74,1.017-0.927,1.479-0.417
			c0.972,0.831,2.128,1.709,3.053,1.939c2.589,0.646,5.132-0.882,5.778-3.472c0.646-2.59-0.881-5.133-3.471-5.777
			c-0.927-0.23-2.358,0.001-3.606,0.278c-0.647,0.231-1.249-0.508-1.11-1.063l1.938-7.77c0.507-2.034-0.742-4.115-2.777-4.623
			l-4.439-1.106c-1.11-0.276-2.312,0.604-2.219,1.805c0.139,1.019,0.094,1.988-0.044,2.543c-0.646,2.591-3.188,4.117-5.778,3.473
			c-2.59-0.646-4.117-3.188-3.471-5.777c0.138-0.556,0.554-1.435,1.155-2.267c0.461-1.063-0.001-2.357-1.111-2.636l-4.44-1.107
			c-2.034-0.508-4.115,0.742-4.622,2.776l-5.537,22.197c-0.507,2.035,0.742,4.115,2.777,4.623L48.579,712.87z"/>
		<path fill="#2ABBB3" d="M72.23,657.805c-2.035-0.508-4.114,0.742-4.623,2.776L66.13,666.5c-0.187,0.74-1.019,0.927-1.479,0.418
			c-0.973-0.832-2.129-1.709-3.053-1.939c-2.589-0.646-5.133,0.882-5.779,3.472s0.881,5.132,3.471,5.776
			c0.925,0.229,2.358-0.001,3.606-0.278c0.646-0.229,1.248,0.508,1.108,1.063l-1.938,7.771c-0.508,2.035,0.742,4.113,2.777,4.623
			l4.438,1.105c1.11,0.276,2.312-0.604,2.219-1.805c-0.14-1.019-0.094-1.987,0.045-2.544c0.646-2.589,3.188-4.117,5.778-3.471
			c2.589,0.646,4.117,3.188,3.471,5.777c-0.139,0.555-0.554,1.434-1.154,2.267c-0.463,1.063,0,2.357,1.11,2.636l4.438,1.106
			c2.035,0.508,4.115-0.742,4.623-2.776l5.537-22.198c0.506-2.032-0.742-4.113-2.777-4.62L72.23,657.805z"/>
		<path fill="#E0E2E0" d="M32.849,673.525c-0.508,2.034,0.742,4.114,2.777,4.623l5.919,1.476c0.74,0.186,0.925,1.019,0.417,1.479
			c-0.832,0.972-1.709,2.128-1.94,3.053c-0.646,2.59,0.882,5.132,3.472,5.777c2.589,0.646,5.131-0.881,5.777-3.472
			c0.231-0.926-0.001-2.356-0.279-3.604c-0.232-0.646,0.508-1.25,1.063-1.111l7.77,1.938c2.035,0.509,4.114-0.74,4.622-2.776
			l1.107-4.438c0.275-1.108-0.604-2.313-1.806-2.219c-1.019,0.14-1.989,0.095-2.543-0.045c-2.59-0.646-4.117-3.188-3.471-5.777
			c0.646-2.589,3.188-4.116,5.779-3.472c0.555,0.14,1.434,0.555,2.266,1.154c1.063,0.462,2.359-0.001,2.637-1.111l1.107-4.438
			c0.506-2.034-0.742-4.114-2.777-4.623l-22.2-5.537c-2.035-0.508-4.115,0.742-4.623,2.776L32.849,673.525z"/>
	</g>
</g>
<g id="Activité_d_x27_auto-évaluation_1_">
	<path fill="#94739D" d="M62,1124.5c2.129,2.405,3.407,10.181,6,9c1.333-2.666,2.667-5.334,4-8c0.334,0,0.666,0,1,0
		c0.334,3.666,0.666,7.334,1,11c3-2.334,6-4.668,9-7c-0.334,3.332-0.666,6.666-1,10c3-2,6-4,9-6c-0.666,3.666-1.334,7.334-2,11
		c3.333-1.666,6.667-3.334,10-5c-1.333,3.332-2.667,6.666-4,10c3.333-0.666,6.667-1.334,10-2c0,0.334,0,0.666,0,1
		c-1.666,2.666-3.334,5.334-5,8c3.666-0.334,7.334-0.666,11-1c-2.333,2.666-4.667,5.334-7,8c0.666,0,1.334,0,2,0
		c2.666,0.334,5.334,0.666,8,1c-2.666,2-5.334,4-8,6c0.334,0.666,0.666,1.334,1,2c3,0.666,6,1.334,9,2c0,0.334,0,0.666,0,1
		c-3,1.332-6,2.666-9,4c0,0.334,0,0.666,0,1c2.666,1.332,5.334,2.666,8,4c0,0.334,0,0.666,0,1c-3,0.666-6,1.334-9,2
		c0.334,0.666,0.666,1.334,1,2c2.333,1.666,4.667,3.334,7,5c-3.333,0.334-6.667,0.666-10,1c2.333,2.666,4.667,5.334,7,8
		c-3.666,0-7.334,0-11,0c1.666,2.666,3.334,5.334,5,8c-3.333-0.666-6.667-1.334-10-2c1.333,3.332,2.667,6.666,4,10
		c-3.333-1.334-6.667-2.668-10-4c0.666,3.332,1.334,6.666,2,10c-3-2-6-4-9-6c0,3.332,0,6.666,0,10c-2.666-2.334-5.334-4.668-8-7
		c-0.334,3.666-0.666,7.334-1,11c-0.666-0.334-1.334-0.666-2-1c-1.666-2.666-3.334-5.334-5-8c0,0.666,0,1.334,0,2
		c-1,2.666-2,5.334-3,8c-0.334,0-0.667,0-1,0c-1.333-3-2.667-6-4-9c-0.333,0-0.667,0-1,0c-1.333,2.666-2.667,5.334-4,8
		c-0.333,0-0.667,0-1,0c-0.667-3.334-1.333-6.668-2-10c-0.667,0.334-1.333,0.666-2,1c-1.497,3.633-2.642,5.188-6,7
		c0-3.334,0-6.668,0-10c-2.999,2-6.001,4-9,6c0.667-3.666,1.333-7.334,2-11c-3.333,2-6.667,4-10,6c1-3,2-6,3-9
		c-3.333,0.666-6.667,1.334-10,2c1.667-3.334,3.333-6.668,5-10c-3.667,0.666-7.333,1.334-11,2c0.667-0.666,1.333-1.334,2-2
		c1.667-2.334,3.333-4.668,5-7c-3.667,0-7.333,0-11,0c1-1.334,2-2.668,3-4c1.667-1.334,3.333-2.668,5-4
		c-3.667-0.334-7.333-0.666-11-1c0.333-0.666,0.667-1.334,1-2c2.667-1.666,5.333-3.334,8-5c-3.333-1.334-6.667-2.668-10-4
		c3.333-1,6.667-2,10-3c-2.999-2.334-6.001-4.668-9-7c3.667-0.334,7.333-0.666,11-1c-1.333-1.666-2.667-3.334-4-5
		c-1.333-1-2.667-2-4-3c3.667,0,7.333,0,11,0c-1-1-2-2-3-3c-1.333-2-2.667-4-4-6c3.667,0.666,7.333,1.334,11,2
		c-1.667-3.334-3.333-6.668-5-10c3.667,1.332,7.333,2.666,11,4c-0.667-3.334-1.333-6.668-2-10c2.667,1.666,5.333,3.334,8,5
		c-0.333-3.666-0.667-7.334-1-11c2.333,2.332,4.667,4.666,7,7c0.667-0.334,1.333-0.666,2-1c0.333-3.334,0.667-6.668,1-10
		c1.587,3.769,3.481,6.127,7,8c0.667-3,1.333-6,2-9c0.333,0.666,0.667,1.334,1,2c1.333,2.332,2.667,4.666,4,7c0.333,0,0.667,0,1,0
		C60,1131.166,61,1127.832,62,1124.5z"/>
	<path id="clipboard-list_1_" fill="#E0E2E0" d="M45.524,1152.186c0-1.297,1.039-2.331,2.322-2.331h4.676l0,0v-2.337
		c0-2.565,2.094-4.661,4.677-4.661h2.311c2.59,0,4.676,2.087,4.676,4.661v2.337h4.676c1.285,0,2.324,1.044,2.324,2.331v2.337
		c0,1.297-1.039,2.331-2.324,2.331H47.846c-1.285,0-2.322-1.043-2.322-2.331V1152.186 M73.518,1152.188h2.338
		c2.582,0,4.66,2.092,4.66,4.675v48.973c0,2.6-2.086,4.675-4.66,4.675H40.852c-2.581,0-4.66-2.092-4.66-4.675v-48.973
		c0-2.599,2.086-4.675,4.66-4.675h2.339c0,0.005,0,0.01,0,0.012v2.311c0,2.584,2.084,4.678,4.672,4.678h20.983
		c2.58,0,4.672-2.087,4.672-4.678v-2.311C73.518,1152.197,73.518,1152.192,73.518,1152.188L73.518,1152.188L73.518,1152.188z
		 M58.354,1149.854c0.645,0,1.166-0.523,1.166-1.166s-0.521-1.167-1.166-1.167s-1.166,0.524-1.166,1.167
		S57.709,1149.854,58.354,1149.854L58.354,1149.854z M54.855,1170.851v2.333h18.663v-2.333H54.855L54.855,1170.851z
		 M43.191,1168.518v6.998h6.998v-6.998H43.191L43.191,1168.518z M45.524,1170.851v2.333h2.332v-2.333H45.524L45.524,1170.851z
		 M43.191,1180.182v6.998h6.998v-6.998H43.191L43.191,1180.182z M45.524,1182.515v2.333h2.332v-2.333H45.524L45.524,1182.515z
		 M54.855,1182.515v2.333h18.663v-2.333H54.855L54.855,1182.515z M43.191,1191.846v6.999h6.998v-6.999H43.191L43.191,1191.846z
		 M45.524,1194.179v2.333h2.332v-2.333H45.524L45.524,1194.179z M54.855,1194.179v2.333h18.663v-2.333H54.855L54.855,1194.179z"/>
	<polygon fill="#FFFFFF" points="65.826,1191.877 62.523,1192.629 59.5,1197.592 59.5,1201.961 64.648,1202.877 69.672,1199.795 
		70.452,1195.461 69.175,1193.318 65.911,1192.211 	"/>
	<polygon fill="#2ABBB3" points="85.707,1171.029 67.697,1189.148 73.129,1195.383 92.113,1175.967 103.279,1164.441 
		97.607,1158.857 	"/>
	<g>
		<path d="M58.089,1204.557v-1.004c0-0.303,0.043-7.482,3.791-11.193c1.129-1.119,2.623-1.734,4.207-1.734s3.073,0.617,4.194,1.736
			c1.125,1.125,1.742,2.621,1.742,4.211c-0.002,1.586-0.621,3.076-1.744,4.193c-3.732,3.721-10.885,3.787-11.188,3.787
			L58.089,1204.557z M66.087,1192.625c-1.054,0-2.048,0.409-2.8,1.153c-2.389,2.365-2.993,6.72-3.146,8.72
			c1.998-0.158,6.343-0.773,8.729-3.148c0.741-0.738,1.151-1.727,1.153-2.777c0-1.057-0.41-2.049-1.155-2.795
			C68.125,1193.032,67.137,1192.625,66.087,1192.625z"/>
	</g>
	<g>
		<path d="M59.089,1204.553c-0.256,0-0.513-0.099-0.707-0.293c-0.392-0.392-0.392-1.023,0-1.414l5.657-5.656
			c0.391-0.391,1.023-0.391,1.414,0s0.391,1.023,0,1.414l-5.657,5.656C59.602,1204.454,59.345,1204.553,59.089,1204.553z"/>
	</g>
	<g>
		<path d="M73,1196.299L73,1196.299c-0.266,0-0.52-0.104-0.707-0.293l-5.654-5.658c-0.392-0.391-0.392-1.021,0-1.414l31.11-31.111
			c0.188-0.188,0.44-0.293,0.707-0.293l0,0c0.265,0,0.521,0.105,0.707,0.293l5.655,5.658c0.392,0.391,0.392,1.021,0,1.412
			l-31.111,31.113C73.52,1196.193,73.266,1196.299,73,1196.299z M68.758,1189.641l4.241,4.244l29.699-29.699l-4.242-4.242
			L68.758,1189.641z"/>
	</g>
	<g>
		<path d="M80.07,1172.258c-0.256,0-0.512-0.099-0.707-0.293c-0.391-0.392-0.391-1.023,0-1.414l11.313-11.314
			c1.949-1.948,5.123-1.948,7.072,0c0.391,0.392,0.391,1.023,0,1.414c-0.391,0.392-1.023,0.392-1.414,0
			c-1.171-1.17-3.075-1.17-4.244,0l-11.313,11.314C80.583,1172.159,80.326,1172.258,80.07,1172.258z"/>
	</g>
	<g>
		<path d="M92.799,1176.502c-0.256,0-0.512-0.101-0.707-0.296l-5.654-5.655c-0.393-0.392-0.393-1.023,0-1.414
			c0.391-0.392,1.021-0.392,1.414,0l5.654,5.656c0.393,0.391,0.393,1.022,0,1.413C93.313,1176.402,93.055,1176.502,92.799,1176.502z
			"/>
	</g>
	<path fill="#FD7400" d="M47.846,1156.854h21.015c1.285,0,2.324-1.034,2.324-2.331v-2.337c0-1.287-1.039-2.331-2.324-2.331h-4.676
		v-2.337c0-2.574-2.086-4.661-4.677-4.661h-2.311c-2.583,0-4.677,2.096-4.677,4.661v2.337h-4.676c-1.283,0-2.322,1.034-2.322,2.331
		v2.337C45.524,1155.811,46.561,1156.854,47.846,1156.854z M58.354,1147.521c0.645,0,1.166,0.524,1.166,1.167
		s-0.521,1.166-1.166,1.166s-1.166-0.523-1.166-1.166S57.709,1147.521,58.354,1147.521z"/>
	<path fill="#2ABBB3" d="M52.399,1165.396c-0.146-0.146-0.383-0.146-0.527,0l-5.557,5.531c-0.146,0.146-0.383,0.146-0.528,0
		l-2.435-2.479c-0.071-0.072-0.166-0.108-0.262-0.108c-0.096-0.002-0.192,0.034-0.266,0.108l-1.076,0.969
		c-0.071,0.071-0.11,0.164-0.11,0.261c0,0.098,0.039,0.196,0.111,0.271l2.454,2.576c0.146,0.148,0.384,0.385,0.528,0.531
		l1.056,1.063c0.146,0.146,0.382,0.146,0.528,0l7.139-7.127c0.146-0.146,0.146-0.386,0-0.53L52.399,1165.396z"/>
	<rect x="57.051" y="1160.592" fill="none" width="36.333" height="23.333"/>
	<text transform="matrix(1 0 0 1 57.0518 1170.0842)" fill="#2ABBB3" font-family="'Impact'" font-size="12">OK</text>
</g>
</svg>
