<?xml version="1.0" encoding="UTF-8" standalone="no"?>
<!-- Created with Inkscape (http://www.inkscape.org/) -->

<svg
   xmlns:dc="../../../../../external.html?link=http://purl.org/dc/elements/1.1/"
   xmlns:cc="../../../../../external.html?link=http://creativecommons.org/ns#"
   xmlns:rdf="../../../../../external.html?link=http://www.w3.org/1999/02/22-rdf-syntax-ns#"
   xmlns:svg="../../../../../external.html?link=http://www.w3.org/2000/svg"
   xmlns="../../../../../external.html?link=http://www.w3.org/2000/svg"
   xmlns:sodipodi="../../../../../sodipodi.sourceforge.net/DTD/sodipodi-0.html"
   xmlns:inkscape="../../../../../external.html?link=http://www.inkscape.org/namespaces/inkscape"
   width="29.999985"
   height="238"
   viewBox="0 0 7.9374958 62.970835"
   version="1.1"
   id="svg4755"
   inkscape:version="0.92.3 (2405546, 2018-03-11)"
   sodipodi:docname="icons.svg">
  <defs
     id="defs4749" />
  <sodipodi:namedview
     id="base"
     pagecolor="#ffffff"
     bordercolor="#666666"
     borderopacity="1.0"
     inkscape:pageopacity="0.0"
     inkscape:pageshadow="2"
     inkscape:zoom="5.6"
     inkscape:cx="-20.020338"
     inkscape:cy="63.183494"
     inkscape:document-units="mm"
     inkscape:current-layer="layer1"
     showgrid="false"
     units="px"
     fit-margin-top="0"
     fit-margin-left="0"
     fit-margin-right="0"
     fit-margin-bottom="0"
     inkscape:window-width="1853"
     inkscape:window-height="1145"
     inkscape:window-x="67"
     inkscape:window-y="236"
     inkscape:window-maximized="1" />
  <metadata
     id="metadata4752">
    <rdf:RDF>
      <cc:Work
         rdf:about="">
        <dc:format>image/svg+xml</dc:format>
        <dc:type
           rdf:resource="../../../../../external.html?link=http://purl.org/dc/dcmitype/StillImage" />
        <dc:title></dc:title>
      </cc:Work>
    </rdf:RDF>
  </metadata>
  <g
     inkscape:label="Calque 1"
     inkscape:groupmode="layer"
     id="layer1"
     transform="translate(0,-234.02914)">
    <path
       d="m 3.900487,282.66379 q 0.0762,0.0762 0.128588,0.20002 0.05239,0.12383 0.05239,0.23813 v 3.05752 q 0,0.10954 -0.07144,0.18098 -0.07144,0.0714 -0.180975,0.0762 H 0.257175 q -0.109538,0 -0.180975,-0.0762 Q 0.00476,286.26424 0,286.15946 v -4.24815 q 0,-0.10954 0.0762,-0.18097 0.0762,-0.0714 0.180975,-0.0762 h 2.38125 q 0.104775,0 0.233362,0.0524 0.128588,0.0524 0.200025,0.12859 z m -1.1811,-0.6477 v 1.00012 h 1.000125 q -0.02381,-0.081 -0.05715,-0.10954 l -0.833437,-0.83343 q -0.02858,-0.0333 -0.109538,-0.0571 z m 1.023938,4.06241 v -2.72415 h -1.1049 q -0.109538,0 -0.180975,-0.0762 -0.07144,-0.0762 -0.0762,-0.17621 v -1.10967 H 0.338137 v 4.08623 z m -2.72415,-2.30029 q 0,-0.0333 0.02381,-0.0571 0.02381,-0.0238 0.06191,-0.0238 h 1.871662 q 0.0381,0 0.06191,0.0238 0.02381,0.0238 0.02381,0.0571 v 0.17145 q 0,0.0381 -0.02381,0.0619 -0.02381,0.0238 -0.06191,0.0238 H 1.104894 q -0.0381,0 -0.06191,-0.0238 -0.02381,-0.0238 -0.02381,-0.0619 z m 1.957387,0.59531 q 0.0381,0 0.06191,0.0238 0.02381,0.0238 0.02381,0.0619 v 0.17145 q 0,0.0381 -0.02381,0.0619 -0.02381,0.0238 -0.06191,0.0238 H 1.1049 q -0.0381,0 -0.06191,-0.0238 -0.02381,-0.0238 -0.02381,-0.0619 v -0.17145 q 0,-0.0381 0.02381,-0.0619 0.02381,-0.0238 0.06191,-0.0238 z m 0,0.68104 q 0.0381,0 0.06191,0.0238 0.02381,0.0238 0.02381,0.0619 v 0.17145 q 0,0.0381 -0.02381,0.0619 -0.02381,0.0238 -0.06191,0.0238 H 1.1049 q -0.0381,0 -0.06191,-0.0238 -0.02381,-0.0238 -0.02381,-0.0619 v -0.17145 q 0,-0.0381 0.02381,-0.0619 0.02381,-0.0238 0.06191,-0.0238 z"
       id="path6-0"
       inkscape:connector-curvature="0"
       style="fill:#434e52;fill-opacity:1;stroke-width:0.26458332" />
    <path
       id="path4144-9"
       d="m 4.756955,239.52061 v 4.36285 q 0,0.0777 -0.05551,0.13876 -0.05551,0.0611 -0.144317,0.0611 h -1.58195 q -0.08326,0 -0.138768,-0.0611 -0.05551,-0.0611 -0.06106,-0.13876 v -4.36285 q 0,-0.0777 0.06106,-0.13877 0.06106,-0.0611 0.138768,-0.0611 h 1.58195 q 0.08326,0 0.144317,0.0611 0.06106,0.0611 0.05551,0.13877 z m -2.77535,0 v 4.36285 q 0,0.0777 -0.05551,0.13876 -0.05551,0.0611 -0.144318,0.0611 H 0.199828 q -0.08326,0 -0.138768,-0.0611 Q 0.00555,243.96122 0,243.88346 v -4.36285 q 0,-0.0777 0.06106,-0.13877 0.06106,-0.0611 0.138768,-0.0611 h 1.581949 q 0.08326,0 0.144318,0.0611 0.06106,0.0611 0.05551,0.13877 z"
       inkscape:connector-curvature="0"
       style="fill:#434e52;fill-opacity:1;stroke-width:0.26458332" />
    <path
       id="path4157-4"
       d="m 4.242349,236.50515 -4.071993,2.26405 q -0.07144,0.0385 -0.120896,0.011 Q 0,238.7527 0,238.6703 v -4.51711 q 0,-0.0769 0.04946,-0.10991 0.04946,-0.033 0.120896,0.011 l 4.071993,2.26405 q 0.07144,0.0385 0.07144,0.0934 0,0.055 -0.07144,0.0934 z"
       inkscape:connector-curvature="0"
       style="fill:#434e52;fill-opacity:1;stroke-width:0.26458332" />
    <path
       id="path4183-3"
       d="m 2.431206,294.96287 h 0.643882 q -0.04441,0.49401 -0.30529,0.77154 -0.260882,0.27754 -0.666083,0.28309 -0.499562,0 -0.788199,-0.3608 -0.288637,-0.36079 -0.288637,-0.97692 0,-0.60502 0.288637,-0.96582 0.288637,-0.3608 0.72159,-0.36635 0.460709,0 0.72159,0.27199 0.260885,0.27198 0.299739,0.76599 H 2.431206 q -0.01664,-0.19982 -0.111014,-0.31083 -0.09436,-0.11102 -0.255331,-0.10547 -0.177623,0 -0.271986,0.18872 -0.09436,0.18873 -0.09991,0.54952 0,0.14432 0.01664,0.25534 0.01664,0.11101 0.05551,0.21647 0.03885,0.10547 0.122115,0.16097 0.08326,0.0555 0.205375,0.0555 0.294188,0 0.338593,-0.43295 z m 2.203627,0 h 0.638331 q -0.03885,0.49401 -0.299738,0.77154 -0.260882,0.27754 -0.666084,0.28309 -0.499562,0 -0.788199,-0.3608 -0.288636,-0.36079 -0.283085,-0.97692 0,-0.60502 0.288636,-0.96582 0.288637,-0.3608 0.72159,-0.36635 0.455158,0 0.71604,0.27199 0.260884,0.27198 0.299738,0.76599 h -0.63278 q -0.01109,-0.19982 -0.105463,-0.31083 -0.09436,-0.11102 -0.24978,-0.10547 -0.177623,0 -0.277534,0.18872 -0.09991,0.18873 -0.09436,0.54952 0,0.14432 0.01111,0.25534 0.01111,0.11101 0.05551,0.21647 0.04441,0.10547 0.122115,0.16097 0.07771,0.0555 0.205375,0.0555 0.149871,0 0.238681,-0.11656 0.08881,-0.11657 0.09991,-0.31639 z m 1.115692,-0.36635 q 0,-0.63833 -0.04996,-0.94917 -0.04996,-0.31084 -0.188722,-0.49956 -0.01664,-0.0278 -0.03886,-0.0444 -0.0222,-0.0166 -0.06661,-0.0444 -0.04441,-0.0278 -0.04996,-0.0333 -0.266435,-0.19982 -2.159222,-0.19982 -1.937194,0 -2.198079,0.19982 -0.01664,0.0111 -0.05551,0.0333 -0.03885,0.0222 -0.06661,0.0444 -0.02775,0.0222 -0.04441,0.0444 -0.138766,0.18317 -0.183171,0.49401 -0.04441,0.31084 -0.04996,0.95472 0,0.64388 0.04996,0.95472 0.04996,0.31084 0.183171,0.49401 0.0222,0.0278 0.04996,0.05 0.02775,0.0222 0.06106,0.0389 0.03331,0.0166 0.05551,0.0389 0.133218,0.0999 0.738243,0.14987 0.605028,0.05 1.459836,0.05 1.887236,0 2.159222,-0.19982 0.01664,-0.0111 0.04996,-0.0333 0.0333,-0.0222 0.06661,-0.0444 0.03331,-0.0222 0.03886,-0.05 0.144317,-0.18317 0.188722,-0.49401 0.04441,-0.31084 0.04996,-0.95472 z m 0.593924,-2.35905 v 4.7625 H 0 v -4.7625 z"
       inkscape:connector-curvature="0"
       style="fill:#434e52;fill-opacity:1;stroke-width:0.26458332" />
    <path
       id="path4209-0"
       d="m 2.2084566,288.73755 q 0.08569,0 0.157105,0.0476 l 0.590333,0.39038 q 0.161864,0.10474 0.290406,0.25708 l 0.38562,0.45227 q 0.109498,0.12378 0.08093,0.28089 l -0.195191,1.09973 q -0.01429,0.0857 -0.07617,0.14282 -0.06189,0.0571 -0.147582,0.0667 l -1.399659,0.14759 -0.93310598,0.0857 h -0.02856 q -0.09998,0 -0.176149,-0.0762 -0.07617,-0.0762 -0.07617,-0.18091 0,-0.0952 0.07141,-0.16663 0.07141,-0.0714 0.171386,-0.0857 l 0.69030898,-0.0857 H 0.42318262 q -0.109498,0 -0.180909,-0.0809 -0.07141,-0.0809 -0.07141,-0.18567 0.0048,-0.10473 0.08569,-0.17614 0.08093,-0.0714 0.180909,-0.0667 l 1.17590398,-0.005 -1.38537698,-0.16663 q -0.109498,-0.0143 -0.176149,-0.1 -0.06665,-0.0857 -0.04761,-0.19519 0.01429,-0.0905 0.09045,-0.15234 0.07617,-0.0619 0.171389,-0.0571 h 0.02857 l 1.27587898,0.15714 -0.92834598,-0.24756 q -0.104736,-0.0286 -0.166627,-0.11426 -0.06189,-0.0857 -0.04761,-0.1809 0.01429,-0.0952 0.08569,-0.15235 0.07141,-0.0571 0.166627,-0.0619 0.01429,0 0.05237,0.005 l 1.19018498,0.25708 0.576051,0.0952 q 0.0048,0 0.0095,0.005 0.0048,0.005 0.0095,0 0.05713,0 0.08093,-0.0619 0.02381,-0.0619 -0.03333,-0.0952 l -0.495127,-0.33332 q -0.09521,-0.0619 -0.114257,-0.16662 -0.01905,-0.10474 0.04761,-0.19519 0.07141,-0.1 0.20471,-0.1 z m -0.185668,0.5332 0.495117,0.33326 -0.58081,-0.1 -0.01429,-0.005 -0.09522,-0.1 -0.63318,-0.69508 q 0,-0.005 -0.0048,-0.01 -0.0048,-0.005 -0.0095,-0.01 -0.06189,-0.0809 -0.04761,-0.18566 0.01429,-0.10474 0.09998,-0.17139 0.08093,-0.0619 0.180909,-0.0476 0.09998,0.0143 0.171386,0.0905 l 0.3761,0.39038 -0.0095,0.01 q 0,0 -0.01429,0.0143 -0.08569,0.11902 -0.06189,0.26184 0.02381,0.14282 0.147585,0.22375 z m 2.356569,-1.20447 0.03808,0.70459 q 0.0095,0.1952 -0.02856,0.39039 l -0.128539,0.58557 q -0.03332,0.15234 -0.176147,0.22851 l -0.280884,0.14282 q 0.0048,-0.16186 -0.104735,-0.2904 l -0.390383,-0.44751 q -0.138062,-0.16186 -0.309449,-0.27612 l -0.590333,-0.39514 q -0.09045,-0.0571 -0.199951,-0.0571 -0.138062,0 -0.233275,0.0952 l -0.62366,-0.82837 q -0.06665,-0.0857 -0.05237,-0.19519 0.01429,-0.1095 0.109495,-0.16663 0.09046,-0.0619 0.190432,-0.0381 0.09998,0.0238 0.166626,0.10474 l 0.709351,0.93787 -0.699831,-1.20923 q -0.05237,-0.0952 -0.02381,-0.19995 0.02856,-0.10474 0.123777,-0.1571 0.09522,-0.0476 0.190431,-0.0143 0.09522,0.0333 0.157105,0.11902 l 0.637939,1.11877 -0.361815,-0.89502 q -0.03809,-0.0952 -0.0095,-0.19995 0.02856,-0.10474 0.114258,-0.14758 0.09997,-0.0524 0.204713,-0.0143 0.104735,0.0381 0.147582,0.1333 l 0.51416,1.10449 0.266602,0.51892 q 0.02381,0.0429 0.06189,0.0476 0.03808,0.005 0.07141,-0.0191 0.03332,-0.0238 0.02856,-0.0714 l -0.02856,-0.59509 q -0.0095,-0.1095 0.06665,-0.18567 0.07617,-0.0762 0.185671,-0.0857 0.09998,0 0.176146,0.0762 0.07617,0.0762 0.08093,0.18091 z"
       inkscape:connector-curvature="0"
       style="fill:#434e52;fill-opacity:1;stroke-width:0.26458332" />
    <path
       id="path4222-4"
       d="m 1.7347978,279.08315 h 0.592497 l -0.0062,-0.91343 z m 3.536465,-0.34563 q 0,-0.29625 -0.172812,-0.4814 -0.172813,-0.18516 -0.50609,-0.17899 h -0.185155 v 1.33312 h 0.178982 q 0.314765,0 0.49992,-0.19749 0.185155,-0.1975 0.185155,-0.47524 z m -1.97499,-1.29608 v 2.60451 q 0,0.0494 -0.03086,0.0802 -0.03086,0.0309 -0.08023,0.037 h -0.746792 q -0.04937,0 -0.08023,-0.037 -0.03086,-0.037 -0.03086,-0.0802 v -0.21601 h -1.006009 l -0.185156,0.27773 q -0.03703,0.0556 -0.09875,0.0556 H 0.11778076 q -0.07406,0 -0.10492,-0.0617 -0.03086,-0.0617 0.01233,-0.12343 l 1.91327104,-2.60453 q 0.03086,-0.0494 0.09258,-0.0494 h 1.147964 q 0.0432,0 0.08023,0.037 0.03703,0.037 0.03703,0.0802 z m 2.845218,1.29608 q 0,0.66656 -0.432027,1.04304 -0.432031,0.37649 -1.117103,0.38266 h -0.93195 q -0.04937,0 -0.08023,-0.037 -0.03086,-0.037 -0.03703,-0.0802 v -2.60452 q 0,-0.0494 0.03703,-0.0802 0.03703,-0.0309 0.08023,-0.037 h 0.925777 q 0.685075,0 1.123276,0.37648 0.4382,0.37649 0.432027,1.03688 z m 0.536951,0.006 q 0,0.037 0,0.0987 0,0.0617 -0.03086,0.24688 -0.03086,0.18515 -0.07406,0.35179 -0.0432,0.16664 -0.148124,0.37031 -0.104924,0.20367 -0.259218,0.3518 h -0.172813 q 0.129609,-0.1543 0.228359,-0.35797 0.09875,-0.20367 0.141952,-0.38265 0.0432,-0.17899 0.07406,-0.33945 0.03086,-0.16047 0.03086,-0.25305 l 0.0062,-0.0926 q 0,-0.0247 -0.0062,-0.0741 -0.0062,-0.0494 -0.02469,-0.20984 -0.01852,-0.16051 -0.06789,-0.3148 -0.04937,-0.1543 -0.141951,-0.38265 -0.09258,-0.22836 -0.228357,-0.42586 h 0.148125 q 0.141951,0.16046 0.246872,0.36414 0.10492,0.20367 0.160467,0.38882 0.05555,0.18516 0.08024,0.32711 0.02469,0.14195 0.03703,0.2407 z m 0.635698,0 q 0,0.037 -0.0062,0.0987 -0.0062,0.0617 -0.02469,0.24688 -0.01852,0.18515 -0.07406,0.35179 -0.05555,0.16664 -0.154297,0.37031 -0.09875,0.20367 -0.253045,0.3518 h -0.178987 q 0.129609,-0.1543 0.228359,-0.35797 0.09875,-0.20367 0.141952,-0.38265 0.0432,-0.17899 0.07406,-0.33945 0.03086,-0.16047 0.03086,-0.25305 l 0.0062,-0.0926 q 0,-0.0247 -0.0062,-0.0741 -0.0062,-0.0494 -0.02469,-0.20984 -0.01852,-0.16051 -0.06789,-0.3148 -0.04937,-0.1543 -0.135778,-0.38265 -0.08641,-0.22836 -0.22836,-0.42586 h 0.148125 q 0.141951,0.16046 0.246872,0.36414 0.104923,0.20367 0.16047,0.38882 0.05555,0.18516 0.07406,0.32711 0.01852,0.14195 0.03703,0.2407 z m 0.623356,0 q 0,0.037 -0.0062,0.0987 -0.0062,0.0617 -0.02469,0.24688 -0.01852,0.18515 -0.07406,0.35179 -0.05555,0.16664 -0.154297,0.37031 -0.09875,0.20367 -0.253045,0.3518 h -0.172814 q 0.129608,-0.1543 0.228356,-0.35797 0.09875,-0.20367 0.135782,-0.38265 0.03703,-0.17899 0.07406,-0.33945 0.03703,-0.16047 0.03086,-0.25305 l 0.0062,-0.0926 q 0,-0.0247 -0.0062,-0.0741 -0.0062,-0.0494 -0.02469,-0.20984 -0.01852,-0.16051 -0.06789,-0.3148 -0.04937,-0.1543 -0.135779,-0.38265 -0.08641,-0.22836 -0.228359,-0.42586 h 0.148124 q 0.141952,0.16046 0.246873,0.36414 0.104923,0.20367 0.160469,0.38882 0.05555,0.18516 0.07406,0.32711 0.01852,0.14195 0.03703,0.2407 z"
       inkscape:connector-curvature="0"
       style="fill:#434e52;fill-opacity:1;stroke-width:0.26458332" />
    <path
       id="path4274-6"
       d="m 0,263.8734 v -1.99825 h 1.126791 l 1.704065,-1.38767 v 4.7625 L 1.126791,263.8734 Z m 3.125044,-0.18317 q 0.344143,-0.34969 0.344143,-0.83815 0,-0.48847 -0.344143,-0.84371 l 0.333041,-0.36079 q 0.499563,0.49956 0.510665,1.2156 0,0.69384 -0.510665,1.1823 z m 0.56062,0.58282 q 0.588375,-0.58282 0.588375,-1.42097 0,-0.83816 -0.588375,-1.43208 l 0.366345,-0.34415 q 0.727144,0.73825 0.727144,1.77067 0,1.03244 -0.727144,1.78178 z m 0.555069,0.54397 q 0.810403,-0.81595 0.810403,-1.96494 0,-1.149 -0.810403,-1.9594 l 0.344144,-0.3608 q 0.455157,0.45516 0.710491,1.05464 0.255331,0.59947 0.255331,1.26 0,0.66054 -0.255331,1.27112 -0.255334,0.61057 -0.710491,1.05463 z"
       inkscape:connector-curvature="0"
       style="fill:#434e52;fill-opacity:1;stroke-width:0.26458332" />
    <path
       id="path4287-9"
       d="m 0,267.17088 h 1.505246 l 1.702655,-1.39173 v 4.7625 L 1.505246,269.16472 H 0.375078 Z m 3.51882,1.39667 q 0,-0.0197 0.0099,-0.0296 L 3.903796,268.16287 3.52872,267.7878 q -0.0099,-0.01 -0.0099,-0.0296 0,-0.0197 0.0099,-0.0296 l 0.261568,-0.26157 q 0.0099,-0.01 0.02469,-0.01 0.01482,0 0.02961,0.01 l 0.375078,0.37508 0.380013,-0.37508 q 0.01974,-0.01 0.02961,-0.01 0.0099,0 0.02469,0.01 l 0.271439,0.26157 q 0.0099,0.01 0.0099,0.0296 0,0.0197 -0.0099,0.0296 l -0.375079,0.37507 0.375079,0.37508 q 0.0099,0.0197 0.0099,0.0345 0,0.0148 -0.0099,0.0247 l -0.271439,0.26651 q -0.0099,0.01 -0.02469,0.01 -0.01482,0 -0.02961,-0.01 l -0.380014,-0.38495 -0.375079,0.38495 q -0.0099,0.01 -0.02469,0.01 -0.01482,0 -0.02961,-0.01 l -0.261567,-0.26651 q -0.0099,-0.01 -0.0099,-0.0296 z"
       inkscape:connector-curvature="0"
       style="fill:#434e52;fill-opacity:1;stroke-width:0.26458332" />
    <path
       id="path9310"
       d="m 0.13911342,259.91046 q -0.05539915,0.0609 -0.09971847,0.0443 -0.04431932,-0.0166 -0.0387794039,-0.0997 v -4.55396 q 0,-0.0776 0.0387794039,-0.0997 0.03877941,-0.0222 0.09971847,0.0443 l 2.19384238,2.19388 q 0.027699,0.0277 0.044319,0.0554 v -2.09416 q 0,-0.0776 0.055399,-0.1385 0.055399,-0.0609 0.1385009,-0.0609 H 2.970055 q 0.077559,0 0.1385009,0.0609 0.060939,0.0609 0.055399,0.1385 v 4.35451 q 0,0.0776 -0.055399,0.13851 -0.055399,0.0609 -0.1385009,0.0609 H 2.5711751 q -0.077559,0 -0.1385009,-0.0609 -0.060939,-0.0609 -0.055399,-0.13851 v -2.09969 q -0.01662,0.0332 -0.044319,0.0609 z"
       inkscape:connector-curvature="0"
       style="fill:#434e52;fill-opacity:1;stroke-width:0.00554005" />
    <path
       inkscape:connector-curvature="0"
       d="m 3.02483,249.95205 q 0.0609,-0.0609 0.0997,-0.0443 0.0388,0.0166 0.0388,0.0997 v 4.55395 q 0,0.0776 -0.0388,0.0997 -0.0388,0.0222 -0.0997,-0.0443 l -2.19388,-2.19388 q -0.0277,-0.0277 -0.0388,-0.0609 v 2.09969 q 0,0.0776 -0.0609,0.13851 -0.0609,0.0609 -0.1385,0.0609 H 0.1994 q -0.0831,0 -0.1385,-0.0609 Q 0.0055,254.53932 0,254.46171 v -4.35451 q 0,-0.0776 0.0609,-0.1385 0.0609,-0.0609 0.1385,-0.0609 h 0.39335 q 0.0831,0 0.1385,0.0609 0.0554,0.0609 0.0609,0.1385 v 2.09416 q 0.0111,-0.0277 0.0388,-0.0554 z"
       id="path9369"
       style="fill:#434e52;fill-opacity:1;stroke-width:0.00554009" />
    <path
       id="path13898"
       d="m 5.715767,275.11965 v 0.47352 q 0,0.10004 -0.066691,0.16674 -0.066691,0.0667 -0.1734058,0.0734 H 0.24014252 q -0.10004105,0 -0.16674175,-0.0734 Q 0.00670007,275.68651 0,275.59317 v -0.47352 q 0,-0.10005 0.07340077,-0.16674 0.07340077,-0.0667 0.16674175,-0.0734 H 5.4756705 q 0.100042,0 0.1734058,0.0734 0.073361,0.0734 0.066691,0.16674 z m 0,-1.90745 v 0.4802 q 0,0.0934 -0.066691,0.16673 -0.066691,0.0734 -0.1734058,0.0667 H 0.24014252 q -0.10004105,0 -0.16674175,-0.0667 Q 0.00670007,273.79243 0,273.6924 v -0.4802 q 0,-0.0934 0.07340077,-0.16673 0.07340077,-0.0734 0.16674175,-0.0667 H 5.4756705 q 0.100042,0 0.1734058,0.0667 0.073361,0.0667 0.066691,0.16673 z m 0,-1.90078 v 0.47353 q 0,0.0934 -0.066691,0.16674 -0.066691,0.0734 -0.1734058,0.0734 H 0.24014252 q -0.10004105,0 -0.16674175,-0.0734 Q 0.00670007,271.87829 0,271.78495 v -0.47353 q 0,-0.10004 0.07340077,-0.1734 0.07340077,-0.0734 0.16674175,-0.0667 H 5.4756705 q 0.100042,0 0.1734058,0.0667 0.073361,0.0667 0.066691,0.1734 z"
       inkscape:connector-curvature="0"
       style="fill:#434e52;fill-opacity:1;stroke-width:0.00666942" />
    <path
       id="path13967"
       d="m 2.3720007,244.61248 c -0.5430192,0 -1.0860383,0.18577 -1.52426436,0.55254 0.82405546,-0.66686 2.03870356,-0.61923 2.80083576,0.14767 0.6382858,0.63828 0.7811855,1.58142 0.4239361,2.35784 -0.047633,0.13814 -0.023817,0.23817 0.05716,0.32391 0.1000298,0.0953 0.2905628,0.10956 0.4001194,0 0.01429,-0.0143 0.05716,-0.0714 0.07145,-0.11432 0.3381962,-0.8574 0.1571897,-1.87199 -0.5334925,-2.56743 -0.4715693,-0.46681 -1.0860384,-0.70021 -1.6957444,-0.70021 z m -1.94820031,1.30515 c -0.0666866,0 -0.13813652,0.0238 -0.18576972,0.0762 -0.01429,0.0143 -0.0619234,0.0714 -0.0714499,0.11432 -0.33819622,0.8574 -0.16195322,1.87199 0.53349246,2.56744 0.88121537,0.88121 2.28163327,0.92884 3.22000847,0.14766 -0.8240553,0.66686 -2.0387035,0.61923 -2.8055991,-0.14766 -0.63828575,-0.63829 -0.77642209,-1.58619 -0.42393603,-2.35785 0.0523966,-0.13814 0.02858,-0.23817 -0.0571599,-0.32391 -0.0523966,-0.0524 -0.1286098,-0.081 -0.20958628,-0.0762 z"
       inkscape:connector-curvature="0"
       style="fill:#434e52;fill-opacity:1;stroke-width:0.00476333" />
  </g>
</svg>
