<?xml version="1.0" encoding="UTF-8" standalone="no"?>
<!-- Created with Inkscape (http://www.inkscape.org/) -->

<svg
   xmlns:dc="../../../../../external.html?link=http://purl.org/dc/elements/1.1/"
   xmlns:cc="../../../../../external.html?link=http://creativecommons.org/ns#"
   xmlns:rdf="../../../../../external.html?link=http://www.w3.org/1999/02/22-rdf-syntax-ns#"
   xmlns:svg="../../../../../external.html?link=http://www.w3.org/2000/svg"
   xmlns="../../../../../external.html?link=http://www.w3.org/2000/svg"
   xmlns:sodipodi="../../../../../external.html?link=http://sodipodi.sourceforge.net/DTD/sodipodi-0.dtd"
   xmlns:inkscape="../../../../../external.html?link=http://www.inkscape.org/namespaces/inkscape"
   width="728.57141"
   height="728.57141"
   id="svg4498"
   version="1.1"
   inkscape:version="0.92.3 (2405546, 2018-03-11)"
   sodipodi:docname="find.svg">
  <defs
     id="defs4500" />
  <sodipodi:namedview
     id="base"
     pagecolor="#ffffff"
     bordercolor="#666666"
     borderopacity="1.0"
     inkscape:pageopacity="0.0"
     inkscape:pageshadow="2"
     inkscape:zoom="0.49497475"
     inkscape:cx="-120.42121"
     inkscape:cy="322.67048"
     inkscape:document-units="px"
     inkscape:current-layer="g3876"
     showgrid="false"
     inkscape:window-width="1920"
     inkscape:window-height="1017"
     inkscape:window-x="1912"
     inkscape:window-y="-8"
     inkscape:window-maximized="1"
     showborder="true"
     inkscape:showpageshadow="true"
     borderlayer="false"
     fit-margin-top="0"
     fit-margin-left="0"
     fit-margin-right="0"
     fit-margin-bottom="0" />
  <metadata
     id="metadata4503">
    <rdf:RDF>
      <cc:Work
         rdf:about="">
        <dc:format>image/svg+xml</dc:format>
        <dc:type
           rdf:resource="../../../../../external.html?link=http://purl.org/dc/dcmitype/StillImage" />
        <dc:title />
      </cc:Work>
    </rdf:RDF>
  </metadata>
  <g
     inkscape:label="Calque 1"
     inkscape:groupmode="layer"
     id="layer1"
     transform="translate(0.42855831,-1.2193386)">
    <g
       id="g3876"
       transform="matrix(1.7229729,0,0,1.7229729,-1999.0772,-118.53597)">
      <path
         transform="matrix(0.91358025,0,0,0.91358025,134.17989,-471.66536)"
         d="M 1585.7143,823.79077 A 231.42857,231.42857 0 0 1 1354.2858,1055.2193 231.42857,231.42857 0 0 1 1122.8572,823.79077 231.42857,231.42857 0 0 1 1354.2858,592.3622 231.42857,231.42857 0 0 1 1585.7143,823.79077 Z"
         sodipodi:ry="231.42857"
         sodipodi:rx="231.42857"
         sodipodi:cy="823.79077"
         sodipodi:cx="1354.2858"
         id="path3039"
         style="fill:#fd7400;fill-opacity:1;fill-rule:evenodd;stroke:none"
         sodipodi:type="arc" />
      <path
         d="M 1585.7143,823.79077 A 231.42857,231.42857 0 0 1 1354.2858,1055.2193 231.42857,231.42857 0 0 1 1122.8572,823.79077 231.42857,231.42857 0 0 1 1354.2858,592.3622 231.42857,231.42857 0 0 1 1585.7143,823.79077 Z"
         sodipodi:ry="231.42857"
         sodipodi:rx="231.42857"
         sodipodi:cy="823.79077"
         sodipodi:cx="1354.2858"
         id="path3039-1"
         style="fill:#f2f2f2;fill-opacity:1;fill-rule:evenodd;stroke:none"
         sodipodi:type="arc"
         transform="matrix(0.43827161,0,0,0.43827161,735.59786,-116.96764)" />
      <path
         d="M 1585.7143,823.79077 A 231.42857,231.42857 0 0 1 1354.2858,1055.2193 231.42857,231.42857 0 0 1 1122.8572,823.79077 231.42857,231.42857 0 0 1 1354.2858,592.3622 231.42857,231.42857 0 0 1 1585.7143,823.79077 Z"
         sodipodi:ry="231.42857"
         sodipodi:rx="231.42857"
         sodipodi:cy="823.79077"
         sodipodi:cx="1354.2858"
         id="path3039-1-7"
         style="fill:#fd7400;fill-opacity:1;fill-rule:evenodd;stroke:none"
         sodipodi:type="arc"
         transform="matrix(0.38888889,0,0,0.38888889,801.90473,-76.572326)" />
      <path
         inkscape:connector-curvature="0"
         id="path3039-1-7-4"
         d="m 1328.433,161.22767 c -45.3664,0 -82.1428,36.77661 -82.1428,82.14286 0,45.36625 36.7764,82.14286 82.1428,82.14286 45.3663,0 82.143,-36.77661 82.143,-82.14286 0,-45.36625 -36.7767,-82.14286 -82.143,-82.14286 z"
         style="fill:#f2f2f2;fill-opacity:1;fill-rule:evenodd;stroke:none" />
      <rect
         transform="matrix(0.70570379,-0.70850699,0.70850699,0.70570379,0,0)"
         y="1212.0569"
         x="753.17316"
         height="130.99817"
         width="24.485636"
         id="rect3873"
         style="fill:#f2f2f2;fill-opacity:1;stroke:#000000;stroke-width:0.85699725;stroke-opacity:0" />
    </g>
  </g>
</svg>
