<?xml version="1.0" encoding="UTF-8" standalone="no"?>
<!-- Generator: Adobe Illustrator 16.0.0, SVG Export Plug-In . SVG Version: 6.00 Build 0)  -->

<svg
   xmlns:dc="../../../../../external.html?link=http://purl.org/dc/elements/1.1/"
   xmlns:cc="../../../../../external.html?link=http://creativecommons.org/ns#"
   xmlns:rdf="../../../../../external.html?link=http://www.w3.org/1999/02/22-rdf-syntax-ns#"
   xmlns:svg="../../../../../external.html?link=http://www.w3.org/2000/svg"
   xmlns="../../../../../external.html?link=http://www.w3.org/2000/svg"
   xmlns:sodipodi="../../../../../external.html?link=http://sodipodi.sourceforge.net/DTD/sodipodi-0.dtd"
   xmlns:inkscape="../../../../../external.html?link=http://www.inkscape.org/namespaces/inkscape"
   version="1.1"
   x="0px"
   y="0px"
   width="128px"
   height="13px"
   viewBox="0 0 128 13"
   enable-background="new 0 0 128 13"
   xml:space="preserve"
   id="svg2"
   inkscape:version="0.48.5 r10040"
   sodipodi:docname="schPgeRank.svg"><metadata
   id="metadata462"><rdf:RDF><cc:Work
       rdf:about=""><dc:format>image/svg+xml</dc:format><dc:type
         rdf:resource="../../../../../external.html?link=http://purl.org/dc/dcmitype/StillImage" /></cc:Work></rdf:RDF></metadata><defs
   id="defs460" /><sodipodi:namedview
   pagecolor="#ffffff"
   bordercolor="#666666"
   borderopacity="1"
   objecttolerance="10"
   gridtolerance="10"
   guidetolerance="10"
   inkscape:pageopacity="0"
   inkscape:pageshadow="2"
   inkscape:window-width="1834"
   inkscape:window-height="1053"
   id="namedview458"
   showgrid="false"
   inkscape:zoom="2.4527766"
   inkscape:cx="204.91296"
   inkscape:cy="-84.803654"
   inkscape:window-x="77"
   inkscape:window-y="-9"
   inkscape:window-maximized="1"
   inkscape:current-layer="svg2" />




<g
   id="search">
	<g
   id="schPgeRank_1_">
		<g
   id="g368">
			<g
   id="g370">
				<path
   fill="#E67E22"
   d="M11.94,5.265c0,0.119-0.062,0.239-0.187,0.358L9.149,8.13l0.616,3.642c0.005,0,0.008,0.061,0.008,0.12      c0,0.119-0.026,0.179-0.079,0.239c-0.048,0.06-0.12,0.119-0.216,0.119c-0.091,0-0.187,0-0.287-0.06L5.97,10.459L2.749,12.19      c-0.105,0.06-0.201,0.06-0.287,0.06c-0.101,0-0.177-0.06-0.23-0.119c-0.048-0.061-0.072-0.12-0.072-0.239      c0,0,0.005-0.06,0.015-0.12L2.791,8.13L0.179,5.623C0.06,5.504,0,5.384,0,5.265c0-0.179,0.134-0.299,0.402-0.299l3.602-0.537      l1.615-3.283c0.091-0.18,0.208-0.299,0.352-0.299s0.261,0.119,0.352,0.299l1.614,3.283l3.603,0.537      C11.806,4.966,11.94,5.086,11.94,5.265"
   id="path372" />
			</g>
			<g
   id="g374">
				<path
   fill="#F1C40F"
   d="M11.94,4.668c0,0.119-0.062,0.238-0.187,0.358L9.149,7.533l0.616,3.642c0.005,0,0.008,0.061,0.008,0.12      c0,0.119-0.026,0.179-0.079,0.238c-0.048,0.061-0.12,0.12-0.216,0.12c-0.091,0-0.187,0-0.287-0.06L5.97,9.862l-3.222,1.731      c-0.105,0.06-0.201,0.06-0.287,0.06c-0.101,0-0.177-0.06-0.23-0.12c-0.048-0.06-0.072-0.119-0.072-0.238      c0,0,0.005-0.06,0.015-0.12l0.617-3.642L0.179,5.026C0.06,4.906,0,4.787,0,4.668c0-0.18,0.134-0.299,0.402-0.299l3.602-0.537      l1.615-3.283C5.709,0.369,5.827,0.25,5.97,0.25s0.261,0.119,0.352,0.299l1.614,3.283l3.603,0.537      C11.806,4.369,11.94,4.488,11.94,4.668"
   id="path376" />
			</g>
		</g>
		<g
   id="g378">
			<g
   id="g380">
				<path
   fill="#E67E22"
   d="M26.448,5.265c0,0.119-0.062,0.239-0.187,0.358L23.657,8.13l0.616,3.642c0.005,0,0.008,0.061,0.008,0.12      c0,0.119-0.026,0.179-0.079,0.239c-0.048,0.06-0.12,0.119-0.216,0.119c-0.091,0-0.187,0-0.287-0.06l-3.222-1.731l-3.222,1.731      c-0.105,0.06-0.201,0.06-0.287,0.06c-0.101,0-0.177-0.06-0.23-0.119c-0.048-0.061-0.072-0.12-0.072-0.239      c0,0,0.005-0.06,0.015-0.12l0.617-3.642l-2.612-2.507c-0.12-0.119-0.179-0.239-0.179-0.358c0-0.179,0.134-0.299,0.402-0.299      l3.602-0.537l1.615-3.283c0.091-0.18,0.208-0.299,0.352-0.299s0.261,0.119,0.352,0.299l1.614,3.283l3.603,0.537      C26.313,4.966,26.448,5.086,26.448,5.265"
   id="path382" />
			</g>
			<g
   id="g384">
				<path
   fill="#F1C40F"
   d="M26.448,4.668c0,0.119-0.062,0.238-0.187,0.358l-2.604,2.507l0.616,3.642      c0.005,0,0.008,0.061,0.008,0.12c0,0.119-0.026,0.179-0.079,0.238c-0.048,0.061-0.12,0.12-0.216,0.12      c-0.091,0-0.187,0-0.287-0.06l-3.222-1.731l-3.222,1.731c-0.105,0.06-0.201,0.06-0.287,0.06c-0.101,0-0.177-0.06-0.23-0.12      c-0.048-0.06-0.072-0.119-0.072-0.238c0,0,0.005-0.06,0.015-0.12l0.617-3.642l-2.612-2.507c-0.12-0.12-0.179-0.239-0.179-0.358      c0-0.18,0.134-0.299,0.402-0.299l3.602-0.537l1.615-3.283c0.091-0.18,0.208-0.299,0.352-0.299s0.261,0.119,0.352,0.299      l1.614,3.283l3.603,0.537C26.313,4.369,26.448,4.488,26.448,4.668"
   id="path386" />
			</g>
		</g>
		<g
   id="g388">
			<g
   id="g390">
				<path
   fill="#E67E22"
   d="M40.955,5.265c0,0.119-0.062,0.239-0.187,0.358L38.164,8.13l0.616,3.642c0.006,0,0.008,0.061,0.008,0.12      c0,0.119-0.026,0.179-0.078,0.239c-0.048,0.06-0.12,0.119-0.216,0.119c-0.091,0-0.187,0-0.287-0.06l-3.222-1.731l-3.222,1.731      c-0.105,0.06-0.201,0.06-0.287,0.06c-0.101,0-0.178-0.06-0.23-0.119c-0.048-0.061-0.071-0.12-0.071-0.239      c0,0,0.005-0.06,0.015-0.12l0.616-3.642l-2.611-2.507c-0.12-0.119-0.18-0.239-0.18-0.358c0-0.179,0.135-0.299,0.402-0.299      l3.602-0.537l1.615-3.283c0.091-0.18,0.208-0.299,0.352-0.299c0.143,0,0.261,0.119,0.352,0.299l1.614,3.283l3.603,0.537      C40.821,4.966,40.955,5.086,40.955,5.265"
   id="path392" />
			</g>
			<g
   id="g394">
				<path
   fill="#F1C40F"
   d="M40.955,4.668c0,0.119-0.062,0.238-0.187,0.358l-2.604,2.507l0.616,3.642      c0.006,0,0.008,0.061,0.008,0.12c0,0.119-0.026,0.179-0.078,0.238c-0.048,0.061-0.12,0.12-0.216,0.12      c-0.091,0-0.187,0-0.287-0.06l-3.222-1.731l-3.222,1.731c-0.105,0.06-0.201,0.06-0.287,0.06c-0.101,0-0.178-0.06-0.23-0.12      c-0.048-0.06-0.071-0.119-0.071-0.238c0,0,0.005-0.06,0.015-0.12l0.616-3.642l-2.611-2.507c-0.12-0.12-0.18-0.239-0.18-0.358      c0-0.18,0.135-0.299,0.402-0.299l3.602-0.537l1.615-3.283c0.091-0.18,0.208-0.299,0.352-0.299c0.143,0,0.261,0.119,0.352,0.299      l1.614,3.283l3.603,0.537C40.821,4.369,40.955,4.488,40.955,4.668"
   id="path396" />
			</g>
		</g>
		<g
   id="g398">
			<g
   id="g400">
				<path
   fill="#E67E22"
   d="M55.463,5.265c0,0.119-0.062,0.239-0.187,0.358L52.672,8.13l0.616,3.642c0.005,0,0.008,0.061,0.008,0.12      c0,0.119-0.026,0.179-0.079,0.239c-0.048,0.06-0.12,0.119-0.216,0.119c-0.091,0-0.187,0-0.287-0.06l-3.222-1.731l-3.222,1.731      c-0.105,0.06-0.201,0.06-0.287,0.06c-0.101,0-0.177-0.06-0.23-0.119c-0.048-0.061-0.072-0.12-0.072-0.239      c0,0,0.005-0.06,0.015-0.12l0.617-3.642l-2.612-2.507c-0.12-0.119-0.179-0.239-0.179-0.358c0-0.179,0.134-0.299,0.402-0.299      l3.602-0.537l1.615-3.283c0.091-0.18,0.208-0.299,0.352-0.299s0.261,0.119,0.352,0.299l1.614,3.283l3.603,0.537      C55.329,4.966,55.463,5.086,55.463,5.265"
   id="path402" />
			</g>
			<g
   id="g404">
				<path
   fill="#F1C40F"
   d="M55.463,4.668c0,0.119-0.062,0.238-0.187,0.358l-2.604,2.507l0.616,3.642      c0.005,0,0.008,0.061,0.008,0.12c0,0.119-0.026,0.179-0.079,0.238c-0.048,0.061-0.12,0.12-0.216,0.12      c-0.091,0-0.187,0-0.287-0.06l-3.222-1.731l-3.222,1.731c-0.105,0.06-0.201,0.06-0.287,0.06c-0.101,0-0.177-0.06-0.23-0.12      c-0.048-0.06-0.072-0.119-0.072-0.238c0,0,0.005-0.06,0.015-0.12l0.617-3.642l-2.612-2.507c-0.12-0.12-0.179-0.239-0.179-0.358      c0-0.18,0.134-0.299,0.402-0.299l3.602-0.537l1.615-3.283c0.091-0.18,0.208-0.299,0.352-0.299s0.261,0.119,0.352,0.299      l1.614,3.283l3.603,0.537C55.329,4.369,55.463,4.488,55.463,4.668"
   id="path406" />
			</g>
		</g>
		<g
   id="g408">
			<g
   id="g410">
				<path
   fill="#E67E22"
   d="M69.97,5.265c0,0.119-0.062,0.239-0.187,0.358L67.179,8.13l0.616,3.642c0.005,0,0.008,0.061,0.008,0.12      c0,0.119-0.026,0.179-0.079,0.239c-0.048,0.06-0.12,0.119-0.216,0.119c-0.091,0-0.187,0-0.287-0.06L64,10.459l-3.222,1.731      c-0.105,0.06-0.201,0.06-0.287,0.06c-0.101,0-0.177-0.06-0.23-0.119c-0.048-0.061-0.072-0.12-0.072-0.239      c0,0,0.005-0.06,0.015-0.12l0.617-3.642l-2.612-2.507c-0.12-0.119-0.179-0.239-0.179-0.358c0-0.179,0.134-0.299,0.402-0.299      l3.602-0.537l1.615-3.283c0.091-0.18,0.208-0.299,0.352-0.299s0.261,0.119,0.352,0.299l1.614,3.283l3.603,0.537      C69.836,4.966,69.97,5.086,69.97,5.265"
   id="path412" />
			</g>
			<g
   id="g414">
				<path
   fill="#F1C40F"
   d="M69.97,4.668c0,0.119-0.062,0.238-0.187,0.358l-2.604,2.507l0.616,3.642c0.005,0,0.008,0.061,0.008,0.12      c0,0.119-0.026,0.179-0.079,0.238c-0.048,0.061-0.12,0.12-0.216,0.12c-0.091,0-0.187,0-0.287-0.06L64,9.862l-3.222,1.731      c-0.105,0.06-0.201,0.06-0.287,0.06c-0.101,0-0.177-0.06-0.23-0.12c-0.048-0.06-0.072-0.119-0.072-0.238      c0,0,0.005-0.06,0.015-0.12l0.617-3.642l-2.612-2.507c-0.12-0.12-0.179-0.239-0.179-0.358c0-0.18,0.134-0.299,0.402-0.299      l3.602-0.537l1.615-3.283C63.739,0.369,63.857,0.25,64,0.25s0.261,0.119,0.352,0.299l1.614,3.283l3.603,0.537      C69.836,4.369,69.97,4.488,69.97,4.668"
   id="path416" />
			</g>
		</g>
		<g
   id="g418">
			<g
   id="g420">
				<path
   fill="#E67E22"
   d="M84.478,5.265c0,0.119-0.062,0.239-0.187,0.358L81.687,8.13l0.616,3.642c0.005,0,0.008,0.061,0.008,0.12      c0,0.119-0.026,0.179-0.079,0.239c-0.048,0.06-0.12,0.119-0.216,0.119c-0.091,0-0.187,0-0.287-0.06l-3.222-1.731l-3.222,1.731      c-0.105,0.06-0.201,0.06-0.287,0.06c-0.101,0-0.177-0.06-0.23-0.119c-0.048-0.061-0.072-0.12-0.072-0.239      c0,0,0.005-0.06,0.015-0.12l0.617-3.642l-2.612-2.507c-0.12-0.119-0.179-0.239-0.179-0.358c0-0.179,0.134-0.299,0.402-0.299      l3.602-0.537l1.615-3.283c0.091-0.18,0.208-0.299,0.352-0.299s0.261,0.119,0.352,0.299l1.614,3.283l3.603,0.537      C84.343,4.966,84.478,5.086,84.478,5.265"
   id="path422" />
			</g>
			<g
   id="g424">
				<path
   fill="#F1C40F"
   d="M84.478,4.668c0,0.119-0.062,0.238-0.187,0.358l-2.604,2.507l0.616,3.642      c0.005,0,0.008,0.061,0.008,0.12c0,0.119-0.026,0.179-0.079,0.238c-0.048,0.061-0.12,0.12-0.216,0.12      c-0.091,0-0.187,0-0.287-0.06l-3.222-1.731l-3.222,1.731c-0.105,0.06-0.201,0.06-0.287,0.06c-0.101,0-0.177-0.06-0.23-0.12      c-0.048-0.06-0.072-0.119-0.072-0.238c0,0,0.005-0.06,0.015-0.12l0.617-3.642l-2.612-2.507c-0.12-0.12-0.179-0.239-0.179-0.358      c0-0.18,0.134-0.299,0.402-0.299l3.602-0.537l1.615-3.283c0.091-0.18,0.208-0.299,0.352-0.299s0.261,0.119,0.352,0.299      l1.614,3.283l3.603,0.537C84.343,4.369,84.478,4.488,84.478,4.668"
   id="path426" />
			</g>
		</g>
		<g
   id="g428">
			<g
   id="g430">
				<path
   fill="#E67E22"
   d="M98.985,5.265c0,0.119-0.062,0.239-0.187,0.358L96.194,8.13l0.616,3.642c0.005,0,0.008,0.061,0.008,0.12      c0,0.119-0.026,0.179-0.079,0.239c-0.048,0.06-0.119,0.119-0.216,0.119c-0.091,0-0.187,0-0.287-0.06l-3.222-1.731l-3.222,1.731      c-0.105,0.06-0.201,0.06-0.287,0.06c-0.101,0-0.177-0.06-0.229-0.119c-0.048-0.061-0.072-0.12-0.072-0.239      c0,0,0.005-0.06,0.015-0.12l0.617-3.642l-2.612-2.507c-0.119-0.119-0.179-0.239-0.179-0.358c0-0.179,0.134-0.299,0.401-0.299      l3.603-0.537l1.614-3.283c0.091-0.18,0.209-0.299,0.352-0.299c0.144,0,0.261,0.119,0.352,0.299l1.614,3.283l3.603,0.537      C98.851,4.966,98.985,5.086,98.985,5.265"
   id="path432" />
			</g>
			<g
   id="g434">
				<path
   fill="#F1C40F"
   d="M98.985,4.668c0,0.119-0.062,0.238-0.187,0.358l-2.604,2.507l0.616,3.642      c0.005,0,0.008,0.061,0.008,0.12c0,0.119-0.026,0.179-0.079,0.238c-0.048,0.061-0.119,0.12-0.216,0.12      c-0.091,0-0.187,0-0.287-0.06l-3.222-1.731l-3.222,1.731c-0.105,0.06-0.201,0.06-0.287,0.06c-0.101,0-0.177-0.06-0.229-0.12      c-0.048-0.06-0.072-0.119-0.072-0.238c0,0,0.005-0.06,0.015-0.12l0.617-3.642l-2.612-2.507c-0.119-0.12-0.179-0.239-0.179-0.358      c0-0.18,0.134-0.299,0.401-0.299l3.603-0.537l1.614-3.283c0.091-0.18,0.209-0.299,0.352-0.299c0.144,0,0.261,0.119,0.352,0.299      l1.614,3.283l3.603,0.537C98.851,4.369,98.985,4.488,98.985,4.668"
   id="path436" />
			</g>
		</g>
		<g
   id="g438">
			<g
   id="g440">
				<path
   fill="#E67E22"
   d="M113.493,5.265c0,0.119-0.062,0.239-0.187,0.358l-2.604,2.507l0.616,3.642      c0.005,0,0.008,0.061,0.008,0.12c0,0.119-0.026,0.179-0.079,0.239c-0.048,0.06-0.12,0.119-0.216,0.119      c-0.091,0-0.187,0-0.287-0.06l-3.222-1.731l-3.222,1.731c-0.105,0.06-0.201,0.06-0.287,0.06c-0.101,0-0.177-0.06-0.23-0.119      c-0.048-0.061-0.072-0.12-0.072-0.239c0,0,0.005-0.06,0.015-0.12l0.617-3.642l-2.612-2.507c-0.12-0.119-0.179-0.239-0.179-0.358      c0-0.179,0.134-0.299,0.402-0.299l3.602-0.537l1.615-3.283c0.091-0.18,0.208-0.299,0.352-0.299s0.261,0.119,0.352,0.299      l1.614,3.283l3.603,0.537C113.358,4.966,113.493,5.086,113.493,5.265"
   id="path442" />
			</g>
			<g
   id="g444">
				<path
   fill="#F1C40F"
   d="M113.493,4.668c0,0.119-0.062,0.238-0.187,0.358l-2.604,2.507l0.616,3.642      c0.005,0,0.008,0.061,0.008,0.12c0,0.119-0.026,0.179-0.079,0.238c-0.048,0.061-0.12,0.12-0.216,0.12      c-0.091,0-0.187,0-0.287-0.06l-3.222-1.731l-3.222,1.731c-0.105,0.06-0.201,0.06-0.287,0.06c-0.101,0-0.177-0.06-0.23-0.12      c-0.048-0.06-0.072-0.119-0.072-0.238c0,0,0.005-0.06,0.015-0.12l0.617-3.642l-2.612-2.507c-0.12-0.12-0.179-0.239-0.179-0.358      c0-0.18,0.134-0.299,0.402-0.299l3.602-0.537l1.615-3.283c0.091-0.18,0.208-0.299,0.352-0.299s0.261,0.119,0.352,0.299      l1.614,3.283l3.603,0.537C113.358,4.369,113.493,4.488,113.493,4.668"
   id="path446" />
			</g>
		</g>
		<g
   id="g448">
			<g
   id="g450">
				<path
   fill="#E67E22"
   d="M128,5.265c0,0.119-0.062,0.239-0.187,0.358l-2.604,2.507l0.616,3.642c0.005,0,0.008,0.061,0.008,0.12      c0,0.119-0.026,0.179-0.079,0.239c-0.048,0.06-0.12,0.119-0.216,0.119c-0.091,0-0.187,0-0.287-0.06l-3.222-1.731l-3.222,1.731      c-0.105,0.06-0.201,0.06-0.287,0.06c-0.101,0-0.177-0.06-0.23-0.119c-0.048-0.061-0.072-0.12-0.072-0.239      c0,0,0.005-0.06,0.015-0.12l0.617-3.642l-2.612-2.507c-0.12-0.119-0.179-0.239-0.179-0.358c0-0.179,0.134-0.299,0.402-0.299      l3.602-0.537l1.615-3.283c0.091-0.18,0.208-0.299,0.352-0.299s0.261,0.119,0.352,0.299l1.614,3.283l3.603,0.537      C127.866,4.966,128,5.086,128,5.265"
   id="path452" />
			</g>
			<g
   id="g454">
				<path
   fill="#F1C40F"
   d="M128,4.668c0,0.119-0.062,0.238-0.187,0.358l-2.604,2.507l0.616,3.642c0.005,0,0.008,0.061,0.008,0.12      c0,0.119-0.026,0.179-0.079,0.238c-0.048,0.061-0.12,0.12-0.216,0.12c-0.091,0-0.187,0-0.287-0.06l-3.222-1.731l-3.222,1.731      c-0.105,0.06-0.201,0.06-0.287,0.06c-0.101,0-0.177-0.06-0.23-0.12c-0.048-0.06-0.072-0.119-0.072-0.238      c0,0,0.005-0.06,0.015-0.12l0.617-3.642l-2.612-2.507c-0.12-0.12-0.179-0.239-0.179-0.358c0-0.18,0.134-0.299,0.402-0.299      l3.602-0.537l1.615-3.283c0.091-0.18,0.208-0.299,0.352-0.299s0.261,0.119,0.352,0.299l1.614,3.283l3.603,0.537      C127.866,4.369,128,4.488,128,4.668"
   id="path456" />
			</g>
		</g>
	</g>
</g>
</svg>